M48
;DRILL file {KiCad 4.0.4-stable} date Friday, December 09, 2016 'PMt' 11:26:33 PM
;FORMAT={-:-/ absolute / inch / decimal}
FMAT,2
INCH,TZ
T1C0.016
T2C0.028
T3C0.040
%
G90
G05
M72
T1
X3.475Y-5.225
X3.55Y-5.225
X3.75Y-3.45
X3.8Y-4.525
X3.825Y-4.65
X4.2Y-3.4
X4.225Y-3.3
X4.225Y-3.525
X4.75Y-4.7795
X5.Y-3.225
X5.125Y-5.225
X5.225Y-3.225
X5.275Y-3.15
X5.7Y-4.475
X6.025Y-4.45
X6.3Y-3.6
X6.475Y-3.525
X6.6Y-4.35
X6.925Y-3.425
X7.05Y-3.55
T3
X4.0125Y-4.0125
X4.0125Y-4.1125
X4.1125Y-4.0125
X4.1125Y-4.1125
X4.3Y-3.35
X4.3Y-3.45
X4.4Y-3.35
X4.4Y-3.45
X4.75Y-5.175
X4.75Y-5.275
X4.75Y-5.375
X4.85Y-4.3
X4.85Y-4.4
X4.95Y-4.3
X4.95Y-4.4
X5.0875Y-3.4625
X5.0875Y-3.5625
X5.1875Y-3.4625
X5.1875Y-3.5625
X5.75Y-5.175
X5.75Y-5.275
X5.75Y-5.375
X5.95Y-4.225
X5.95Y-4.325
X6.05Y-4.225
X6.05Y-4.325
X6.25Y-3.2
X6.25Y-3.3
X6.35Y-3.2
X6.35Y-3.3
X6.7Y-5.175
X6.7Y-5.275
X6.7Y-5.375
X7.025Y-4.425
X7.025Y-4.525
X7.125Y-4.425
X7.125Y-4.525
X7.425Y-3.45
X7.425Y-3.55
X7.425Y-3.65
T2
X3.2982Y-4.9969G85X3.2675Y-4.9969
G05
X3.2982Y-5.2531G85X3.2675Y-5.2531
G05
T0
M30
