G04 #@! TF.FileFunction,Copper,L2,Bot,Signal*
%FSLAX46Y46*%
G04 Gerber Fmt 4.6, Leading zero omitted, Abs format (unit mm)*
G04 Created by KiCad (PCBNEW 4.0.4-stable) date Friday, December 09, 2016 'PMt' 11:26:17 PM*
%MOMM*%
%LPD*%
G01*
G04 APERTURE LIST*
%ADD10C,0.100000*%
%ADD11R,2.032000X1.727200*%
%ADD12O,2.032000X1.727200*%
%ADD13O,2.000000X1.120000*%
%ADD14R,1.727200X1.727200*%
%ADD15O,1.727200X1.727200*%
%ADD16C,0.600000*%
%ADD17C,0.250000*%
%ADD18C,0.254000*%
G04 APERTURE END LIST*
D10*
D11*
X146050000Y-131445000D03*
D12*
X146050000Y-133985000D03*
X146050000Y-136525000D03*
D11*
X170180000Y-131445000D03*
D12*
X170180000Y-133985000D03*
X170180000Y-136525000D03*
D11*
X120650000Y-131445000D03*
D12*
X120650000Y-133985000D03*
X120650000Y-136525000D03*
D11*
X188595000Y-87630000D03*
D12*
X188595000Y-90170000D03*
X188595000Y-92710000D03*
D13*
X83385000Y-126920000D03*
X83385000Y-133430000D03*
D14*
X158750000Y-81280000D03*
D15*
X161290000Y-81280000D03*
X158750000Y-83820000D03*
X161290000Y-83820000D03*
D14*
X178435000Y-112395000D03*
D15*
X180975000Y-112395000D03*
X178435000Y-114935000D03*
X180975000Y-114935000D03*
D14*
X123190000Y-109220000D03*
D15*
X125730000Y-109220000D03*
X123190000Y-111760000D03*
X125730000Y-111760000D03*
D14*
X131762500Y-90487500D03*
D15*
X129222500Y-90487500D03*
X131762500Y-87947500D03*
X129222500Y-87947500D03*
D14*
X111760000Y-87630000D03*
D15*
X109220000Y-87630000D03*
X111760000Y-85090000D03*
X109220000Y-85090000D03*
D14*
X153670000Y-109855000D03*
D15*
X151130000Y-109855000D03*
X153670000Y-107315000D03*
X151130000Y-107315000D03*
D14*
X104457500Y-104457500D03*
D15*
X101917500Y-104457500D03*
X104457500Y-101917500D03*
X101917500Y-101917500D03*
D16*
X153035000Y-113030000D03*
X144780000Y-113665000D03*
X167640000Y-110490000D03*
X175895000Y-86995000D03*
X179070000Y-90170000D03*
X164465000Y-89535000D03*
X160020000Y-91440000D03*
X120650000Y-121400000D03*
X130175000Y-132715000D03*
X88265000Y-132715000D03*
X90170000Y-132715000D03*
X97155000Y-118110000D03*
X96520000Y-114935000D03*
X95250000Y-87630000D03*
X127000000Y-81915000D03*
X133985000Y-80010000D03*
X132715000Y-81915000D03*
X107315000Y-89535000D03*
X107315000Y-83820000D03*
X106680000Y-86360000D03*
D17*
X132715000Y-81280000D02*
X133985000Y-80010000D01*
X132715000Y-81915000D02*
X132715000Y-81280000D01*
X106680000Y-86360000D02*
X106680000Y-88900000D01*
X106680000Y-88900000D02*
X107315000Y-89535000D01*
X106680000Y-84455000D02*
X107315000Y-83820000D01*
X106680000Y-86360000D02*
X106680000Y-84455000D01*
D18*
G36*
X192330000Y-144070000D02*
X81990000Y-144070000D01*
X81990000Y-134158295D01*
X82067975Y-134274993D01*
X82455661Y-134534036D01*
X82912968Y-134625000D01*
X83857032Y-134625000D01*
X84314339Y-134534036D01*
X84702025Y-134274993D01*
X84895791Y-133985000D01*
X118966655Y-133985000D01*
X119080729Y-134558489D01*
X119405585Y-135044670D01*
X119720366Y-135255000D01*
X119405585Y-135465330D01*
X119080729Y-135951511D01*
X118966655Y-136525000D01*
X119080729Y-137098489D01*
X119405585Y-137584670D01*
X119891766Y-137909526D01*
X120465255Y-138023600D01*
X120834745Y-138023600D01*
X121408234Y-137909526D01*
X121894415Y-137584670D01*
X122219271Y-137098489D01*
X122333345Y-136525000D01*
X122219271Y-135951511D01*
X121894415Y-135465330D01*
X121579634Y-135255000D01*
X121894415Y-135044670D01*
X122219271Y-134558489D01*
X122333345Y-133985000D01*
X144366655Y-133985000D01*
X144480729Y-134558489D01*
X144805585Y-135044670D01*
X145120366Y-135255000D01*
X144805585Y-135465330D01*
X144480729Y-135951511D01*
X144366655Y-136525000D01*
X144480729Y-137098489D01*
X144805585Y-137584670D01*
X145291766Y-137909526D01*
X145865255Y-138023600D01*
X146234745Y-138023600D01*
X146808234Y-137909526D01*
X147294415Y-137584670D01*
X147619271Y-137098489D01*
X147733345Y-136525000D01*
X147619271Y-135951511D01*
X147294415Y-135465330D01*
X146979634Y-135255000D01*
X147294415Y-135044670D01*
X147619271Y-134558489D01*
X147733345Y-133985000D01*
X168496655Y-133985000D01*
X168610729Y-134558489D01*
X168935585Y-135044670D01*
X169250366Y-135255000D01*
X168935585Y-135465330D01*
X168610729Y-135951511D01*
X168496655Y-136525000D01*
X168610729Y-137098489D01*
X168935585Y-137584670D01*
X169421766Y-137909526D01*
X169995255Y-138023600D01*
X170364745Y-138023600D01*
X170938234Y-137909526D01*
X171424415Y-137584670D01*
X171749271Y-137098489D01*
X171863345Y-136525000D01*
X171749271Y-135951511D01*
X171424415Y-135465330D01*
X171109634Y-135255000D01*
X171424415Y-135044670D01*
X171749271Y-134558489D01*
X171863345Y-133985000D01*
X171749271Y-133411511D01*
X171424415Y-132925330D01*
X171410087Y-132915757D01*
X171431317Y-132911762D01*
X171647441Y-132772690D01*
X171792431Y-132560490D01*
X171843440Y-132308600D01*
X171843440Y-130581400D01*
X171799162Y-130346083D01*
X171660090Y-130129959D01*
X171447890Y-129984969D01*
X171196000Y-129933960D01*
X169164000Y-129933960D01*
X168928683Y-129978238D01*
X168712559Y-130117310D01*
X168567569Y-130329510D01*
X168516560Y-130581400D01*
X168516560Y-132308600D01*
X168560838Y-132543917D01*
X168699910Y-132760041D01*
X168912110Y-132905031D01*
X168953439Y-132913400D01*
X168935585Y-132925330D01*
X168610729Y-133411511D01*
X168496655Y-133985000D01*
X147733345Y-133985000D01*
X147619271Y-133411511D01*
X147294415Y-132925330D01*
X147280087Y-132915757D01*
X147301317Y-132911762D01*
X147517441Y-132772690D01*
X147662431Y-132560490D01*
X147713440Y-132308600D01*
X147713440Y-130581400D01*
X147669162Y-130346083D01*
X147530090Y-130129959D01*
X147317890Y-129984969D01*
X147066000Y-129933960D01*
X145034000Y-129933960D01*
X144798683Y-129978238D01*
X144582559Y-130117310D01*
X144437569Y-130329510D01*
X144386560Y-130581400D01*
X144386560Y-132308600D01*
X144430838Y-132543917D01*
X144569910Y-132760041D01*
X144782110Y-132905031D01*
X144823439Y-132913400D01*
X144805585Y-132925330D01*
X144480729Y-133411511D01*
X144366655Y-133985000D01*
X122333345Y-133985000D01*
X122219271Y-133411511D01*
X121894415Y-132925330D01*
X121880087Y-132915757D01*
X121901317Y-132911762D01*
X122117441Y-132772690D01*
X122262431Y-132560490D01*
X122313440Y-132308600D01*
X122313440Y-130581400D01*
X122269162Y-130346083D01*
X122130090Y-130129959D01*
X121917890Y-129984969D01*
X121666000Y-129933960D01*
X119634000Y-129933960D01*
X119398683Y-129978238D01*
X119182559Y-130117310D01*
X119037569Y-130329510D01*
X118986560Y-130581400D01*
X118986560Y-132308600D01*
X119030838Y-132543917D01*
X119169910Y-132760041D01*
X119382110Y-132905031D01*
X119423439Y-132913400D01*
X119405585Y-132925330D01*
X119080729Y-133411511D01*
X118966655Y-133985000D01*
X84895791Y-133985000D01*
X84961068Y-133887307D01*
X85052032Y-133430000D01*
X84961068Y-132972693D01*
X84702025Y-132585007D01*
X84314339Y-132325964D01*
X83857032Y-132235000D01*
X82912968Y-132235000D01*
X82455661Y-132325964D01*
X82067975Y-132585007D01*
X81990000Y-132701705D01*
X81990000Y-127648295D01*
X82067975Y-127764993D01*
X82455661Y-128024036D01*
X82912968Y-128115000D01*
X83857032Y-128115000D01*
X84314339Y-128024036D01*
X84702025Y-127764993D01*
X84961068Y-127377307D01*
X85052032Y-126920000D01*
X84961068Y-126462693D01*
X84702025Y-126075007D01*
X84314339Y-125815964D01*
X83857032Y-125725000D01*
X82912968Y-125725000D01*
X82455661Y-125815964D01*
X82067975Y-126075007D01*
X81990000Y-126191705D01*
X81990000Y-114935000D01*
X176907041Y-114935000D01*
X177021115Y-115508489D01*
X177345971Y-115994670D01*
X177832152Y-116319526D01*
X178405641Y-116433600D01*
X178464359Y-116433600D01*
X179037848Y-116319526D01*
X179524029Y-115994670D01*
X179705000Y-115723828D01*
X179885971Y-115994670D01*
X180372152Y-116319526D01*
X180945641Y-116433600D01*
X181004359Y-116433600D01*
X181577848Y-116319526D01*
X182064029Y-115994670D01*
X182388885Y-115508489D01*
X182502959Y-114935000D01*
X182388885Y-114361511D01*
X182064029Y-113875330D01*
X181749248Y-113665000D01*
X182064029Y-113454670D01*
X182388885Y-112968489D01*
X182502959Y-112395000D01*
X182388885Y-111821511D01*
X182064029Y-111335330D01*
X181577848Y-111010474D01*
X181004359Y-110896400D01*
X180945641Y-110896400D01*
X180372152Y-111010474D01*
X179906558Y-111321574D01*
X179901762Y-111296083D01*
X179762690Y-111079959D01*
X179550490Y-110934969D01*
X179298600Y-110883960D01*
X177571400Y-110883960D01*
X177336083Y-110928238D01*
X177119959Y-111067310D01*
X176974969Y-111279510D01*
X176923960Y-111531400D01*
X176923960Y-113258600D01*
X176968238Y-113493917D01*
X177107310Y-113710041D01*
X177319510Y-113855031D01*
X177363131Y-113863864D01*
X177345971Y-113875330D01*
X177021115Y-114361511D01*
X176907041Y-114935000D01*
X81990000Y-114935000D01*
X81990000Y-111760000D01*
X121662041Y-111760000D01*
X121776115Y-112333489D01*
X122100971Y-112819670D01*
X122587152Y-113144526D01*
X123160641Y-113258600D01*
X123219359Y-113258600D01*
X123792848Y-113144526D01*
X124279029Y-112819670D01*
X124460000Y-112548828D01*
X124640971Y-112819670D01*
X125127152Y-113144526D01*
X125700641Y-113258600D01*
X125759359Y-113258600D01*
X126332848Y-113144526D01*
X126819029Y-112819670D01*
X127143885Y-112333489D01*
X127257959Y-111760000D01*
X127143885Y-111186511D01*
X126819029Y-110700330D01*
X126504248Y-110490000D01*
X126819029Y-110279670D01*
X127143885Y-109793489D01*
X127257959Y-109220000D01*
X127143885Y-108646511D01*
X126819029Y-108160330D01*
X126332848Y-107835474D01*
X125759359Y-107721400D01*
X125700641Y-107721400D01*
X125127152Y-107835474D01*
X124661558Y-108146574D01*
X124656762Y-108121083D01*
X124517690Y-107904959D01*
X124305490Y-107759969D01*
X124053600Y-107708960D01*
X122326400Y-107708960D01*
X122091083Y-107753238D01*
X121874959Y-107892310D01*
X121729969Y-108104510D01*
X121678960Y-108356400D01*
X121678960Y-110083600D01*
X121723238Y-110318917D01*
X121862310Y-110535041D01*
X122074510Y-110680031D01*
X122118131Y-110688864D01*
X122100971Y-110700330D01*
X121776115Y-111186511D01*
X121662041Y-111760000D01*
X81990000Y-111760000D01*
X81990000Y-107315000D01*
X149602041Y-107315000D01*
X149716115Y-107888489D01*
X150040971Y-108374670D01*
X150355752Y-108585000D01*
X150040971Y-108795330D01*
X149716115Y-109281511D01*
X149602041Y-109855000D01*
X149716115Y-110428489D01*
X150040971Y-110914670D01*
X150527152Y-111239526D01*
X151100641Y-111353600D01*
X151159359Y-111353600D01*
X151732848Y-111239526D01*
X152198442Y-110928426D01*
X152203238Y-110953917D01*
X152342310Y-111170041D01*
X152554510Y-111315031D01*
X152806400Y-111366040D01*
X154533600Y-111366040D01*
X154768917Y-111321762D01*
X154985041Y-111182690D01*
X155130031Y-110970490D01*
X155181040Y-110718600D01*
X155181040Y-108991400D01*
X155136762Y-108756083D01*
X154997690Y-108539959D01*
X154785490Y-108394969D01*
X154741869Y-108386136D01*
X154759029Y-108374670D01*
X155083885Y-107888489D01*
X155197959Y-107315000D01*
X155083885Y-106741511D01*
X154759029Y-106255330D01*
X154272848Y-105930474D01*
X153699359Y-105816400D01*
X153640641Y-105816400D01*
X153067152Y-105930474D01*
X152580971Y-106255330D01*
X152400000Y-106526172D01*
X152219029Y-106255330D01*
X151732848Y-105930474D01*
X151159359Y-105816400D01*
X151100641Y-105816400D01*
X150527152Y-105930474D01*
X150040971Y-106255330D01*
X149716115Y-106741511D01*
X149602041Y-107315000D01*
X81990000Y-107315000D01*
X81990000Y-101917500D01*
X100389541Y-101917500D01*
X100503615Y-102490989D01*
X100828471Y-102977170D01*
X101143252Y-103187500D01*
X100828471Y-103397830D01*
X100503615Y-103884011D01*
X100389541Y-104457500D01*
X100503615Y-105030989D01*
X100828471Y-105517170D01*
X101314652Y-105842026D01*
X101888141Y-105956100D01*
X101946859Y-105956100D01*
X102520348Y-105842026D01*
X102985942Y-105530926D01*
X102990738Y-105556417D01*
X103129810Y-105772541D01*
X103342010Y-105917531D01*
X103593900Y-105968540D01*
X105321100Y-105968540D01*
X105556417Y-105924262D01*
X105772541Y-105785190D01*
X105917531Y-105572990D01*
X105968540Y-105321100D01*
X105968540Y-103593900D01*
X105924262Y-103358583D01*
X105785190Y-103142459D01*
X105572990Y-102997469D01*
X105529369Y-102988636D01*
X105546529Y-102977170D01*
X105871385Y-102490989D01*
X105985459Y-101917500D01*
X105871385Y-101344011D01*
X105546529Y-100857830D01*
X105060348Y-100532974D01*
X104486859Y-100418900D01*
X104428141Y-100418900D01*
X103854652Y-100532974D01*
X103368471Y-100857830D01*
X103187500Y-101128672D01*
X103006529Y-100857830D01*
X102520348Y-100532974D01*
X101946859Y-100418900D01*
X101888141Y-100418900D01*
X101314652Y-100532974D01*
X100828471Y-100857830D01*
X100503615Y-101344011D01*
X100389541Y-101917500D01*
X81990000Y-101917500D01*
X81990000Y-86545167D01*
X105744838Y-86545167D01*
X105886883Y-86888943D01*
X105920000Y-86922118D01*
X105920000Y-88900000D01*
X105977852Y-89190839D01*
X106142599Y-89437401D01*
X106379878Y-89674680D01*
X106379838Y-89720167D01*
X106521883Y-90063943D01*
X106784673Y-90327192D01*
X107128201Y-90469838D01*
X107500167Y-90470162D01*
X107843943Y-90328117D01*
X108107192Y-90065327D01*
X108249838Y-89721799D01*
X108250162Y-89349833D01*
X108108117Y-89006057D01*
X107845327Y-88742808D01*
X107501799Y-88600162D01*
X107454923Y-88600121D01*
X107440000Y-88585198D01*
X107440000Y-86922463D01*
X107472192Y-86890327D01*
X107614838Y-86546799D01*
X107615162Y-86174833D01*
X107473117Y-85831057D01*
X107440000Y-85797882D01*
X107440000Y-84769802D01*
X107454680Y-84755122D01*
X107500167Y-84755162D01*
X107781791Y-84638798D01*
X107692041Y-85090000D01*
X107806115Y-85663489D01*
X108130971Y-86149670D01*
X108445752Y-86360000D01*
X108130971Y-86570330D01*
X107806115Y-87056511D01*
X107692041Y-87630000D01*
X107806115Y-88203489D01*
X108130971Y-88689670D01*
X108617152Y-89014526D01*
X109190641Y-89128600D01*
X109249359Y-89128600D01*
X109822848Y-89014526D01*
X110288442Y-88703426D01*
X110293238Y-88728917D01*
X110432310Y-88945041D01*
X110644510Y-89090031D01*
X110896400Y-89141040D01*
X112623600Y-89141040D01*
X112858917Y-89096762D01*
X113075041Y-88957690D01*
X113220031Y-88745490D01*
X113271040Y-88493600D01*
X113271040Y-87947500D01*
X127694541Y-87947500D01*
X127808615Y-88520989D01*
X128133471Y-89007170D01*
X128448252Y-89217500D01*
X128133471Y-89427830D01*
X127808615Y-89914011D01*
X127694541Y-90487500D01*
X127808615Y-91060989D01*
X128133471Y-91547170D01*
X128619652Y-91872026D01*
X129193141Y-91986100D01*
X129251859Y-91986100D01*
X129825348Y-91872026D01*
X130290942Y-91560926D01*
X130295738Y-91586417D01*
X130434810Y-91802541D01*
X130647010Y-91947531D01*
X130898900Y-91998540D01*
X132626100Y-91998540D01*
X132861417Y-91954262D01*
X133077541Y-91815190D01*
X133222531Y-91602990D01*
X133273540Y-91351100D01*
X133273540Y-90170000D01*
X186911655Y-90170000D01*
X187025729Y-90743489D01*
X187350585Y-91229670D01*
X187665366Y-91440000D01*
X187350585Y-91650330D01*
X187025729Y-92136511D01*
X186911655Y-92710000D01*
X187025729Y-93283489D01*
X187350585Y-93769670D01*
X187836766Y-94094526D01*
X188410255Y-94208600D01*
X188779745Y-94208600D01*
X189353234Y-94094526D01*
X189839415Y-93769670D01*
X190164271Y-93283489D01*
X190278345Y-92710000D01*
X190164271Y-92136511D01*
X189839415Y-91650330D01*
X189524634Y-91440000D01*
X189839415Y-91229670D01*
X190164271Y-90743489D01*
X190278345Y-90170000D01*
X190164271Y-89596511D01*
X189839415Y-89110330D01*
X189825087Y-89100757D01*
X189846317Y-89096762D01*
X190062441Y-88957690D01*
X190207431Y-88745490D01*
X190258440Y-88493600D01*
X190258440Y-86766400D01*
X190214162Y-86531083D01*
X190075090Y-86314959D01*
X189862890Y-86169969D01*
X189611000Y-86118960D01*
X187579000Y-86118960D01*
X187343683Y-86163238D01*
X187127559Y-86302310D01*
X186982569Y-86514510D01*
X186931560Y-86766400D01*
X186931560Y-88493600D01*
X186975838Y-88728917D01*
X187114910Y-88945041D01*
X187327110Y-89090031D01*
X187368439Y-89098400D01*
X187350585Y-89110330D01*
X187025729Y-89596511D01*
X186911655Y-90170000D01*
X133273540Y-90170000D01*
X133273540Y-89623900D01*
X133229262Y-89388583D01*
X133090190Y-89172459D01*
X132877990Y-89027469D01*
X132834369Y-89018636D01*
X132851529Y-89007170D01*
X133176385Y-88520989D01*
X133290459Y-87947500D01*
X133176385Y-87374011D01*
X132851529Y-86887830D01*
X132365348Y-86562974D01*
X131791859Y-86448900D01*
X131733141Y-86448900D01*
X131159652Y-86562974D01*
X130673471Y-86887830D01*
X130492500Y-87158672D01*
X130311529Y-86887830D01*
X129825348Y-86562974D01*
X129251859Y-86448900D01*
X129193141Y-86448900D01*
X128619652Y-86562974D01*
X128133471Y-86887830D01*
X127808615Y-87374011D01*
X127694541Y-87947500D01*
X113271040Y-87947500D01*
X113271040Y-86766400D01*
X113226762Y-86531083D01*
X113087690Y-86314959D01*
X112875490Y-86169969D01*
X112831869Y-86161136D01*
X112849029Y-86149670D01*
X113173885Y-85663489D01*
X113287959Y-85090000D01*
X113173885Y-84516511D01*
X112849029Y-84030330D01*
X112534249Y-83820000D01*
X157222041Y-83820000D01*
X157336115Y-84393489D01*
X157660971Y-84879670D01*
X158147152Y-85204526D01*
X158720641Y-85318600D01*
X158779359Y-85318600D01*
X159352848Y-85204526D01*
X159839029Y-84879670D01*
X160020000Y-84608828D01*
X160200971Y-84879670D01*
X160687152Y-85204526D01*
X161260641Y-85318600D01*
X161319359Y-85318600D01*
X161892848Y-85204526D01*
X162379029Y-84879670D01*
X162703885Y-84393489D01*
X162817959Y-83820000D01*
X162703885Y-83246511D01*
X162379029Y-82760330D01*
X162064248Y-82550000D01*
X162379029Y-82339670D01*
X162703885Y-81853489D01*
X162817959Y-81280000D01*
X162703885Y-80706511D01*
X162379029Y-80220330D01*
X161892848Y-79895474D01*
X161319359Y-79781400D01*
X161260641Y-79781400D01*
X160687152Y-79895474D01*
X160221558Y-80206574D01*
X160216762Y-80181083D01*
X160077690Y-79964959D01*
X159865490Y-79819969D01*
X159613600Y-79768960D01*
X157886400Y-79768960D01*
X157651083Y-79813238D01*
X157434959Y-79952310D01*
X157289969Y-80164510D01*
X157238960Y-80416400D01*
X157238960Y-82143600D01*
X157283238Y-82378917D01*
X157422310Y-82595041D01*
X157634510Y-82740031D01*
X157678131Y-82748864D01*
X157660971Y-82760330D01*
X157336115Y-83246511D01*
X157222041Y-83820000D01*
X112534249Y-83820000D01*
X112362848Y-83705474D01*
X111789359Y-83591400D01*
X111730641Y-83591400D01*
X111157152Y-83705474D01*
X110670971Y-84030330D01*
X110490000Y-84301172D01*
X110309029Y-84030330D01*
X109822848Y-83705474D01*
X109249359Y-83591400D01*
X109190641Y-83591400D01*
X108617152Y-83705474D01*
X108249887Y-83950873D01*
X108250162Y-83634833D01*
X108108117Y-83291057D01*
X107845327Y-83027808D01*
X107501799Y-82885162D01*
X107129833Y-82884838D01*
X106786057Y-83026883D01*
X106522808Y-83289673D01*
X106380162Y-83633201D01*
X106380121Y-83680077D01*
X106142599Y-83917599D01*
X105977852Y-84164161D01*
X105920000Y-84455000D01*
X105920000Y-85797537D01*
X105887808Y-85829673D01*
X105745162Y-86173201D01*
X105744838Y-86545167D01*
X81990000Y-86545167D01*
X81990000Y-82100167D01*
X131779838Y-82100167D01*
X131921883Y-82443943D01*
X132184673Y-82707192D01*
X132528201Y-82849838D01*
X132900167Y-82850162D01*
X133243943Y-82708117D01*
X133507192Y-82445327D01*
X133649838Y-82101799D01*
X133650162Y-81729833D01*
X133559467Y-81510335D01*
X134124680Y-80945122D01*
X134170167Y-80945162D01*
X134513943Y-80803117D01*
X134777192Y-80540327D01*
X134919838Y-80196799D01*
X134920162Y-79824833D01*
X134778117Y-79481057D01*
X134515327Y-79217808D01*
X134171799Y-79075162D01*
X133799833Y-79074838D01*
X133456057Y-79216883D01*
X133192808Y-79479673D01*
X133050162Y-79823201D01*
X133050121Y-79870077D01*
X132177599Y-80742599D01*
X132012852Y-80989161D01*
X131955000Y-81280000D01*
X131955000Y-81352537D01*
X131922808Y-81384673D01*
X131780162Y-81728201D01*
X131779838Y-82100167D01*
X81990000Y-82100167D01*
X81990000Y-74370000D01*
X192330000Y-74370000D01*
X192330000Y-144070000D01*
X192330000Y-144070000D01*
G37*
X192330000Y-144070000D02*
X81990000Y-144070000D01*
X81990000Y-134158295D01*
X82067975Y-134274993D01*
X82455661Y-134534036D01*
X82912968Y-134625000D01*
X83857032Y-134625000D01*
X84314339Y-134534036D01*
X84702025Y-134274993D01*
X84895791Y-133985000D01*
X118966655Y-133985000D01*
X119080729Y-134558489D01*
X119405585Y-135044670D01*
X119720366Y-135255000D01*
X119405585Y-135465330D01*
X119080729Y-135951511D01*
X118966655Y-136525000D01*
X119080729Y-137098489D01*
X119405585Y-137584670D01*
X119891766Y-137909526D01*
X120465255Y-138023600D01*
X120834745Y-138023600D01*
X121408234Y-137909526D01*
X121894415Y-137584670D01*
X122219271Y-137098489D01*
X122333345Y-136525000D01*
X122219271Y-135951511D01*
X121894415Y-135465330D01*
X121579634Y-135255000D01*
X121894415Y-135044670D01*
X122219271Y-134558489D01*
X122333345Y-133985000D01*
X144366655Y-133985000D01*
X144480729Y-134558489D01*
X144805585Y-135044670D01*
X145120366Y-135255000D01*
X144805585Y-135465330D01*
X144480729Y-135951511D01*
X144366655Y-136525000D01*
X144480729Y-137098489D01*
X144805585Y-137584670D01*
X145291766Y-137909526D01*
X145865255Y-138023600D01*
X146234745Y-138023600D01*
X146808234Y-137909526D01*
X147294415Y-137584670D01*
X147619271Y-137098489D01*
X147733345Y-136525000D01*
X147619271Y-135951511D01*
X147294415Y-135465330D01*
X146979634Y-135255000D01*
X147294415Y-135044670D01*
X147619271Y-134558489D01*
X147733345Y-133985000D01*
X168496655Y-133985000D01*
X168610729Y-134558489D01*
X168935585Y-135044670D01*
X169250366Y-135255000D01*
X168935585Y-135465330D01*
X168610729Y-135951511D01*
X168496655Y-136525000D01*
X168610729Y-137098489D01*
X168935585Y-137584670D01*
X169421766Y-137909526D01*
X169995255Y-138023600D01*
X170364745Y-138023600D01*
X170938234Y-137909526D01*
X171424415Y-137584670D01*
X171749271Y-137098489D01*
X171863345Y-136525000D01*
X171749271Y-135951511D01*
X171424415Y-135465330D01*
X171109634Y-135255000D01*
X171424415Y-135044670D01*
X171749271Y-134558489D01*
X171863345Y-133985000D01*
X171749271Y-133411511D01*
X171424415Y-132925330D01*
X171410087Y-132915757D01*
X171431317Y-132911762D01*
X171647441Y-132772690D01*
X171792431Y-132560490D01*
X171843440Y-132308600D01*
X171843440Y-130581400D01*
X171799162Y-130346083D01*
X171660090Y-130129959D01*
X171447890Y-129984969D01*
X171196000Y-129933960D01*
X169164000Y-129933960D01*
X168928683Y-129978238D01*
X168712559Y-130117310D01*
X168567569Y-130329510D01*
X168516560Y-130581400D01*
X168516560Y-132308600D01*
X168560838Y-132543917D01*
X168699910Y-132760041D01*
X168912110Y-132905031D01*
X168953439Y-132913400D01*
X168935585Y-132925330D01*
X168610729Y-133411511D01*
X168496655Y-133985000D01*
X147733345Y-133985000D01*
X147619271Y-133411511D01*
X147294415Y-132925330D01*
X147280087Y-132915757D01*
X147301317Y-132911762D01*
X147517441Y-132772690D01*
X147662431Y-132560490D01*
X147713440Y-132308600D01*
X147713440Y-130581400D01*
X147669162Y-130346083D01*
X147530090Y-130129959D01*
X147317890Y-129984969D01*
X147066000Y-129933960D01*
X145034000Y-129933960D01*
X144798683Y-129978238D01*
X144582559Y-130117310D01*
X144437569Y-130329510D01*
X144386560Y-130581400D01*
X144386560Y-132308600D01*
X144430838Y-132543917D01*
X144569910Y-132760041D01*
X144782110Y-132905031D01*
X144823439Y-132913400D01*
X144805585Y-132925330D01*
X144480729Y-133411511D01*
X144366655Y-133985000D01*
X122333345Y-133985000D01*
X122219271Y-133411511D01*
X121894415Y-132925330D01*
X121880087Y-132915757D01*
X121901317Y-132911762D01*
X122117441Y-132772690D01*
X122262431Y-132560490D01*
X122313440Y-132308600D01*
X122313440Y-130581400D01*
X122269162Y-130346083D01*
X122130090Y-130129959D01*
X121917890Y-129984969D01*
X121666000Y-129933960D01*
X119634000Y-129933960D01*
X119398683Y-129978238D01*
X119182559Y-130117310D01*
X119037569Y-130329510D01*
X118986560Y-130581400D01*
X118986560Y-132308600D01*
X119030838Y-132543917D01*
X119169910Y-132760041D01*
X119382110Y-132905031D01*
X119423439Y-132913400D01*
X119405585Y-132925330D01*
X119080729Y-133411511D01*
X118966655Y-133985000D01*
X84895791Y-133985000D01*
X84961068Y-133887307D01*
X85052032Y-133430000D01*
X84961068Y-132972693D01*
X84702025Y-132585007D01*
X84314339Y-132325964D01*
X83857032Y-132235000D01*
X82912968Y-132235000D01*
X82455661Y-132325964D01*
X82067975Y-132585007D01*
X81990000Y-132701705D01*
X81990000Y-127648295D01*
X82067975Y-127764993D01*
X82455661Y-128024036D01*
X82912968Y-128115000D01*
X83857032Y-128115000D01*
X84314339Y-128024036D01*
X84702025Y-127764993D01*
X84961068Y-127377307D01*
X85052032Y-126920000D01*
X84961068Y-126462693D01*
X84702025Y-126075007D01*
X84314339Y-125815964D01*
X83857032Y-125725000D01*
X82912968Y-125725000D01*
X82455661Y-125815964D01*
X82067975Y-126075007D01*
X81990000Y-126191705D01*
X81990000Y-114935000D01*
X176907041Y-114935000D01*
X177021115Y-115508489D01*
X177345971Y-115994670D01*
X177832152Y-116319526D01*
X178405641Y-116433600D01*
X178464359Y-116433600D01*
X179037848Y-116319526D01*
X179524029Y-115994670D01*
X179705000Y-115723828D01*
X179885971Y-115994670D01*
X180372152Y-116319526D01*
X180945641Y-116433600D01*
X181004359Y-116433600D01*
X181577848Y-116319526D01*
X182064029Y-115994670D01*
X182388885Y-115508489D01*
X182502959Y-114935000D01*
X182388885Y-114361511D01*
X182064029Y-113875330D01*
X181749248Y-113665000D01*
X182064029Y-113454670D01*
X182388885Y-112968489D01*
X182502959Y-112395000D01*
X182388885Y-111821511D01*
X182064029Y-111335330D01*
X181577848Y-111010474D01*
X181004359Y-110896400D01*
X180945641Y-110896400D01*
X180372152Y-111010474D01*
X179906558Y-111321574D01*
X179901762Y-111296083D01*
X179762690Y-111079959D01*
X179550490Y-110934969D01*
X179298600Y-110883960D01*
X177571400Y-110883960D01*
X177336083Y-110928238D01*
X177119959Y-111067310D01*
X176974969Y-111279510D01*
X176923960Y-111531400D01*
X176923960Y-113258600D01*
X176968238Y-113493917D01*
X177107310Y-113710041D01*
X177319510Y-113855031D01*
X177363131Y-113863864D01*
X177345971Y-113875330D01*
X177021115Y-114361511D01*
X176907041Y-114935000D01*
X81990000Y-114935000D01*
X81990000Y-111760000D01*
X121662041Y-111760000D01*
X121776115Y-112333489D01*
X122100971Y-112819670D01*
X122587152Y-113144526D01*
X123160641Y-113258600D01*
X123219359Y-113258600D01*
X123792848Y-113144526D01*
X124279029Y-112819670D01*
X124460000Y-112548828D01*
X124640971Y-112819670D01*
X125127152Y-113144526D01*
X125700641Y-113258600D01*
X125759359Y-113258600D01*
X126332848Y-113144526D01*
X126819029Y-112819670D01*
X127143885Y-112333489D01*
X127257959Y-111760000D01*
X127143885Y-111186511D01*
X126819029Y-110700330D01*
X126504248Y-110490000D01*
X126819029Y-110279670D01*
X127143885Y-109793489D01*
X127257959Y-109220000D01*
X127143885Y-108646511D01*
X126819029Y-108160330D01*
X126332848Y-107835474D01*
X125759359Y-107721400D01*
X125700641Y-107721400D01*
X125127152Y-107835474D01*
X124661558Y-108146574D01*
X124656762Y-108121083D01*
X124517690Y-107904959D01*
X124305490Y-107759969D01*
X124053600Y-107708960D01*
X122326400Y-107708960D01*
X122091083Y-107753238D01*
X121874959Y-107892310D01*
X121729969Y-108104510D01*
X121678960Y-108356400D01*
X121678960Y-110083600D01*
X121723238Y-110318917D01*
X121862310Y-110535041D01*
X122074510Y-110680031D01*
X122118131Y-110688864D01*
X122100971Y-110700330D01*
X121776115Y-111186511D01*
X121662041Y-111760000D01*
X81990000Y-111760000D01*
X81990000Y-107315000D01*
X149602041Y-107315000D01*
X149716115Y-107888489D01*
X150040971Y-108374670D01*
X150355752Y-108585000D01*
X150040971Y-108795330D01*
X149716115Y-109281511D01*
X149602041Y-109855000D01*
X149716115Y-110428489D01*
X150040971Y-110914670D01*
X150527152Y-111239526D01*
X151100641Y-111353600D01*
X151159359Y-111353600D01*
X151732848Y-111239526D01*
X152198442Y-110928426D01*
X152203238Y-110953917D01*
X152342310Y-111170041D01*
X152554510Y-111315031D01*
X152806400Y-111366040D01*
X154533600Y-111366040D01*
X154768917Y-111321762D01*
X154985041Y-111182690D01*
X155130031Y-110970490D01*
X155181040Y-110718600D01*
X155181040Y-108991400D01*
X155136762Y-108756083D01*
X154997690Y-108539959D01*
X154785490Y-108394969D01*
X154741869Y-108386136D01*
X154759029Y-108374670D01*
X155083885Y-107888489D01*
X155197959Y-107315000D01*
X155083885Y-106741511D01*
X154759029Y-106255330D01*
X154272848Y-105930474D01*
X153699359Y-105816400D01*
X153640641Y-105816400D01*
X153067152Y-105930474D01*
X152580971Y-106255330D01*
X152400000Y-106526172D01*
X152219029Y-106255330D01*
X151732848Y-105930474D01*
X151159359Y-105816400D01*
X151100641Y-105816400D01*
X150527152Y-105930474D01*
X150040971Y-106255330D01*
X149716115Y-106741511D01*
X149602041Y-107315000D01*
X81990000Y-107315000D01*
X81990000Y-101917500D01*
X100389541Y-101917500D01*
X100503615Y-102490989D01*
X100828471Y-102977170D01*
X101143252Y-103187500D01*
X100828471Y-103397830D01*
X100503615Y-103884011D01*
X100389541Y-104457500D01*
X100503615Y-105030989D01*
X100828471Y-105517170D01*
X101314652Y-105842026D01*
X101888141Y-105956100D01*
X101946859Y-105956100D01*
X102520348Y-105842026D01*
X102985942Y-105530926D01*
X102990738Y-105556417D01*
X103129810Y-105772541D01*
X103342010Y-105917531D01*
X103593900Y-105968540D01*
X105321100Y-105968540D01*
X105556417Y-105924262D01*
X105772541Y-105785190D01*
X105917531Y-105572990D01*
X105968540Y-105321100D01*
X105968540Y-103593900D01*
X105924262Y-103358583D01*
X105785190Y-103142459D01*
X105572990Y-102997469D01*
X105529369Y-102988636D01*
X105546529Y-102977170D01*
X105871385Y-102490989D01*
X105985459Y-101917500D01*
X105871385Y-101344011D01*
X105546529Y-100857830D01*
X105060348Y-100532974D01*
X104486859Y-100418900D01*
X104428141Y-100418900D01*
X103854652Y-100532974D01*
X103368471Y-100857830D01*
X103187500Y-101128672D01*
X103006529Y-100857830D01*
X102520348Y-100532974D01*
X101946859Y-100418900D01*
X101888141Y-100418900D01*
X101314652Y-100532974D01*
X100828471Y-100857830D01*
X100503615Y-101344011D01*
X100389541Y-101917500D01*
X81990000Y-101917500D01*
X81990000Y-86545167D01*
X105744838Y-86545167D01*
X105886883Y-86888943D01*
X105920000Y-86922118D01*
X105920000Y-88900000D01*
X105977852Y-89190839D01*
X106142599Y-89437401D01*
X106379878Y-89674680D01*
X106379838Y-89720167D01*
X106521883Y-90063943D01*
X106784673Y-90327192D01*
X107128201Y-90469838D01*
X107500167Y-90470162D01*
X107843943Y-90328117D01*
X108107192Y-90065327D01*
X108249838Y-89721799D01*
X108250162Y-89349833D01*
X108108117Y-89006057D01*
X107845327Y-88742808D01*
X107501799Y-88600162D01*
X107454923Y-88600121D01*
X107440000Y-88585198D01*
X107440000Y-86922463D01*
X107472192Y-86890327D01*
X107614838Y-86546799D01*
X107615162Y-86174833D01*
X107473117Y-85831057D01*
X107440000Y-85797882D01*
X107440000Y-84769802D01*
X107454680Y-84755122D01*
X107500167Y-84755162D01*
X107781791Y-84638798D01*
X107692041Y-85090000D01*
X107806115Y-85663489D01*
X108130971Y-86149670D01*
X108445752Y-86360000D01*
X108130971Y-86570330D01*
X107806115Y-87056511D01*
X107692041Y-87630000D01*
X107806115Y-88203489D01*
X108130971Y-88689670D01*
X108617152Y-89014526D01*
X109190641Y-89128600D01*
X109249359Y-89128600D01*
X109822848Y-89014526D01*
X110288442Y-88703426D01*
X110293238Y-88728917D01*
X110432310Y-88945041D01*
X110644510Y-89090031D01*
X110896400Y-89141040D01*
X112623600Y-89141040D01*
X112858917Y-89096762D01*
X113075041Y-88957690D01*
X113220031Y-88745490D01*
X113271040Y-88493600D01*
X113271040Y-87947500D01*
X127694541Y-87947500D01*
X127808615Y-88520989D01*
X128133471Y-89007170D01*
X128448252Y-89217500D01*
X128133471Y-89427830D01*
X127808615Y-89914011D01*
X127694541Y-90487500D01*
X127808615Y-91060989D01*
X128133471Y-91547170D01*
X128619652Y-91872026D01*
X129193141Y-91986100D01*
X129251859Y-91986100D01*
X129825348Y-91872026D01*
X130290942Y-91560926D01*
X130295738Y-91586417D01*
X130434810Y-91802541D01*
X130647010Y-91947531D01*
X130898900Y-91998540D01*
X132626100Y-91998540D01*
X132861417Y-91954262D01*
X133077541Y-91815190D01*
X133222531Y-91602990D01*
X133273540Y-91351100D01*
X133273540Y-90170000D01*
X186911655Y-90170000D01*
X187025729Y-90743489D01*
X187350585Y-91229670D01*
X187665366Y-91440000D01*
X187350585Y-91650330D01*
X187025729Y-92136511D01*
X186911655Y-92710000D01*
X187025729Y-93283489D01*
X187350585Y-93769670D01*
X187836766Y-94094526D01*
X188410255Y-94208600D01*
X188779745Y-94208600D01*
X189353234Y-94094526D01*
X189839415Y-93769670D01*
X190164271Y-93283489D01*
X190278345Y-92710000D01*
X190164271Y-92136511D01*
X189839415Y-91650330D01*
X189524634Y-91440000D01*
X189839415Y-91229670D01*
X190164271Y-90743489D01*
X190278345Y-90170000D01*
X190164271Y-89596511D01*
X189839415Y-89110330D01*
X189825087Y-89100757D01*
X189846317Y-89096762D01*
X190062441Y-88957690D01*
X190207431Y-88745490D01*
X190258440Y-88493600D01*
X190258440Y-86766400D01*
X190214162Y-86531083D01*
X190075090Y-86314959D01*
X189862890Y-86169969D01*
X189611000Y-86118960D01*
X187579000Y-86118960D01*
X187343683Y-86163238D01*
X187127559Y-86302310D01*
X186982569Y-86514510D01*
X186931560Y-86766400D01*
X186931560Y-88493600D01*
X186975838Y-88728917D01*
X187114910Y-88945041D01*
X187327110Y-89090031D01*
X187368439Y-89098400D01*
X187350585Y-89110330D01*
X187025729Y-89596511D01*
X186911655Y-90170000D01*
X133273540Y-90170000D01*
X133273540Y-89623900D01*
X133229262Y-89388583D01*
X133090190Y-89172459D01*
X132877990Y-89027469D01*
X132834369Y-89018636D01*
X132851529Y-89007170D01*
X133176385Y-88520989D01*
X133290459Y-87947500D01*
X133176385Y-87374011D01*
X132851529Y-86887830D01*
X132365348Y-86562974D01*
X131791859Y-86448900D01*
X131733141Y-86448900D01*
X131159652Y-86562974D01*
X130673471Y-86887830D01*
X130492500Y-87158672D01*
X130311529Y-86887830D01*
X129825348Y-86562974D01*
X129251859Y-86448900D01*
X129193141Y-86448900D01*
X128619652Y-86562974D01*
X128133471Y-86887830D01*
X127808615Y-87374011D01*
X127694541Y-87947500D01*
X113271040Y-87947500D01*
X113271040Y-86766400D01*
X113226762Y-86531083D01*
X113087690Y-86314959D01*
X112875490Y-86169969D01*
X112831869Y-86161136D01*
X112849029Y-86149670D01*
X113173885Y-85663489D01*
X113287959Y-85090000D01*
X113173885Y-84516511D01*
X112849029Y-84030330D01*
X112534249Y-83820000D01*
X157222041Y-83820000D01*
X157336115Y-84393489D01*
X157660971Y-84879670D01*
X158147152Y-85204526D01*
X158720641Y-85318600D01*
X158779359Y-85318600D01*
X159352848Y-85204526D01*
X159839029Y-84879670D01*
X160020000Y-84608828D01*
X160200971Y-84879670D01*
X160687152Y-85204526D01*
X161260641Y-85318600D01*
X161319359Y-85318600D01*
X161892848Y-85204526D01*
X162379029Y-84879670D01*
X162703885Y-84393489D01*
X162817959Y-83820000D01*
X162703885Y-83246511D01*
X162379029Y-82760330D01*
X162064248Y-82550000D01*
X162379029Y-82339670D01*
X162703885Y-81853489D01*
X162817959Y-81280000D01*
X162703885Y-80706511D01*
X162379029Y-80220330D01*
X161892848Y-79895474D01*
X161319359Y-79781400D01*
X161260641Y-79781400D01*
X160687152Y-79895474D01*
X160221558Y-80206574D01*
X160216762Y-80181083D01*
X160077690Y-79964959D01*
X159865490Y-79819969D01*
X159613600Y-79768960D01*
X157886400Y-79768960D01*
X157651083Y-79813238D01*
X157434959Y-79952310D01*
X157289969Y-80164510D01*
X157238960Y-80416400D01*
X157238960Y-82143600D01*
X157283238Y-82378917D01*
X157422310Y-82595041D01*
X157634510Y-82740031D01*
X157678131Y-82748864D01*
X157660971Y-82760330D01*
X157336115Y-83246511D01*
X157222041Y-83820000D01*
X112534249Y-83820000D01*
X112362848Y-83705474D01*
X111789359Y-83591400D01*
X111730641Y-83591400D01*
X111157152Y-83705474D01*
X110670971Y-84030330D01*
X110490000Y-84301172D01*
X110309029Y-84030330D01*
X109822848Y-83705474D01*
X109249359Y-83591400D01*
X109190641Y-83591400D01*
X108617152Y-83705474D01*
X108249887Y-83950873D01*
X108250162Y-83634833D01*
X108108117Y-83291057D01*
X107845327Y-83027808D01*
X107501799Y-82885162D01*
X107129833Y-82884838D01*
X106786057Y-83026883D01*
X106522808Y-83289673D01*
X106380162Y-83633201D01*
X106380121Y-83680077D01*
X106142599Y-83917599D01*
X105977852Y-84164161D01*
X105920000Y-84455000D01*
X105920000Y-85797537D01*
X105887808Y-85829673D01*
X105745162Y-86173201D01*
X105744838Y-86545167D01*
X81990000Y-86545167D01*
X81990000Y-82100167D01*
X131779838Y-82100167D01*
X131921883Y-82443943D01*
X132184673Y-82707192D01*
X132528201Y-82849838D01*
X132900167Y-82850162D01*
X133243943Y-82708117D01*
X133507192Y-82445327D01*
X133649838Y-82101799D01*
X133650162Y-81729833D01*
X133559467Y-81510335D01*
X134124680Y-80945122D01*
X134170167Y-80945162D01*
X134513943Y-80803117D01*
X134777192Y-80540327D01*
X134919838Y-80196799D01*
X134920162Y-79824833D01*
X134778117Y-79481057D01*
X134515327Y-79217808D01*
X134171799Y-79075162D01*
X133799833Y-79074838D01*
X133456057Y-79216883D01*
X133192808Y-79479673D01*
X133050162Y-79823201D01*
X133050121Y-79870077D01*
X132177599Y-80742599D01*
X132012852Y-80989161D01*
X131955000Y-81280000D01*
X131955000Y-81352537D01*
X131922808Y-81384673D01*
X131780162Y-81728201D01*
X131779838Y-82100167D01*
X81990000Y-82100167D01*
X81990000Y-74370000D01*
X192330000Y-74370000D01*
X192330000Y-144070000D01*
M02*
