G04 #@! TF.FileFunction,Soldermask,Top*
%FSLAX46Y46*%
G04 Gerber Fmt 4.6, Leading zero omitted, Abs format (unit mm)*
G04 Created by KiCad (PCBNEW 4.0.4-stable) date Friday, December 09, 2016 'PMt' 11:26:17 PM*
%MOMM*%
%LPD*%
G01*
G04 APERTURE LIST*
%ADD10C,0.100000*%
%ADD11R,2.400000X2.400000*%
%ADD12R,2.400000X2.000000*%
%ADD13R,2.000000X2.400000*%
%ADD14R,1.460000X1.050000*%
%ADD15R,1.050000X1.460000*%
%ADD16R,0.900000X1.300000*%
%ADD17R,1.300000X0.900000*%
%ADD18R,1.200100X1.200100*%
%ADD19R,2.432000X2.127200*%
%ADD20O,2.432000X2.127200*%
%ADD21R,1.750000X0.800000*%
%ADD22R,1.800000X2.000000*%
%ADD23R,2.300000X2.300000*%
%ADD24O,2.400000X1.520000*%
%ADD25R,1.197560X1.197560*%
%ADD26R,1.200000X1.150000*%
%ADD27R,1.150000X1.200000*%
%ADD28R,2.127200X2.127200*%
%ADD29O,2.127200X2.127200*%
G04 APERTURE END LIST*
D10*
D11*
X149400000Y-133985000D03*
D12*
X155400000Y-135160000D03*
X155400000Y-132810000D03*
D11*
X173530000Y-133985000D03*
D12*
X179530000Y-135160000D03*
X179530000Y-132810000D03*
D11*
X142875000Y-110665000D03*
D13*
X141700000Y-116665000D03*
X144050000Y-116665000D03*
D11*
X103505000Y-83995000D03*
D13*
X102330000Y-89995000D03*
X104680000Y-89995000D03*
D11*
X137160000Y-82725000D03*
D13*
X135985000Y-88725000D03*
X138335000Y-88725000D03*
D11*
X116205000Y-106855000D03*
D13*
X115030000Y-112855000D03*
X117380000Y-112855000D03*
D11*
X185245000Y-83820000D03*
D12*
X179245000Y-82645000D03*
X179245000Y-84995000D03*
D11*
X94155000Y-120650000D03*
D12*
X100155000Y-121825000D03*
X100155000Y-119475000D03*
D11*
X153035000Y-82090000D03*
D13*
X151860000Y-88090000D03*
X154210000Y-88090000D03*
D11*
X162560000Y-93170000D03*
D13*
X163735000Y-87170000D03*
X161385000Y-87170000D03*
D14*
X147490000Y-113350000D03*
X147490000Y-114300000D03*
X147490000Y-115250000D03*
X149690000Y-115250000D03*
X149690000Y-113350000D03*
X96690000Y-87315000D03*
X96690000Y-88265000D03*
X96690000Y-89215000D03*
X98890000Y-89215000D03*
X98890000Y-87315000D03*
X130345000Y-82870000D03*
X130345000Y-83820000D03*
X130345000Y-84770000D03*
X132545000Y-84770000D03*
X132545000Y-82870000D03*
D15*
X182560000Y-90340000D03*
X181610000Y-90340000D03*
X180660000Y-90340000D03*
X180660000Y-92540000D03*
X182560000Y-92540000D03*
D14*
X169080000Y-110175000D03*
X169080000Y-111125000D03*
X169080000Y-112075000D03*
X171280000Y-112075000D03*
X171280000Y-110175000D03*
X155745000Y-90490000D03*
X155745000Y-91440000D03*
X155745000Y-92390000D03*
X157945000Y-92390000D03*
X157945000Y-90490000D03*
D16*
X125210000Y-136525000D03*
X123710000Y-136525000D03*
D17*
X151765000Y-113550000D03*
X151765000Y-115050000D03*
D16*
X125210000Y-133985000D03*
X123710000Y-133985000D03*
X147840000Y-117475000D03*
X149340000Y-117475000D03*
X125210000Y-131445000D03*
X123710000Y-131445000D03*
D17*
X94615000Y-88785000D03*
X94615000Y-90285000D03*
X122555000Y-121400000D03*
X122555000Y-119900000D03*
X128270000Y-83070000D03*
X128270000Y-84570000D03*
X118745000Y-121400000D03*
X118745000Y-119900000D03*
D16*
X184265000Y-88265000D03*
X182765000Y-88265000D03*
X98310000Y-115570000D03*
X99810000Y-115570000D03*
D17*
X99695000Y-107835000D03*
X99695000Y-109335000D03*
D16*
X182360000Y-94615000D03*
X180860000Y-94615000D03*
X180455000Y-88265000D03*
X178955000Y-88265000D03*
D17*
X94615000Y-112915000D03*
X94615000Y-114415000D03*
X94615000Y-108470000D03*
X94615000Y-109970000D03*
X178435000Y-91960000D03*
X178435000Y-93460000D03*
D16*
X153785000Y-90805000D03*
X152285000Y-90805000D03*
X170065000Y-114935000D03*
X171565000Y-114935000D03*
X173875000Y-112395000D03*
X175375000Y-112395000D03*
X173875000Y-114935000D03*
X175375000Y-114935000D03*
D17*
X167005000Y-113145000D03*
X167005000Y-111645000D03*
D18*
X124140000Y-115839240D03*
X122240000Y-115839240D03*
X123190000Y-117838220D03*
X119060000Y-115839240D03*
X117160000Y-115839240D03*
X118110000Y-117838220D03*
X100010000Y-111394240D03*
X98110000Y-111394240D03*
X99060000Y-113393220D03*
D19*
X146050000Y-131445000D03*
D20*
X146050000Y-133985000D03*
X146050000Y-136525000D03*
D19*
X170180000Y-131445000D03*
D20*
X170180000Y-133985000D03*
X170180000Y-136525000D03*
D19*
X120650000Y-131445000D03*
D20*
X120650000Y-133985000D03*
X120650000Y-136525000D03*
D19*
X188595000Y-87630000D03*
D20*
X188595000Y-90170000D03*
X188595000Y-92710000D03*
D21*
X85860000Y-131475000D03*
X85860000Y-130825000D03*
X85860000Y-128875000D03*
X85860000Y-129525000D03*
D22*
X85635000Y-126975000D03*
D23*
X83185000Y-128975000D03*
D24*
X83385000Y-126920000D03*
X83385000Y-133430000D03*
D23*
X83185000Y-131375000D03*
D22*
X85635000Y-133375000D03*
D21*
X85860000Y-130175000D03*
D25*
X126885700Y-136525000D03*
X128384300Y-136525000D03*
X126885700Y-133985000D03*
X128384300Y-133985000D03*
X126885700Y-131445000D03*
X128384300Y-131445000D03*
D26*
X97675000Y-91440000D03*
X99175000Y-91440000D03*
X131560000Y-80645000D03*
X130060000Y-80645000D03*
D27*
X177165000Y-86475000D03*
X177165000Y-84975000D03*
D26*
X92190000Y-111125000D03*
X90690000Y-111125000D03*
D27*
X90170000Y-130925000D03*
X90170000Y-129425000D03*
X88265000Y-130925000D03*
X88265000Y-129425000D03*
D28*
X158750000Y-81280000D03*
D29*
X161290000Y-81280000D03*
X158750000Y-83820000D03*
X161290000Y-83820000D03*
D28*
X178435000Y-112395000D03*
D29*
X180975000Y-112395000D03*
X178435000Y-114935000D03*
X180975000Y-114935000D03*
D28*
X123190000Y-109220000D03*
D29*
X125730000Y-109220000D03*
X123190000Y-111760000D03*
X125730000Y-111760000D03*
D28*
X131762500Y-90487500D03*
D29*
X129222500Y-90487500D03*
X131762500Y-87947500D03*
X129222500Y-87947500D03*
D28*
X111760000Y-87630000D03*
D29*
X109220000Y-87630000D03*
X111760000Y-85090000D03*
X109220000Y-85090000D03*
D28*
X153670000Y-109855000D03*
D29*
X151130000Y-109855000D03*
X153670000Y-107315000D03*
X151130000Y-107315000D03*
D28*
X104457500Y-104457500D03*
D29*
X101917500Y-104457500D03*
X104457500Y-101917500D03*
X101917500Y-101917500D03*
M02*
