M48
;DRILL file {KiCad 4.0.4-stable} date Saturday, December 10, 2016 'PMt' 12:37:17 PM
;FORMAT={-:-/ absolute / inch / decimal}
FMAT,2
INCH,TZ
T1C0.016
T2C0.028
T3C0.040
%
G90
G05
M72
T1
X3.4Y-4.57
X3.475Y-5.225
X3.55Y-5.225
X3.57Y-5.369
X3.625Y-3.95
X3.64Y-4.52
X3.65Y-4.075
X3.7Y-4.45
X4.025Y-5.325
X4.04Y-4.6
X4.05Y-5.225
X4.05Y-5.45
X4.15Y-4.7
X4.5Y-4.0295
X4.8025Y-5.6087
X4.825Y-4.675
X5.15Y-4.65
X5.625Y-3.925
X5.7806Y-4.2132
X5.8Y-3.85
T3
X3.3Y-5.4
X3.3Y-5.5
X3.4Y-5.4
X3.4Y-5.5
X3.5125Y-4.7625
X3.5125Y-4.8625
X3.6125Y-4.7625
X3.6125Y-4.8625
X3.8375Y-3.4375
X3.8375Y-3.5375
X3.9375Y-3.4375
X3.9375Y-3.5375
X4.125Y-5.275
X4.125Y-5.375
X4.225Y-5.275
X4.225Y-5.375
X4.525Y-4.6
X4.525Y-4.7
X4.525Y-4.8
X4.6Y-3.55
X4.6Y-3.65
X4.6525Y-5.2337
X4.7Y-3.55
X4.7Y-3.65
X4.7525Y-5.2337
X4.8525Y-5.2337
X5.0628Y-5.1807
X5.075Y-4.425
X5.075Y-4.525
X5.1628Y-5.1807
X5.175Y-4.425
X5.175Y-4.525
X5.2628Y-5.1807
X5.5431Y-5.1876
X5.575Y-3.525
X5.575Y-3.625
X5.6056Y-4.6382
X5.6056Y-4.7382
X5.6431Y-5.1876
X5.675Y-3.525
X5.675Y-3.625
X5.7056Y-4.6382
X5.7056Y-4.7382
X5.7431Y-5.1876
T2
X3.2982Y-4.9969G85X3.2675Y-4.9969
G05
X3.2982Y-5.2531G85X3.2675Y-5.2531
G05
T0
M30
