G04 #@! TF.FileFunction,Soldermask,Bot*
%FSLAX46Y46*%
G04 Gerber Fmt 4.6, Leading zero omitted, Abs format (unit mm)*
G04 Created by KiCad (PCBNEW 4.0.4-stable) date Friday, December 09, 2016 'PMt' 11:26:17 PM*
%MOMM*%
%LPD*%
G01*
G04 APERTURE LIST*
%ADD10C,0.100000*%
%ADD11R,2.432000X2.127200*%
%ADD12O,2.432000X2.127200*%
%ADD13O,2.400000X1.520000*%
%ADD14R,2.127200X2.127200*%
%ADD15O,2.127200X2.127200*%
G04 APERTURE END LIST*
D10*
D11*
X146050000Y-131445000D03*
D12*
X146050000Y-133985000D03*
X146050000Y-136525000D03*
D11*
X170180000Y-131445000D03*
D12*
X170180000Y-133985000D03*
X170180000Y-136525000D03*
D11*
X120650000Y-131445000D03*
D12*
X120650000Y-133985000D03*
X120650000Y-136525000D03*
D11*
X188595000Y-87630000D03*
D12*
X188595000Y-90170000D03*
X188595000Y-92710000D03*
D13*
X83385000Y-126920000D03*
X83385000Y-133430000D03*
D14*
X158750000Y-81280000D03*
D15*
X161290000Y-81280000D03*
X158750000Y-83820000D03*
X161290000Y-83820000D03*
D14*
X178435000Y-112395000D03*
D15*
X180975000Y-112395000D03*
X178435000Y-114935000D03*
X180975000Y-114935000D03*
D14*
X123190000Y-109220000D03*
D15*
X125730000Y-109220000D03*
X123190000Y-111760000D03*
X125730000Y-111760000D03*
D14*
X131762500Y-90487500D03*
D15*
X129222500Y-90487500D03*
X131762500Y-87947500D03*
X129222500Y-87947500D03*
D14*
X111760000Y-87630000D03*
D15*
X109220000Y-87630000D03*
X111760000Y-85090000D03*
X109220000Y-85090000D03*
D14*
X153670000Y-109855000D03*
D15*
X151130000Y-109855000D03*
X153670000Y-107315000D03*
X151130000Y-107315000D03*
D14*
X104457500Y-104457500D03*
D15*
X101917500Y-104457500D03*
X104457500Y-101917500D03*
X101917500Y-101917500D03*
M02*
