G04 #@! TF.FileFunction,Copper,L1,Top,Signal*
%FSLAX46Y46*%
G04 Gerber Fmt 4.6, Leading zero omitted, Abs format (unit mm)*
G04 Created by KiCad (PCBNEW 4.0.4-stable) date Friday, December 09, 2016 'PMt' 11:26:17 PM*
%MOMM*%
%LPD*%
G01*
G04 APERTURE LIST*
%ADD10C,0.100000*%
%ADD11R,2.000000X2.000000*%
%ADD12R,2.000000X1.600000*%
%ADD13R,1.600000X2.000000*%
%ADD14R,1.060000X0.650000*%
%ADD15R,0.650000X1.060000*%
%ADD16R,0.500000X0.900000*%
%ADD17R,0.900000X0.500000*%
%ADD18R,0.800100X0.800100*%
%ADD19R,2.032000X1.727200*%
%ADD20O,2.032000X1.727200*%
%ADD21R,1.350000X0.400000*%
%ADD22R,1.400000X1.600000*%
%ADD23R,1.900000X1.900000*%
%ADD24O,2.000000X1.120000*%
%ADD25R,0.797560X0.797560*%
%ADD26R,0.800000X0.750000*%
%ADD27R,0.750000X0.800000*%
%ADD28R,1.727200X1.727200*%
%ADD29O,1.727200X1.727200*%
%ADD30C,0.600000*%
%ADD31C,0.250000*%
%ADD32C,0.254000*%
G04 APERTURE END LIST*
D10*
D11*
X149400000Y-133985000D03*
D12*
X155400000Y-135160000D03*
X155400000Y-132810000D03*
D11*
X173530000Y-133985000D03*
D12*
X179530000Y-135160000D03*
X179530000Y-132810000D03*
D11*
X142875000Y-110665000D03*
D13*
X141700000Y-116665000D03*
X144050000Y-116665000D03*
D11*
X103505000Y-83995000D03*
D13*
X102330000Y-89995000D03*
X104680000Y-89995000D03*
D11*
X137160000Y-82725000D03*
D13*
X135985000Y-88725000D03*
X138335000Y-88725000D03*
D11*
X116205000Y-106855000D03*
D13*
X115030000Y-112855000D03*
X117380000Y-112855000D03*
D11*
X185245000Y-83820000D03*
D12*
X179245000Y-82645000D03*
X179245000Y-84995000D03*
D11*
X94155000Y-120650000D03*
D12*
X100155000Y-121825000D03*
X100155000Y-119475000D03*
D11*
X153035000Y-82090000D03*
D13*
X151860000Y-88090000D03*
X154210000Y-88090000D03*
D11*
X162560000Y-93170000D03*
D13*
X163735000Y-87170000D03*
X161385000Y-87170000D03*
D14*
X147490000Y-113350000D03*
X147490000Y-114300000D03*
X147490000Y-115250000D03*
X149690000Y-115250000D03*
X149690000Y-113350000D03*
X96690000Y-87315000D03*
X96690000Y-88265000D03*
X96690000Y-89215000D03*
X98890000Y-89215000D03*
X98890000Y-87315000D03*
X130345000Y-82870000D03*
X130345000Y-83820000D03*
X130345000Y-84770000D03*
X132545000Y-84770000D03*
X132545000Y-82870000D03*
D15*
X182560000Y-90340000D03*
X181610000Y-90340000D03*
X180660000Y-90340000D03*
X180660000Y-92540000D03*
X182560000Y-92540000D03*
D14*
X169080000Y-110175000D03*
X169080000Y-111125000D03*
X169080000Y-112075000D03*
X171280000Y-112075000D03*
X171280000Y-110175000D03*
X155745000Y-90490000D03*
X155745000Y-91440000D03*
X155745000Y-92390000D03*
X157945000Y-92390000D03*
X157945000Y-90490000D03*
D16*
X125210000Y-136525000D03*
X123710000Y-136525000D03*
D17*
X151765000Y-113550000D03*
X151765000Y-115050000D03*
D16*
X125210000Y-133985000D03*
X123710000Y-133985000D03*
X147840000Y-117475000D03*
X149340000Y-117475000D03*
X125210000Y-131445000D03*
X123710000Y-131445000D03*
D17*
X94615000Y-88785000D03*
X94615000Y-90285000D03*
X122555000Y-121400000D03*
X122555000Y-119900000D03*
X128270000Y-83070000D03*
X128270000Y-84570000D03*
X118745000Y-121400000D03*
X118745000Y-119900000D03*
D16*
X184265000Y-88265000D03*
X182765000Y-88265000D03*
X98310000Y-115570000D03*
X99810000Y-115570000D03*
D17*
X99695000Y-107835000D03*
X99695000Y-109335000D03*
D16*
X182360000Y-94615000D03*
X180860000Y-94615000D03*
X180455000Y-88265000D03*
X178955000Y-88265000D03*
D17*
X94615000Y-112915000D03*
X94615000Y-114415000D03*
X94615000Y-108470000D03*
X94615000Y-109970000D03*
X178435000Y-91960000D03*
X178435000Y-93460000D03*
D16*
X153785000Y-90805000D03*
X152285000Y-90805000D03*
X170065000Y-114935000D03*
X171565000Y-114935000D03*
X173875000Y-112395000D03*
X175375000Y-112395000D03*
X173875000Y-114935000D03*
X175375000Y-114935000D03*
D17*
X167005000Y-113145000D03*
X167005000Y-111645000D03*
D18*
X124140000Y-115839240D03*
X122240000Y-115839240D03*
X123190000Y-117838220D03*
X119060000Y-115839240D03*
X117160000Y-115839240D03*
X118110000Y-117838220D03*
X100010000Y-111394240D03*
X98110000Y-111394240D03*
X99060000Y-113393220D03*
D19*
X146050000Y-131445000D03*
D20*
X146050000Y-133985000D03*
X146050000Y-136525000D03*
D19*
X170180000Y-131445000D03*
D20*
X170180000Y-133985000D03*
X170180000Y-136525000D03*
D19*
X120650000Y-131445000D03*
D20*
X120650000Y-133985000D03*
X120650000Y-136525000D03*
D19*
X188595000Y-87630000D03*
D20*
X188595000Y-90170000D03*
X188595000Y-92710000D03*
D21*
X85860000Y-131475000D03*
X85860000Y-130825000D03*
X85860000Y-128875000D03*
X85860000Y-129525000D03*
D22*
X85635000Y-126975000D03*
D23*
X83185000Y-128975000D03*
D24*
X83385000Y-126920000D03*
X83385000Y-133430000D03*
D23*
X83185000Y-131375000D03*
D22*
X85635000Y-133375000D03*
D21*
X85860000Y-130175000D03*
D25*
X126885700Y-136525000D03*
X128384300Y-136525000D03*
X126885700Y-133985000D03*
X128384300Y-133985000D03*
X126885700Y-131445000D03*
X128384300Y-131445000D03*
D26*
X97675000Y-91440000D03*
X99175000Y-91440000D03*
X131560000Y-80645000D03*
X130060000Y-80645000D03*
D27*
X177165000Y-86475000D03*
X177165000Y-84975000D03*
D26*
X92190000Y-111125000D03*
X90690000Y-111125000D03*
D27*
X90170000Y-130925000D03*
X90170000Y-129425000D03*
X88265000Y-130925000D03*
X88265000Y-129425000D03*
D28*
X158750000Y-81280000D03*
D29*
X161290000Y-81280000D03*
X158750000Y-83820000D03*
X161290000Y-83820000D03*
D28*
X178435000Y-112395000D03*
D29*
X180975000Y-112395000D03*
X178435000Y-114935000D03*
X180975000Y-114935000D03*
D28*
X123190000Y-109220000D03*
D29*
X125730000Y-109220000D03*
X123190000Y-111760000D03*
X125730000Y-111760000D03*
D28*
X131762500Y-90487500D03*
D29*
X129222500Y-90487500D03*
X131762500Y-87947500D03*
X129222500Y-87947500D03*
D28*
X111760000Y-87630000D03*
D29*
X109220000Y-87630000D03*
X111760000Y-85090000D03*
X109220000Y-85090000D03*
D28*
X153670000Y-109855000D03*
D29*
X151130000Y-109855000D03*
X153670000Y-107315000D03*
X151130000Y-107315000D03*
D28*
X104457500Y-104457500D03*
D29*
X101917500Y-104457500D03*
X104457500Y-101917500D03*
X101917500Y-101917500D03*
D30*
X153035000Y-113030000D03*
X144780000Y-113665000D03*
X167640000Y-110490000D03*
X175895000Y-86995000D03*
X179070000Y-90170000D03*
X164465000Y-89535000D03*
X160020000Y-91440000D03*
X120650000Y-121400000D03*
X130175000Y-132715000D03*
X88265000Y-132715000D03*
X90170000Y-132715000D03*
X97155000Y-118110000D03*
X96520000Y-114935000D03*
X95250000Y-87630000D03*
X127000000Y-81915000D03*
X133985000Y-80010000D03*
X132715000Y-81915000D03*
X107315000Y-89535000D03*
X107315000Y-83820000D03*
X106680000Y-86360000D03*
D31*
X152515000Y-113550000D02*
X152735001Y-113329999D01*
X152735001Y-113329999D02*
X153035000Y-113030000D01*
X151765000Y-113550000D02*
X152515000Y-113550000D01*
X145415000Y-114300000D02*
X144780000Y-113665000D01*
X147490000Y-114300000D02*
X145415000Y-114300000D01*
X167340001Y-110789999D02*
X167640000Y-110490000D01*
X167005000Y-111125000D02*
X167340001Y-110789999D01*
X167005000Y-111645000D02*
X167005000Y-111125000D01*
X169080000Y-111125000D02*
X167025000Y-111125000D01*
X167025000Y-111125000D02*
X167005000Y-111145000D01*
X167005000Y-111145000D02*
X167005000Y-111645000D01*
X176020000Y-86995000D02*
X175895000Y-86995000D01*
X177165000Y-86475000D02*
X176540000Y-86475000D01*
X176540000Y-86475000D02*
X176020000Y-86995000D01*
X178435000Y-90805000D02*
X179070000Y-90170000D01*
X178435000Y-91960000D02*
X178435000Y-90805000D01*
X181610000Y-90340000D02*
X181610000Y-91120000D01*
X181270000Y-91460000D02*
X179135000Y-91460000D01*
X181610000Y-91120000D02*
X181270000Y-91460000D01*
X179135000Y-91460000D02*
X178635000Y-91960000D01*
X178635000Y-91960000D02*
X178435000Y-91960000D01*
X163735000Y-88805000D02*
X164465000Y-89535000D01*
X163735000Y-87170000D02*
X163735000Y-88805000D01*
X158435002Y-91440000D02*
X160020000Y-91440000D01*
X155745000Y-91440000D02*
X158435002Y-91440000D01*
X120650000Y-121400000D02*
X122555000Y-121400000D01*
X118745000Y-121400000D02*
X120650000Y-121400000D01*
X128384300Y-133985000D02*
X128384300Y-133336220D01*
X129005520Y-132715000D02*
X130175000Y-132715000D01*
X128384300Y-133336220D02*
X129005520Y-132715000D01*
X128384300Y-131445000D02*
X128384300Y-133985000D01*
X128384300Y-136525000D02*
X128384300Y-133985000D01*
X88265000Y-130925000D02*
X88265000Y-132715000D01*
X90170000Y-130925000D02*
X90170000Y-132715000D01*
X90170000Y-130925000D02*
X88265000Y-130925000D01*
X85860000Y-131475000D02*
X87715000Y-131475000D01*
X87715000Y-131475000D02*
X88265000Y-130925000D01*
X98520000Y-119475000D02*
X97155000Y-118110000D01*
X100155000Y-119475000D02*
X98520000Y-119475000D01*
X94615000Y-114415000D02*
X96000000Y-114415000D01*
X96000000Y-114415000D02*
X96520000Y-114935000D01*
X95135000Y-88265000D02*
X95135000Y-87745000D01*
X95135000Y-87745000D02*
X95250000Y-87630000D01*
X94615000Y-88785000D02*
X95135000Y-88265000D01*
X95135000Y-88265000D02*
X96690000Y-88265000D01*
X128270000Y-83070000D02*
X127520000Y-83070000D01*
X127520000Y-83070000D02*
X127000000Y-82550000D01*
X127000000Y-82550000D02*
X127000000Y-82339264D01*
X127000000Y-82339264D02*
X127000000Y-81915000D01*
X130345000Y-83820000D02*
X128520000Y-83820000D01*
X128520000Y-83820000D02*
X128270000Y-83570000D01*
X128270000Y-83570000D02*
X128270000Y-83070000D01*
X94615000Y-111125000D02*
X94615000Y-112915000D01*
X94615000Y-109970000D02*
X94615000Y-111125000D01*
X97190710Y-111125000D02*
X92190000Y-111125000D01*
X98110000Y-111394240D02*
X97459950Y-111394240D01*
X97459950Y-111394240D02*
X97190710Y-111125000D01*
X104457500Y-104457500D02*
X101917500Y-104457500D01*
X92392500Y-104457500D02*
X90690000Y-106160000D01*
X90690000Y-106160000D02*
X90690000Y-111125000D01*
X101917500Y-104457500D02*
X92392500Y-104457500D01*
X179245000Y-84995000D02*
X177185000Y-84995000D01*
X177185000Y-84995000D02*
X177165000Y-84975000D01*
X178955000Y-88265000D02*
X178955000Y-85285000D01*
X178955000Y-85285000D02*
X179245000Y-84995000D01*
X131560000Y-80645000D02*
X132715000Y-80645000D01*
X132715000Y-80645000D02*
X133985000Y-81915000D01*
X133985000Y-81915000D02*
X133985000Y-84110000D01*
X133985000Y-84110000D02*
X133400001Y-84694999D01*
X137160000Y-82725000D02*
X135910000Y-82725000D01*
X135910000Y-82725000D02*
X133940001Y-84694999D01*
X133940001Y-84694999D02*
X133400001Y-84694999D01*
X133325000Y-84770000D02*
X132545000Y-84770000D01*
X133400001Y-84694999D02*
X133325000Y-84770000D01*
X130345000Y-82870000D02*
X130345000Y-80930000D01*
X130345000Y-80930000D02*
X130060000Y-80645000D01*
X129222500Y-87947500D02*
X131762500Y-87947500D01*
X131445000Y-85725000D02*
X131445000Y-83190000D01*
X131445000Y-83190000D02*
X131125000Y-82870000D01*
X131125000Y-82870000D02*
X130345000Y-82870000D01*
X129222500Y-87947500D02*
X131445000Y-85725000D01*
X103554999Y-88850001D02*
X104775000Y-87630000D01*
X104775000Y-87630000D02*
X109220000Y-87630000D01*
X100965000Y-92075000D02*
X102635002Y-92075000D01*
X102635002Y-92075000D02*
X103554999Y-91155003D01*
X103554999Y-91155003D02*
X103554999Y-88850001D01*
X97675000Y-91440000D02*
X97675000Y-92065000D01*
X97675000Y-92065000D02*
X98320000Y-92710000D01*
X98320000Y-92710000D02*
X100330000Y-92710000D01*
X100330000Y-92710000D02*
X100965000Y-92075000D01*
X111760000Y-87630000D02*
X109220000Y-87630000D01*
X99995000Y-89995000D02*
X99875000Y-89995000D01*
X99875000Y-89995000D02*
X99095000Y-89215000D01*
X99095000Y-89215000D02*
X98890000Y-89215000D01*
X102330000Y-89995000D02*
X99995000Y-89995000D01*
X99995000Y-89995000D02*
X99175000Y-90815000D01*
X99175000Y-90815000D02*
X99175000Y-91440000D01*
X126885700Y-131445000D02*
X125210000Y-131445000D01*
X125210000Y-133985000D02*
X126885700Y-133985000D01*
X125210000Y-136525000D02*
X126885700Y-136525000D01*
X161290000Y-81280000D02*
X158750000Y-81280000D01*
X153035000Y-82090000D02*
X157940000Y-82090000D01*
X157940000Y-82090000D02*
X158750000Y-81280000D01*
X153785000Y-90805000D02*
X154100000Y-90490000D01*
X154100000Y-90490000D02*
X155745000Y-90490000D01*
X161290000Y-83820000D02*
X158750000Y-83820000D01*
X155745000Y-90490000D02*
X155745000Y-86825000D01*
X155745000Y-86825000D02*
X158750000Y-83820000D01*
X178435000Y-112395000D02*
X175375000Y-112395000D01*
X170065000Y-114935000D02*
X170065000Y-110380000D01*
X170065000Y-110380000D02*
X169860000Y-110175000D01*
X169860000Y-110175000D02*
X169080000Y-110175000D01*
X175375000Y-114935000D02*
X178435000Y-114935000D01*
X99695000Y-109335000D02*
X92619998Y-109335000D01*
X91350001Y-111825001D02*
X90029999Y-111825001D01*
X92619998Y-109335000D02*
X91415001Y-110539997D01*
X91415001Y-110539997D02*
X91415001Y-111760001D01*
X91415001Y-111760001D02*
X91350001Y-111825001D01*
X100696186Y-101917500D02*
X101917500Y-101917500D01*
X90029999Y-111825001D02*
X89964999Y-111760001D01*
X89964999Y-111760001D02*
X89964999Y-106248591D01*
X89964999Y-106248591D02*
X94296090Y-101917500D01*
X94296090Y-101917500D02*
X100696186Y-101917500D01*
X100395000Y-109335000D02*
X99695000Y-109335000D01*
X101917500Y-101917500D02*
X104457500Y-101917500D01*
X100010000Y-111394240D02*
X100010000Y-109650000D01*
X100010000Y-109650000D02*
X99695000Y-109335000D01*
X184265000Y-88265000D02*
X184265000Y-84800000D01*
X184265000Y-84800000D02*
X185245000Y-83820000D01*
X182560000Y-90340000D02*
X182560000Y-90135000D01*
X182560000Y-90135000D02*
X184265000Y-88430000D01*
X184265000Y-88430000D02*
X184265000Y-88265000D01*
X188595000Y-90170000D02*
X188595000Y-87630000D01*
X188595000Y-92710000D02*
X188595000Y-90170000D01*
X184265000Y-88265000D02*
X187960000Y-88265000D01*
X187960000Y-88265000D02*
X188595000Y-87630000D01*
X125730000Y-111760000D02*
X123190000Y-111760000D01*
X123190000Y-113665000D02*
X123190000Y-111760000D01*
X124140000Y-114615000D02*
X123190000Y-113665000D01*
X124140000Y-115839240D02*
X124140000Y-114615000D01*
X129222500Y-90487500D02*
X131762500Y-90487500D01*
X135985000Y-88725000D02*
X133525000Y-88725000D01*
X133525000Y-88725000D02*
X131762500Y-90487500D01*
X103505000Y-83995000D02*
X99435000Y-83995000D01*
X99435000Y-83995000D02*
X96690000Y-86740000D01*
X96690000Y-86740000D02*
X96690000Y-87315000D01*
X104775000Y-84455000D02*
X104775000Y-84015000D01*
X104775000Y-84015000D02*
X104755000Y-83995000D01*
X104755000Y-83995000D02*
X103505000Y-83995000D01*
X105410000Y-85090000D02*
X104775000Y-84455000D01*
X109220000Y-85090000D02*
X105410000Y-85090000D01*
X111760000Y-85090000D02*
X109220000Y-85090000D01*
X123710000Y-131445000D02*
X120650000Y-131445000D01*
X120650000Y-133985000D02*
X121916000Y-133985000D01*
X121916000Y-133985000D02*
X123710000Y-133985000D01*
X120650000Y-136525000D02*
X123710000Y-136525000D01*
X149340000Y-117475000D02*
X148840000Y-117475000D01*
X148840000Y-117475000D02*
X148834999Y-117469999D01*
X148834999Y-117469999D02*
X148834999Y-110880001D01*
X148834999Y-110880001D02*
X149860000Y-109855000D01*
X149860000Y-109855000D02*
X151130000Y-109855000D01*
X151130000Y-109855000D02*
X153670000Y-109855000D01*
X153670000Y-107315000D02*
X151130000Y-107315000D01*
X147490000Y-112775000D02*
X147490000Y-110955000D01*
X147490000Y-110955000D02*
X151130000Y-107315000D01*
X142875000Y-110665000D02*
X145380000Y-110665000D01*
X145380000Y-110665000D02*
X147490000Y-112775000D01*
X147490000Y-112775000D02*
X147490000Y-113350000D01*
X99060000Y-113393220D02*
X99060000Y-115320000D01*
X99060000Y-115320000D02*
X99310000Y-115570000D01*
X99310000Y-115570000D02*
X99810000Y-115570000D01*
X117160000Y-115839240D02*
X117160000Y-115189190D01*
X117414190Y-114935000D02*
X118805810Y-114935000D01*
X117160000Y-115189190D02*
X117414190Y-114935000D01*
X118805810Y-114935000D02*
X119060000Y-115189190D01*
X119060000Y-115189190D02*
X119060000Y-115839240D01*
X122240000Y-115839240D02*
X119060000Y-115839240D01*
X116474240Y-115839240D02*
X115030000Y-114395000D01*
X115030000Y-114395000D02*
X115030000Y-112855000D01*
X117160000Y-115839240D02*
X116474240Y-115839240D01*
X118745000Y-119900000D02*
X118745000Y-118473220D01*
X118745000Y-118473220D02*
X118110000Y-117838220D01*
X122555000Y-119900000D02*
X122555000Y-118473220D01*
X122555000Y-118473220D02*
X123190000Y-117838220D01*
X169080000Y-112075000D02*
X168075000Y-112075000D01*
X168075000Y-112075000D02*
X167705000Y-112445000D01*
X167705000Y-112445000D02*
X167705000Y-112645000D01*
X167705000Y-112645000D02*
X167205000Y-113145000D01*
X167205000Y-113145000D02*
X167005000Y-113145000D01*
X171565000Y-114935000D02*
X171565000Y-112360000D01*
X171565000Y-112360000D02*
X171280000Y-112075000D01*
X173875000Y-112395000D02*
X173875000Y-114935000D01*
X173875000Y-114935000D02*
X171565000Y-114935000D01*
X155745000Y-92390000D02*
X153670000Y-92390000D01*
X153670000Y-92390000D02*
X152285000Y-91005000D01*
X152285000Y-91005000D02*
X152285000Y-90805000D01*
X152285000Y-90805000D02*
X152285000Y-88515000D01*
X152285000Y-88515000D02*
X151860000Y-88090000D01*
X178435000Y-93460000D02*
X179945000Y-93460000D01*
X179945000Y-93460000D02*
X180660000Y-92745000D01*
X180660000Y-92745000D02*
X180660000Y-92540000D01*
X180860000Y-94615000D02*
X180860000Y-92740000D01*
X180860000Y-92740000D02*
X180660000Y-92540000D01*
X180660000Y-90340000D02*
X180660000Y-88470000D01*
X180660000Y-88470000D02*
X180455000Y-88265000D01*
X182765000Y-88265000D02*
X180455000Y-88265000D01*
X94155000Y-120650000D02*
X94155000Y-119400000D01*
X97985000Y-115570000D02*
X98310000Y-115570000D01*
X94155000Y-119400000D02*
X97985000Y-115570000D01*
X128270000Y-84570000D02*
X130145000Y-84570000D01*
X130145000Y-84570000D02*
X130345000Y-84770000D01*
X94615000Y-90285000D02*
X96195000Y-90285000D01*
X96195000Y-90285000D02*
X96690000Y-89790000D01*
X96690000Y-89790000D02*
X96690000Y-89215000D01*
X147490000Y-115250000D02*
X145265000Y-115250000D01*
X145265000Y-115250000D02*
X144050000Y-116465000D01*
X144050000Y-116465000D02*
X144050000Y-116665000D01*
X147490000Y-115250000D02*
X147490000Y-117125000D01*
X147490000Y-117125000D02*
X147840000Y-117475000D01*
X149690000Y-115250000D02*
X151565000Y-115250000D01*
X151565000Y-115250000D02*
X151765000Y-115050000D01*
X162560000Y-93170000D02*
X158150000Y-93170000D01*
X158150000Y-93170000D02*
X157945000Y-92965000D01*
X157945000Y-92965000D02*
X157945000Y-92390000D01*
X132715000Y-82125000D02*
X132715000Y-81915000D01*
X132545000Y-82870000D02*
X132545000Y-82295000D01*
X132545000Y-82295000D02*
X132715000Y-82125000D01*
X87575000Y-127635000D02*
X87630000Y-127635000D01*
X85860000Y-128875000D02*
X86335000Y-128875000D01*
X86335000Y-128875000D02*
X87575000Y-127635000D01*
X97270000Y-108470000D02*
X97905000Y-107835000D01*
X97905000Y-107835000D02*
X99695000Y-107835000D01*
X94615000Y-108470000D02*
X97270000Y-108470000D01*
X100050000Y-86360000D02*
X106680000Y-86360000D01*
X98890000Y-87315000D02*
X99095000Y-87315000D01*
X99095000Y-87315000D02*
X100050000Y-86360000D01*
D32*
G36*
X192330000Y-144070000D02*
X81990000Y-144070000D01*
X81990000Y-134158295D01*
X82067975Y-134274993D01*
X82455661Y-134534036D01*
X82912968Y-134625000D01*
X83857032Y-134625000D01*
X84314339Y-134534036D01*
X84382250Y-134488659D01*
X84470910Y-134626441D01*
X84683110Y-134771431D01*
X84935000Y-134822440D01*
X86335000Y-134822440D01*
X86570317Y-134778162D01*
X86786441Y-134639090D01*
X86931431Y-134426890D01*
X86982440Y-134175000D01*
X86982440Y-133985000D01*
X118966655Y-133985000D01*
X119080729Y-134558489D01*
X119405585Y-135044670D01*
X119720366Y-135255000D01*
X119405585Y-135465330D01*
X119080729Y-135951511D01*
X118966655Y-136525000D01*
X119080729Y-137098489D01*
X119405585Y-137584670D01*
X119891766Y-137909526D01*
X120465255Y-138023600D01*
X120834745Y-138023600D01*
X121408234Y-137909526D01*
X121894415Y-137584670D01*
X122094648Y-137285000D01*
X122904895Y-137285000D01*
X122995910Y-137426441D01*
X123208110Y-137571431D01*
X123460000Y-137622440D01*
X123960000Y-137622440D01*
X124195317Y-137578162D01*
X124411441Y-137439090D01*
X124459134Y-137369289D01*
X124495910Y-137426441D01*
X124708110Y-137571431D01*
X124960000Y-137622440D01*
X125460000Y-137622440D01*
X125695317Y-137578162D01*
X125911441Y-137439090D01*
X125989971Y-137324157D01*
X126022830Y-137375221D01*
X126235030Y-137520211D01*
X126486920Y-137571220D01*
X127284480Y-137571220D01*
X127519797Y-137526942D01*
X127634993Y-137452815D01*
X127733630Y-137520211D01*
X127985520Y-137571220D01*
X128783080Y-137571220D01*
X129018397Y-137526942D01*
X129234521Y-137387870D01*
X129379511Y-137175670D01*
X129430520Y-136923780D01*
X129430520Y-136126220D01*
X129386242Y-135890903D01*
X129247170Y-135674779D01*
X129144300Y-135604491D01*
X129144300Y-134905926D01*
X129234521Y-134847870D01*
X129379511Y-134635670D01*
X129430520Y-134383780D01*
X129430520Y-133985000D01*
X144366655Y-133985000D01*
X144480729Y-134558489D01*
X144805585Y-135044670D01*
X145120366Y-135255000D01*
X144805585Y-135465330D01*
X144480729Y-135951511D01*
X144366655Y-136525000D01*
X144480729Y-137098489D01*
X144805585Y-137584670D01*
X145291766Y-137909526D01*
X145865255Y-138023600D01*
X146234745Y-138023600D01*
X146808234Y-137909526D01*
X147294415Y-137584670D01*
X147619271Y-137098489D01*
X147733345Y-136525000D01*
X147619271Y-135951511D01*
X147294415Y-135465330D01*
X146979634Y-135255000D01*
X147294415Y-135044670D01*
X147619271Y-134558489D01*
X147733345Y-133985000D01*
X147619271Y-133411511D01*
X147334286Y-132985000D01*
X147752560Y-132985000D01*
X147752560Y-134985000D01*
X147796838Y-135220317D01*
X147935910Y-135436441D01*
X148148110Y-135581431D01*
X148400000Y-135632440D01*
X150400000Y-135632440D01*
X150635317Y-135588162D01*
X150851441Y-135449090D01*
X150996431Y-135236890D01*
X151047440Y-134985000D01*
X151047440Y-132985000D01*
X151003162Y-132749683D01*
X150864090Y-132533559D01*
X150651890Y-132388569D01*
X150400000Y-132337560D01*
X148400000Y-132337560D01*
X148164683Y-132381838D01*
X147948559Y-132520910D01*
X147803569Y-132733110D01*
X147752560Y-132985000D01*
X147334286Y-132985000D01*
X147294415Y-132925330D01*
X147280087Y-132915757D01*
X147301317Y-132911762D01*
X147517441Y-132772690D01*
X147662431Y-132560490D01*
X147713440Y-132308600D01*
X147713440Y-132010000D01*
X153752560Y-132010000D01*
X153752560Y-133610000D01*
X153796838Y-133845317D01*
X153887190Y-133985727D01*
X153803569Y-134108110D01*
X153752560Y-134360000D01*
X153752560Y-135960000D01*
X153796838Y-136195317D01*
X153935910Y-136411441D01*
X154148110Y-136556431D01*
X154400000Y-136607440D01*
X156400000Y-136607440D01*
X156635317Y-136563162D01*
X156851441Y-136424090D01*
X156996431Y-136211890D01*
X157047440Y-135960000D01*
X157047440Y-134360000D01*
X157003162Y-134124683D01*
X156913278Y-133985000D01*
X168496655Y-133985000D01*
X168610729Y-134558489D01*
X168935585Y-135044670D01*
X169250366Y-135255000D01*
X168935585Y-135465330D01*
X168610729Y-135951511D01*
X168496655Y-136525000D01*
X168610729Y-137098489D01*
X168935585Y-137584670D01*
X169421766Y-137909526D01*
X169995255Y-138023600D01*
X170364745Y-138023600D01*
X170938234Y-137909526D01*
X171424415Y-137584670D01*
X171749271Y-137098489D01*
X171863345Y-136525000D01*
X171749271Y-135951511D01*
X171424415Y-135465330D01*
X171109634Y-135255000D01*
X171424415Y-135044670D01*
X171749271Y-134558489D01*
X171863345Y-133985000D01*
X171749271Y-133411511D01*
X171464286Y-132985000D01*
X171882560Y-132985000D01*
X171882560Y-134985000D01*
X171926838Y-135220317D01*
X172065910Y-135436441D01*
X172278110Y-135581431D01*
X172530000Y-135632440D01*
X174530000Y-135632440D01*
X174765317Y-135588162D01*
X174981441Y-135449090D01*
X175126431Y-135236890D01*
X175177440Y-134985000D01*
X175177440Y-132985000D01*
X175133162Y-132749683D01*
X174994090Y-132533559D01*
X174781890Y-132388569D01*
X174530000Y-132337560D01*
X172530000Y-132337560D01*
X172294683Y-132381838D01*
X172078559Y-132520910D01*
X171933569Y-132733110D01*
X171882560Y-132985000D01*
X171464286Y-132985000D01*
X171424415Y-132925330D01*
X171410087Y-132915757D01*
X171431317Y-132911762D01*
X171647441Y-132772690D01*
X171792431Y-132560490D01*
X171843440Y-132308600D01*
X171843440Y-132010000D01*
X177882560Y-132010000D01*
X177882560Y-133610000D01*
X177926838Y-133845317D01*
X178017190Y-133985727D01*
X177933569Y-134108110D01*
X177882560Y-134360000D01*
X177882560Y-135960000D01*
X177926838Y-136195317D01*
X178065910Y-136411441D01*
X178278110Y-136556431D01*
X178530000Y-136607440D01*
X180530000Y-136607440D01*
X180765317Y-136563162D01*
X180981441Y-136424090D01*
X181126431Y-136211890D01*
X181177440Y-135960000D01*
X181177440Y-134360000D01*
X181133162Y-134124683D01*
X181042810Y-133984273D01*
X181126431Y-133861890D01*
X181177440Y-133610000D01*
X181177440Y-132010000D01*
X181133162Y-131774683D01*
X180994090Y-131558559D01*
X180781890Y-131413569D01*
X180530000Y-131362560D01*
X178530000Y-131362560D01*
X178294683Y-131406838D01*
X178078559Y-131545910D01*
X177933569Y-131758110D01*
X177882560Y-132010000D01*
X171843440Y-132010000D01*
X171843440Y-130581400D01*
X171799162Y-130346083D01*
X171660090Y-130129959D01*
X171447890Y-129984969D01*
X171196000Y-129933960D01*
X169164000Y-129933960D01*
X168928683Y-129978238D01*
X168712559Y-130117310D01*
X168567569Y-130329510D01*
X168516560Y-130581400D01*
X168516560Y-132308600D01*
X168560838Y-132543917D01*
X168699910Y-132760041D01*
X168912110Y-132905031D01*
X168953439Y-132913400D01*
X168935585Y-132925330D01*
X168610729Y-133411511D01*
X168496655Y-133985000D01*
X156913278Y-133985000D01*
X156912810Y-133984273D01*
X156996431Y-133861890D01*
X157047440Y-133610000D01*
X157047440Y-132010000D01*
X157003162Y-131774683D01*
X156864090Y-131558559D01*
X156651890Y-131413569D01*
X156400000Y-131362560D01*
X154400000Y-131362560D01*
X154164683Y-131406838D01*
X153948559Y-131545910D01*
X153803569Y-131758110D01*
X153752560Y-132010000D01*
X147713440Y-132010000D01*
X147713440Y-130581400D01*
X147669162Y-130346083D01*
X147530090Y-130129959D01*
X147317890Y-129984969D01*
X147066000Y-129933960D01*
X145034000Y-129933960D01*
X144798683Y-129978238D01*
X144582559Y-130117310D01*
X144437569Y-130329510D01*
X144386560Y-130581400D01*
X144386560Y-132308600D01*
X144430838Y-132543917D01*
X144569910Y-132760041D01*
X144782110Y-132905031D01*
X144823439Y-132913400D01*
X144805585Y-132925330D01*
X144480729Y-133411511D01*
X144366655Y-133985000D01*
X129430520Y-133985000D01*
X129430520Y-133586220D01*
X129409592Y-133475000D01*
X129612537Y-133475000D01*
X129644673Y-133507192D01*
X129988201Y-133649838D01*
X130360167Y-133650162D01*
X130703943Y-133508117D01*
X130967192Y-133245327D01*
X131109838Y-132901799D01*
X131110162Y-132529833D01*
X130968117Y-132186057D01*
X130705327Y-131922808D01*
X130361799Y-131780162D01*
X129989833Y-131779838D01*
X129646057Y-131921883D01*
X129612882Y-131955000D01*
X129407997Y-131955000D01*
X129430520Y-131843780D01*
X129430520Y-131046220D01*
X129386242Y-130810903D01*
X129247170Y-130594779D01*
X129034970Y-130449789D01*
X128783080Y-130398780D01*
X127985520Y-130398780D01*
X127750203Y-130443058D01*
X127635007Y-130517185D01*
X127536370Y-130449789D01*
X127284480Y-130398780D01*
X126486920Y-130398780D01*
X126251603Y-130443058D01*
X126035479Y-130582130D01*
X125990896Y-130647379D01*
X125924090Y-130543559D01*
X125711890Y-130398569D01*
X125460000Y-130347560D01*
X124960000Y-130347560D01*
X124724683Y-130391838D01*
X124508559Y-130530910D01*
X124460866Y-130600711D01*
X124424090Y-130543559D01*
X124211890Y-130398569D01*
X123960000Y-130347560D01*
X123460000Y-130347560D01*
X123224683Y-130391838D01*
X123008559Y-130530910D01*
X122903274Y-130685000D01*
X122313440Y-130685000D01*
X122313440Y-130581400D01*
X122269162Y-130346083D01*
X122130090Y-130129959D01*
X121917890Y-129984969D01*
X121666000Y-129933960D01*
X119634000Y-129933960D01*
X119398683Y-129978238D01*
X119182559Y-130117310D01*
X119037569Y-130329510D01*
X118986560Y-130581400D01*
X118986560Y-132308600D01*
X119030838Y-132543917D01*
X119169910Y-132760041D01*
X119382110Y-132905031D01*
X119423439Y-132913400D01*
X119405585Y-132925330D01*
X119080729Y-133411511D01*
X118966655Y-133985000D01*
X86982440Y-133985000D01*
X86982440Y-132575000D01*
X86938162Y-132339683D01*
X86870800Y-132235000D01*
X87451910Y-132235000D01*
X87330162Y-132528201D01*
X87329838Y-132900167D01*
X87471883Y-133243943D01*
X87734673Y-133507192D01*
X88078201Y-133649838D01*
X88450167Y-133650162D01*
X88793943Y-133508117D01*
X89057192Y-133245327D01*
X89199838Y-132901799D01*
X89200162Y-132529833D01*
X89058117Y-132186057D01*
X89025000Y-132152882D01*
X89025000Y-131831844D01*
X89091441Y-131789090D01*
X89162563Y-131685000D01*
X89272069Y-131685000D01*
X89330910Y-131776441D01*
X89410000Y-131830481D01*
X89410000Y-132152537D01*
X89377808Y-132184673D01*
X89235162Y-132528201D01*
X89234838Y-132900167D01*
X89376883Y-133243943D01*
X89639673Y-133507192D01*
X89983201Y-133649838D01*
X90355167Y-133650162D01*
X90698943Y-133508117D01*
X90962192Y-133245327D01*
X91104838Y-132901799D01*
X91105162Y-132529833D01*
X90963117Y-132186057D01*
X90930000Y-132152882D01*
X90930000Y-131831844D01*
X90996441Y-131789090D01*
X91141431Y-131576890D01*
X91192440Y-131325000D01*
X91192440Y-130525000D01*
X91148162Y-130289683D01*
X91081671Y-130186354D01*
X91083327Y-130184698D01*
X91180000Y-129951309D01*
X91180000Y-129710750D01*
X91021250Y-129552000D01*
X90297000Y-129552000D01*
X90297000Y-129572000D01*
X90043000Y-129572000D01*
X90043000Y-129552000D01*
X89318750Y-129552000D01*
X89217500Y-129653250D01*
X89116250Y-129552000D01*
X88392000Y-129552000D01*
X88392000Y-129572000D01*
X88138000Y-129572000D01*
X88138000Y-129552000D01*
X87413750Y-129552000D01*
X87255000Y-129710750D01*
X87255000Y-129951309D01*
X87351673Y-130184698D01*
X87353043Y-130186068D01*
X87293569Y-130273110D01*
X87242560Y-130525000D01*
X87242560Y-130715000D01*
X87182440Y-130715000D01*
X87182440Y-130625000D01*
X87158056Y-130495411D01*
X87182440Y-130375000D01*
X87182440Y-129975000D01*
X87158056Y-129845411D01*
X87182440Y-129725000D01*
X87182440Y-129325000D01*
X87162550Y-129219295D01*
X87170000Y-129201309D01*
X87170000Y-129133750D01*
X87140996Y-129104746D01*
X87138162Y-129089683D01*
X87015263Y-128898691D01*
X87255000Y-128898691D01*
X87255000Y-129139250D01*
X87413750Y-129298000D01*
X88138000Y-129298000D01*
X88138000Y-128548750D01*
X88392000Y-128548750D01*
X88392000Y-129298000D01*
X89116250Y-129298000D01*
X89217500Y-129196750D01*
X89318750Y-129298000D01*
X90043000Y-129298000D01*
X90043000Y-128548750D01*
X90297000Y-128548750D01*
X90297000Y-129298000D01*
X91021250Y-129298000D01*
X91180000Y-129139250D01*
X91180000Y-128898691D01*
X91083327Y-128665302D01*
X90904699Y-128486673D01*
X90671310Y-128390000D01*
X90455750Y-128390000D01*
X90297000Y-128548750D01*
X90043000Y-128548750D01*
X89884250Y-128390000D01*
X89668690Y-128390000D01*
X89435301Y-128486673D01*
X89256673Y-128665302D01*
X89217500Y-128759874D01*
X89178327Y-128665302D01*
X88999699Y-128486673D01*
X88766310Y-128390000D01*
X88550750Y-128390000D01*
X88392000Y-128548750D01*
X88138000Y-128548750D01*
X87979250Y-128390000D01*
X87763690Y-128390000D01*
X87530301Y-128486673D01*
X87351673Y-128665302D01*
X87255000Y-128898691D01*
X87015263Y-128898691D01*
X86999090Y-128873559D01*
X86854844Y-128775000D01*
X87011250Y-128775000D01*
X87170000Y-128616250D01*
X87170000Y-128548691D01*
X87073327Y-128315302D01*
X86894699Y-128136673D01*
X86864864Y-128124315D01*
X86931431Y-128026890D01*
X86982440Y-127775000D01*
X86982440Y-126175000D01*
X86938162Y-125939683D01*
X86799090Y-125723559D01*
X86586890Y-125578569D01*
X86335000Y-125527560D01*
X84935000Y-125527560D01*
X84699683Y-125571838D01*
X84483559Y-125710910D01*
X84381237Y-125860664D01*
X84314339Y-125815964D01*
X83857032Y-125725000D01*
X82912968Y-125725000D01*
X82455661Y-125815964D01*
X82067975Y-126075007D01*
X81990000Y-126191705D01*
X81990000Y-106248591D01*
X89204999Y-106248591D01*
X89204999Y-111760001D01*
X89262851Y-112050840D01*
X89427598Y-112297402D01*
X89492598Y-112362402D01*
X89739160Y-112527149D01*
X90029999Y-112585001D01*
X91350001Y-112585001D01*
X91640840Y-112527149D01*
X91887402Y-112362402D01*
X91952402Y-112297402D01*
X92052603Y-112147440D01*
X92590000Y-112147440D01*
X92825317Y-112103162D01*
X93041441Y-111964090D01*
X93095481Y-111885000D01*
X93855000Y-111885000D01*
X93855000Y-112109895D01*
X93713559Y-112200910D01*
X93568569Y-112413110D01*
X93517560Y-112665000D01*
X93517560Y-113165000D01*
X93561838Y-113400317D01*
X93700910Y-113616441D01*
X93770711Y-113664134D01*
X93713559Y-113700910D01*
X93568569Y-113913110D01*
X93517560Y-114165000D01*
X93517560Y-114665000D01*
X93561838Y-114900317D01*
X93700910Y-115116441D01*
X93913110Y-115261431D01*
X94165000Y-115312440D01*
X95065000Y-115312440D01*
X95300317Y-115268162D01*
X95445095Y-115175000D01*
X95607494Y-115175000D01*
X95726883Y-115463943D01*
X95989673Y-115727192D01*
X96333201Y-115869838D01*
X96610119Y-115870079D01*
X93617599Y-118862599D01*
X93524080Y-119002560D01*
X93155000Y-119002560D01*
X92919683Y-119046838D01*
X92703559Y-119185910D01*
X92558569Y-119398110D01*
X92507560Y-119650000D01*
X92507560Y-121650000D01*
X92551838Y-121885317D01*
X92690910Y-122101441D01*
X92903110Y-122246431D01*
X93155000Y-122297440D01*
X95155000Y-122297440D01*
X95390317Y-122253162D01*
X95606441Y-122114090D01*
X95751431Y-121901890D01*
X95802440Y-121650000D01*
X95802440Y-119650000D01*
X95758162Y-119414683D01*
X95619090Y-119198559D01*
X95507494Y-119122308D01*
X96253403Y-118376399D01*
X96361883Y-118638943D01*
X96624673Y-118902192D01*
X96968201Y-119044838D01*
X97015077Y-119044879D01*
X97982599Y-120012401D01*
X98229161Y-120177148D01*
X98507560Y-120232526D01*
X98507560Y-120275000D01*
X98551838Y-120510317D01*
X98642190Y-120650727D01*
X98558569Y-120773110D01*
X98507560Y-121025000D01*
X98507560Y-122625000D01*
X98551838Y-122860317D01*
X98690910Y-123076441D01*
X98903110Y-123221431D01*
X99155000Y-123272440D01*
X101155000Y-123272440D01*
X101390317Y-123228162D01*
X101606441Y-123089090D01*
X101751431Y-122876890D01*
X101802440Y-122625000D01*
X101802440Y-121025000D01*
X101758162Y-120789683D01*
X101667810Y-120649273D01*
X101751431Y-120526890D01*
X101802440Y-120275000D01*
X101802440Y-118675000D01*
X101758162Y-118439683D01*
X101619090Y-118223559D01*
X101406890Y-118078569D01*
X101155000Y-118027560D01*
X99155000Y-118027560D01*
X98919683Y-118071838D01*
X98703559Y-118210910D01*
X98558569Y-118423110D01*
X98555932Y-118436130D01*
X98090122Y-117970320D01*
X98090162Y-117924833D01*
X97948117Y-117581057D01*
X97685327Y-117317808D01*
X97421532Y-117208270D01*
X97978804Y-116650998D01*
X98060000Y-116667440D01*
X98560000Y-116667440D01*
X98795317Y-116623162D01*
X99011441Y-116484090D01*
X99059134Y-116414289D01*
X99095910Y-116471441D01*
X99308110Y-116616431D01*
X99560000Y-116667440D01*
X100060000Y-116667440D01*
X100295317Y-116623162D01*
X100511441Y-116484090D01*
X100656431Y-116271890D01*
X100707440Y-116020000D01*
X100707440Y-115120000D01*
X100663162Y-114884683D01*
X100524090Y-114668559D01*
X100311890Y-114523569D01*
X100060000Y-114472560D01*
X99820000Y-114472560D01*
X99820000Y-114316233D01*
X99911491Y-114257360D01*
X100056481Y-114045160D01*
X100107490Y-113793270D01*
X100107490Y-112993170D01*
X100063212Y-112757853D01*
X99924140Y-112541729D01*
X99777787Y-112441730D01*
X100410050Y-112441730D01*
X100645367Y-112397452D01*
X100861491Y-112258380D01*
X101006481Y-112046180D01*
X101045195Y-111855000D01*
X113582560Y-111855000D01*
X113582560Y-113855000D01*
X113626838Y-114090317D01*
X113765910Y-114306441D01*
X113978110Y-114451431D01*
X114230000Y-114502440D01*
X114291371Y-114502440D01*
X114327852Y-114685839D01*
X114492599Y-114932401D01*
X115936839Y-116376641D01*
X116183401Y-116541388D01*
X116202162Y-116545120D01*
X116295860Y-116690731D01*
X116508060Y-116835721D01*
X116759950Y-116886730D01*
X117394255Y-116886730D01*
X117258509Y-116974080D01*
X117113519Y-117186280D01*
X117062510Y-117438170D01*
X117062510Y-118238270D01*
X117106788Y-118473587D01*
X117245860Y-118689711D01*
X117458060Y-118834701D01*
X117709950Y-118885710D01*
X117985000Y-118885710D01*
X117985000Y-119094895D01*
X117843559Y-119185910D01*
X117698569Y-119398110D01*
X117647560Y-119650000D01*
X117647560Y-120150000D01*
X117691838Y-120385317D01*
X117830910Y-120601441D01*
X117900711Y-120649134D01*
X117843559Y-120685910D01*
X117698569Y-120898110D01*
X117647560Y-121150000D01*
X117647560Y-121650000D01*
X117691838Y-121885317D01*
X117830910Y-122101441D01*
X118043110Y-122246431D01*
X118295000Y-122297440D01*
X119195000Y-122297440D01*
X119430317Y-122253162D01*
X119575095Y-122160000D01*
X120087537Y-122160000D01*
X120119673Y-122192192D01*
X120463201Y-122334838D01*
X120835167Y-122335162D01*
X121178943Y-122193117D01*
X121212118Y-122160000D01*
X121726614Y-122160000D01*
X121853110Y-122246431D01*
X122105000Y-122297440D01*
X123005000Y-122297440D01*
X123240317Y-122253162D01*
X123456441Y-122114090D01*
X123601431Y-121901890D01*
X123652440Y-121650000D01*
X123652440Y-121150000D01*
X123608162Y-120914683D01*
X123469090Y-120698559D01*
X123399289Y-120650866D01*
X123456441Y-120614090D01*
X123601431Y-120401890D01*
X123652440Y-120150000D01*
X123652440Y-119650000D01*
X123608162Y-119414683D01*
X123469090Y-119198559D01*
X123315000Y-119093274D01*
X123315000Y-118885710D01*
X123590050Y-118885710D01*
X123825367Y-118841432D01*
X124041491Y-118702360D01*
X124186481Y-118490160D01*
X124237490Y-118238270D01*
X124237490Y-117438170D01*
X124193212Y-117202853D01*
X124054140Y-116986729D01*
X123907787Y-116886730D01*
X124540050Y-116886730D01*
X124775367Y-116842452D01*
X124991491Y-116703380D01*
X125136481Y-116491180D01*
X125187490Y-116239290D01*
X125187490Y-115665000D01*
X140252560Y-115665000D01*
X140252560Y-117665000D01*
X140296838Y-117900317D01*
X140435910Y-118116441D01*
X140648110Y-118261431D01*
X140900000Y-118312440D01*
X142500000Y-118312440D01*
X142735317Y-118268162D01*
X142875727Y-118177810D01*
X142998110Y-118261431D01*
X143250000Y-118312440D01*
X144850000Y-118312440D01*
X145085317Y-118268162D01*
X145301441Y-118129090D01*
X145446431Y-117916890D01*
X145497440Y-117665000D01*
X145497440Y-116092362D01*
X145579802Y-116010000D01*
X146485331Y-116010000D01*
X146495910Y-116026441D01*
X146708110Y-116171431D01*
X146730000Y-116175864D01*
X146730000Y-117125000D01*
X146787852Y-117415839D01*
X146942560Y-117647377D01*
X146942560Y-117925000D01*
X146986838Y-118160317D01*
X147125910Y-118376441D01*
X147338110Y-118521431D01*
X147590000Y-118572440D01*
X148090000Y-118572440D01*
X148325317Y-118528162D01*
X148541441Y-118389090D01*
X148589134Y-118319289D01*
X148625910Y-118376441D01*
X148838110Y-118521431D01*
X149090000Y-118572440D01*
X149590000Y-118572440D01*
X149825317Y-118528162D01*
X150041441Y-118389090D01*
X150186431Y-118176890D01*
X150237440Y-117925000D01*
X150237440Y-117025000D01*
X150193162Y-116789683D01*
X150054090Y-116573559D01*
X149841890Y-116428569D01*
X149594999Y-116378572D01*
X149594999Y-116222440D01*
X150220000Y-116222440D01*
X150455317Y-116178162D01*
X150671441Y-116039090D01*
X150691317Y-116010000D01*
X151565000Y-116010000D01*
X151855839Y-115952148D01*
X151862885Y-115947440D01*
X152215000Y-115947440D01*
X152450317Y-115903162D01*
X152666441Y-115764090D01*
X152811431Y-115551890D01*
X152862440Y-115300000D01*
X152862440Y-114800000D01*
X152818162Y-114564683D01*
X152679090Y-114348559D01*
X152609289Y-114300866D01*
X152630932Y-114286940D01*
X152805839Y-114252148D01*
X153052401Y-114087401D01*
X153174680Y-113965122D01*
X153220167Y-113965162D01*
X153563943Y-113823117D01*
X153827192Y-113560327D01*
X153969838Y-113216799D01*
X153970162Y-112844833D01*
X153828117Y-112501057D01*
X153565327Y-112237808D01*
X153221799Y-112095162D01*
X152849833Y-112094838D01*
X152506057Y-112236883D01*
X152242808Y-112499673D01*
X152179323Y-112652560D01*
X151315000Y-112652560D01*
X151079683Y-112696838D01*
X150863559Y-112835910D01*
X150842041Y-112867403D01*
X150758327Y-112665301D01*
X150579698Y-112486673D01*
X150346309Y-112390000D01*
X149975750Y-112390000D01*
X149817000Y-112548750D01*
X149817000Y-113223000D01*
X149837000Y-113223000D01*
X149837000Y-113477000D01*
X149817000Y-113477000D01*
X149817000Y-113497000D01*
X149594999Y-113497000D01*
X149594999Y-111395000D01*
X165907560Y-111395000D01*
X165907560Y-111895000D01*
X165951838Y-112130317D01*
X166090910Y-112346441D01*
X166160711Y-112394134D01*
X166103559Y-112430910D01*
X165958569Y-112643110D01*
X165907560Y-112895000D01*
X165907560Y-113395000D01*
X165951838Y-113630317D01*
X166090910Y-113846441D01*
X166303110Y-113991431D01*
X166555000Y-114042440D01*
X167455000Y-114042440D01*
X167690317Y-113998162D01*
X167906441Y-113859090D01*
X168051431Y-113646890D01*
X168102440Y-113395000D01*
X168102440Y-113322362D01*
X168242401Y-113182401D01*
X168358492Y-113008659D01*
X168550000Y-113047440D01*
X169305000Y-113047440D01*
X169305000Y-114106614D01*
X169218569Y-114233110D01*
X169167560Y-114485000D01*
X169167560Y-115385000D01*
X169211838Y-115620317D01*
X169350910Y-115836441D01*
X169563110Y-115981431D01*
X169815000Y-116032440D01*
X170315000Y-116032440D01*
X170550317Y-115988162D01*
X170766441Y-115849090D01*
X170814134Y-115779289D01*
X170850910Y-115836441D01*
X171063110Y-115981431D01*
X171315000Y-116032440D01*
X171815000Y-116032440D01*
X172050317Y-115988162D01*
X172266441Y-115849090D01*
X172371726Y-115695000D01*
X173069895Y-115695000D01*
X173160910Y-115836441D01*
X173373110Y-115981431D01*
X173625000Y-116032440D01*
X174125000Y-116032440D01*
X174360317Y-115988162D01*
X174576441Y-115849090D01*
X174624134Y-115779289D01*
X174660910Y-115836441D01*
X174873110Y-115981431D01*
X175125000Y-116032440D01*
X175625000Y-116032440D01*
X175860317Y-115988162D01*
X176076441Y-115849090D01*
X176181726Y-115695000D01*
X177145738Y-115695000D01*
X177345971Y-115994670D01*
X177832152Y-116319526D01*
X178405641Y-116433600D01*
X178464359Y-116433600D01*
X179037848Y-116319526D01*
X179524029Y-115994670D01*
X179705000Y-115723828D01*
X179885971Y-115994670D01*
X180372152Y-116319526D01*
X180945641Y-116433600D01*
X181004359Y-116433600D01*
X181577848Y-116319526D01*
X182064029Y-115994670D01*
X182388885Y-115508489D01*
X182502959Y-114935000D01*
X182388885Y-114361511D01*
X182064029Y-113875330D01*
X181749248Y-113665000D01*
X182064029Y-113454670D01*
X182388885Y-112968489D01*
X182502959Y-112395000D01*
X182388885Y-111821511D01*
X182064029Y-111335330D01*
X181577848Y-111010474D01*
X181004359Y-110896400D01*
X180945641Y-110896400D01*
X180372152Y-111010474D01*
X179906558Y-111321574D01*
X179901762Y-111296083D01*
X179762690Y-111079959D01*
X179550490Y-110934969D01*
X179298600Y-110883960D01*
X177571400Y-110883960D01*
X177336083Y-110928238D01*
X177119959Y-111067310D01*
X176974969Y-111279510D01*
X176923960Y-111531400D01*
X176923960Y-111635000D01*
X176180105Y-111635000D01*
X176089090Y-111493559D01*
X175876890Y-111348569D01*
X175625000Y-111297560D01*
X175125000Y-111297560D01*
X174889683Y-111341838D01*
X174673559Y-111480910D01*
X174625866Y-111550711D01*
X174589090Y-111493559D01*
X174376890Y-111348569D01*
X174125000Y-111297560D01*
X173625000Y-111297560D01*
X173389683Y-111341838D01*
X173173559Y-111480910D01*
X173028569Y-111693110D01*
X172977560Y-111945000D01*
X172977560Y-112845000D01*
X173021838Y-113080317D01*
X173115000Y-113225095D01*
X173115000Y-114106614D01*
X173068274Y-114175000D01*
X172370105Y-114175000D01*
X172325000Y-114104905D01*
X172325000Y-112771068D01*
X172406431Y-112651890D01*
X172457440Y-112400000D01*
X172457440Y-111750000D01*
X172413162Y-111514683D01*
X172274090Y-111298559D01*
X172061890Y-111153569D01*
X171947435Y-111130391D01*
X172169698Y-111038327D01*
X172348327Y-110859699D01*
X172445000Y-110626310D01*
X172445000Y-110460750D01*
X172286250Y-110302000D01*
X171407000Y-110302000D01*
X171407000Y-110322000D01*
X171153000Y-110322000D01*
X171153000Y-110302000D01*
X171133000Y-110302000D01*
X171133000Y-110048000D01*
X171153000Y-110048000D01*
X171153000Y-109373750D01*
X171407000Y-109373750D01*
X171407000Y-110048000D01*
X172286250Y-110048000D01*
X172445000Y-109889250D01*
X172445000Y-109723690D01*
X172348327Y-109490301D01*
X172169698Y-109311673D01*
X171936309Y-109215000D01*
X171565750Y-109215000D01*
X171407000Y-109373750D01*
X171153000Y-109373750D01*
X170994250Y-109215000D01*
X170623691Y-109215000D01*
X170390302Y-109311673D01*
X170211673Y-109490301D01*
X170204147Y-109508471D01*
X170150839Y-109472852D01*
X170117648Y-109466250D01*
X170074090Y-109398559D01*
X169861890Y-109253569D01*
X169610000Y-109202560D01*
X168550000Y-109202560D01*
X168314683Y-109246838D01*
X168098559Y-109385910D01*
X167953569Y-109598110D01*
X167951759Y-109607050D01*
X167826799Y-109555162D01*
X167454833Y-109554838D01*
X167111057Y-109696883D01*
X166847808Y-109959673D01*
X166705162Y-110303201D01*
X166705121Y-110350077D01*
X166467599Y-110587599D01*
X166332778Y-110789374D01*
X166319683Y-110791838D01*
X166103559Y-110930910D01*
X165958569Y-111143110D01*
X165907560Y-111395000D01*
X149594999Y-111395000D01*
X149594999Y-111194803D01*
X149974545Y-110815257D01*
X150040971Y-110914670D01*
X150527152Y-111239526D01*
X151100641Y-111353600D01*
X151159359Y-111353600D01*
X151732848Y-111239526D01*
X152198442Y-110928426D01*
X152203238Y-110953917D01*
X152342310Y-111170041D01*
X152554510Y-111315031D01*
X152806400Y-111366040D01*
X154533600Y-111366040D01*
X154768917Y-111321762D01*
X154985041Y-111182690D01*
X155130031Y-110970490D01*
X155181040Y-110718600D01*
X155181040Y-108991400D01*
X155136762Y-108756083D01*
X154997690Y-108539959D01*
X154785490Y-108394969D01*
X154741869Y-108386136D01*
X154759029Y-108374670D01*
X155083885Y-107888489D01*
X155197959Y-107315000D01*
X155083885Y-106741511D01*
X154759029Y-106255330D01*
X154272848Y-105930474D01*
X153699359Y-105816400D01*
X153640641Y-105816400D01*
X153067152Y-105930474D01*
X152580971Y-106255330D01*
X152400000Y-106526172D01*
X152219029Y-106255330D01*
X151732848Y-105930474D01*
X151159359Y-105816400D01*
X151100641Y-105816400D01*
X150527152Y-105930474D01*
X150040971Y-106255330D01*
X149716115Y-106741511D01*
X149602041Y-107315000D01*
X149677225Y-107692973D01*
X146952599Y-110417599D01*
X146787852Y-110664161D01*
X146732456Y-110942654D01*
X145917401Y-110127599D01*
X145670839Y-109962852D01*
X145380000Y-109905000D01*
X144522440Y-109905000D01*
X144522440Y-109665000D01*
X144478162Y-109429683D01*
X144339090Y-109213559D01*
X144126890Y-109068569D01*
X143875000Y-109017560D01*
X141875000Y-109017560D01*
X141639683Y-109061838D01*
X141423559Y-109200910D01*
X141278569Y-109413110D01*
X141227560Y-109665000D01*
X141227560Y-111665000D01*
X141271838Y-111900317D01*
X141410910Y-112116441D01*
X141623110Y-112261431D01*
X141875000Y-112312440D01*
X143875000Y-112312440D01*
X144110317Y-112268162D01*
X144326441Y-112129090D01*
X144471431Y-111916890D01*
X144522440Y-111665000D01*
X144522440Y-111425000D01*
X145065198Y-111425000D01*
X146383759Y-112743561D01*
X146363569Y-112773110D01*
X146312560Y-113025000D01*
X146312560Y-113540000D01*
X145729802Y-113540000D01*
X145715122Y-113525320D01*
X145715162Y-113479833D01*
X145573117Y-113136057D01*
X145310327Y-112872808D01*
X144966799Y-112730162D01*
X144594833Y-112729838D01*
X144251057Y-112871883D01*
X143987808Y-113134673D01*
X143845162Y-113478201D01*
X143844838Y-113850167D01*
X143986883Y-114193943D01*
X144249673Y-114457192D01*
X144593201Y-114599838D01*
X144640077Y-114599879D01*
X144742704Y-114702506D01*
X144727599Y-114712599D01*
X144422638Y-115017560D01*
X143250000Y-115017560D01*
X143014683Y-115061838D01*
X142874273Y-115152190D01*
X142751890Y-115068569D01*
X142500000Y-115017560D01*
X140900000Y-115017560D01*
X140664683Y-115061838D01*
X140448559Y-115200910D01*
X140303569Y-115413110D01*
X140252560Y-115665000D01*
X125187490Y-115665000D01*
X125187490Y-115439190D01*
X125143212Y-115203873D01*
X125004140Y-114987749D01*
X124900000Y-114916593D01*
X124900000Y-114615000D01*
X124842148Y-114324161D01*
X124677401Y-114077599D01*
X123950000Y-113350198D01*
X123950000Y-113039520D01*
X124279029Y-112819670D01*
X124460000Y-112548828D01*
X124640971Y-112819670D01*
X125127152Y-113144526D01*
X125700641Y-113258600D01*
X125759359Y-113258600D01*
X126332848Y-113144526D01*
X126819029Y-112819670D01*
X127143885Y-112333489D01*
X127257959Y-111760000D01*
X127143885Y-111186511D01*
X126819029Y-110700330D01*
X126495772Y-110484336D01*
X126618490Y-110426821D01*
X127012688Y-109994947D01*
X127184958Y-109579026D01*
X127063817Y-109347000D01*
X125857000Y-109347000D01*
X125857000Y-109367000D01*
X125603000Y-109367000D01*
X125603000Y-109347000D01*
X123317000Y-109347000D01*
X123317000Y-109367000D01*
X123063000Y-109367000D01*
X123063000Y-109347000D01*
X121850150Y-109347000D01*
X121691400Y-109505750D01*
X121691400Y-110209910D01*
X121788073Y-110443299D01*
X121966702Y-110621927D01*
X122122023Y-110686263D01*
X122100971Y-110700330D01*
X121776115Y-111186511D01*
X121662041Y-111760000D01*
X121776115Y-112333489D01*
X122100971Y-112819670D01*
X122430000Y-113039520D01*
X122430000Y-113665000D01*
X122487852Y-113955839D01*
X122652599Y-114202401D01*
X123371740Y-114921542D01*
X123288509Y-114975100D01*
X123189368Y-115120197D01*
X123104140Y-114987749D01*
X122891940Y-114842759D01*
X122640050Y-114791750D01*
X121839950Y-114791750D01*
X121604633Y-114836028D01*
X121388509Y-114975100D01*
X121317353Y-115079240D01*
X119983013Y-115079240D01*
X119924140Y-114987749D01*
X119735976Y-114859182D01*
X119597401Y-114651789D01*
X119343211Y-114397599D01*
X119096649Y-114232852D01*
X118805810Y-114175000D01*
X118729893Y-114175000D01*
X118776431Y-114106890D01*
X118827440Y-113855000D01*
X118827440Y-111855000D01*
X118783162Y-111619683D01*
X118644090Y-111403559D01*
X118431890Y-111258569D01*
X118180000Y-111207560D01*
X116580000Y-111207560D01*
X116344683Y-111251838D01*
X116204273Y-111342190D01*
X116081890Y-111258569D01*
X115830000Y-111207560D01*
X114230000Y-111207560D01*
X113994683Y-111251838D01*
X113778559Y-111390910D01*
X113633569Y-111603110D01*
X113582560Y-111855000D01*
X101045195Y-111855000D01*
X101057490Y-111794290D01*
X101057490Y-110994190D01*
X101013212Y-110758873D01*
X100874140Y-110542749D01*
X100770000Y-110471593D01*
X100770000Y-109980914D01*
X100932401Y-109872401D01*
X101097148Y-109625839D01*
X101155000Y-109335000D01*
X101097148Y-109044161D01*
X100932401Y-108797599D01*
X100685839Y-108632852D01*
X100576111Y-108611026D01*
X100540994Y-108587031D01*
X100683327Y-108444698D01*
X100780000Y-108211309D01*
X100780000Y-108118750D01*
X100621250Y-107960000D01*
X99822000Y-107960000D01*
X99822000Y-107982000D01*
X99568000Y-107982000D01*
X99568000Y-107960000D01*
X98768750Y-107960000D01*
X98610000Y-108118750D01*
X98610000Y-108211309D01*
X98706673Y-108444698D01*
X98836974Y-108575000D01*
X92619998Y-108575000D01*
X92329159Y-108632852D01*
X92082597Y-108797599D01*
X91450000Y-109430196D01*
X91450000Y-108093691D01*
X93530000Y-108093691D01*
X93530000Y-108186250D01*
X93688750Y-108345000D01*
X94488000Y-108345000D01*
X94488000Y-107743750D01*
X94742000Y-107743750D01*
X94742000Y-108345000D01*
X95541250Y-108345000D01*
X95700000Y-108186250D01*
X95700000Y-108093691D01*
X95603327Y-107860302D01*
X95424699Y-107681673D01*
X95191310Y-107585000D01*
X94900750Y-107585000D01*
X94742000Y-107743750D01*
X94488000Y-107743750D01*
X94329250Y-107585000D01*
X94038690Y-107585000D01*
X93805301Y-107681673D01*
X93626673Y-107860302D01*
X93530000Y-108093691D01*
X91450000Y-108093691D01*
X91450000Y-107458691D01*
X98610000Y-107458691D01*
X98610000Y-107551250D01*
X98768750Y-107710000D01*
X99568000Y-107710000D01*
X99568000Y-107108750D01*
X99822000Y-107108750D01*
X99822000Y-107710000D01*
X100621250Y-107710000D01*
X100780000Y-107551250D01*
X100780000Y-107458691D01*
X100683327Y-107225302D01*
X100598776Y-107140750D01*
X114570000Y-107140750D01*
X114570000Y-107981310D01*
X114666673Y-108214699D01*
X114845302Y-108393327D01*
X115078691Y-108490000D01*
X115919250Y-108490000D01*
X116078000Y-108331250D01*
X116078000Y-106982000D01*
X116332000Y-106982000D01*
X116332000Y-108331250D01*
X116490750Y-108490000D01*
X117331309Y-108490000D01*
X117564698Y-108393327D01*
X117727935Y-108230090D01*
X121691400Y-108230090D01*
X121691400Y-108934250D01*
X121850150Y-109093000D01*
X123063000Y-109093000D01*
X123063000Y-107880150D01*
X123317000Y-107880150D01*
X123317000Y-109093000D01*
X125603000Y-109093000D01*
X125603000Y-107885531D01*
X125857000Y-107885531D01*
X125857000Y-109093000D01*
X127063817Y-109093000D01*
X127184958Y-108860974D01*
X127012688Y-108445053D01*
X126618490Y-108013179D01*
X126089027Y-107765032D01*
X125857000Y-107885531D01*
X125603000Y-107885531D01*
X125370973Y-107765032D01*
X124841510Y-108013179D01*
X124674529Y-108196119D01*
X124591927Y-107996701D01*
X124413298Y-107818073D01*
X124179909Y-107721400D01*
X123475750Y-107721400D01*
X123317000Y-107880150D01*
X123063000Y-107880150D01*
X122904250Y-107721400D01*
X122200091Y-107721400D01*
X121966702Y-107818073D01*
X121788073Y-107996701D01*
X121691400Y-108230090D01*
X117727935Y-108230090D01*
X117743327Y-108214699D01*
X117840000Y-107981310D01*
X117840000Y-107140750D01*
X117681250Y-106982000D01*
X116332000Y-106982000D01*
X116078000Y-106982000D01*
X114728750Y-106982000D01*
X114570000Y-107140750D01*
X100598776Y-107140750D01*
X100504699Y-107046673D01*
X100271310Y-106950000D01*
X99980750Y-106950000D01*
X99822000Y-107108750D01*
X99568000Y-107108750D01*
X99409250Y-106950000D01*
X99118690Y-106950000D01*
X98885301Y-107046673D01*
X98706673Y-107225302D01*
X98610000Y-107458691D01*
X91450000Y-107458691D01*
X91450000Y-106474802D01*
X92707302Y-105217500D01*
X100628238Y-105217500D01*
X100828471Y-105517170D01*
X101314652Y-105842026D01*
X101888141Y-105956100D01*
X101946859Y-105956100D01*
X102520348Y-105842026D01*
X102985942Y-105530926D01*
X102990738Y-105556417D01*
X103129810Y-105772541D01*
X103342010Y-105917531D01*
X103593900Y-105968540D01*
X105321100Y-105968540D01*
X105556417Y-105924262D01*
X105772541Y-105785190D01*
X105811145Y-105728690D01*
X114570000Y-105728690D01*
X114570000Y-106569250D01*
X114728750Y-106728000D01*
X116078000Y-106728000D01*
X116078000Y-105378750D01*
X116332000Y-105378750D01*
X116332000Y-106728000D01*
X117681250Y-106728000D01*
X117840000Y-106569250D01*
X117840000Y-105728690D01*
X117743327Y-105495301D01*
X117564698Y-105316673D01*
X117331309Y-105220000D01*
X116490750Y-105220000D01*
X116332000Y-105378750D01*
X116078000Y-105378750D01*
X115919250Y-105220000D01*
X115078691Y-105220000D01*
X114845302Y-105316673D01*
X114666673Y-105495301D01*
X114570000Y-105728690D01*
X105811145Y-105728690D01*
X105917531Y-105572990D01*
X105968540Y-105321100D01*
X105968540Y-103593900D01*
X105924262Y-103358583D01*
X105785190Y-103142459D01*
X105572990Y-102997469D01*
X105529369Y-102988636D01*
X105546529Y-102977170D01*
X105871385Y-102490989D01*
X105985459Y-101917500D01*
X105871385Y-101344011D01*
X105546529Y-100857830D01*
X105060348Y-100532974D01*
X104486859Y-100418900D01*
X104428141Y-100418900D01*
X103854652Y-100532974D01*
X103368471Y-100857830D01*
X103187500Y-101128672D01*
X103006529Y-100857830D01*
X102520348Y-100532974D01*
X101946859Y-100418900D01*
X101888141Y-100418900D01*
X101314652Y-100532974D01*
X100828471Y-100857830D01*
X100628238Y-101157500D01*
X94296090Y-101157500D01*
X94005251Y-101215352D01*
X93758689Y-101380099D01*
X89427598Y-105711190D01*
X89262851Y-105957752D01*
X89204999Y-106248591D01*
X81990000Y-106248591D01*
X81990000Y-88535000D01*
X93517560Y-88535000D01*
X93517560Y-89035000D01*
X93561838Y-89270317D01*
X93700910Y-89486441D01*
X93770711Y-89534134D01*
X93713559Y-89570910D01*
X93568569Y-89783110D01*
X93517560Y-90035000D01*
X93517560Y-90535000D01*
X93561838Y-90770317D01*
X93700910Y-90986441D01*
X93913110Y-91131431D01*
X94165000Y-91182440D01*
X95065000Y-91182440D01*
X95300317Y-91138162D01*
X95445095Y-91045000D01*
X96195000Y-91045000D01*
X96485839Y-90987148D01*
X96667969Y-90865453D01*
X96627560Y-91065000D01*
X96627560Y-91815000D01*
X96671838Y-92050317D01*
X96810910Y-92266441D01*
X96998982Y-92394945D01*
X97137599Y-92602401D01*
X97782599Y-93247401D01*
X98029161Y-93412148D01*
X98320000Y-93470000D01*
X100330000Y-93470000D01*
X100620839Y-93412148D01*
X100867401Y-93247401D01*
X101279802Y-92835000D01*
X102635002Y-92835000D01*
X102925841Y-92777148D01*
X103172403Y-92612401D01*
X104092400Y-91692404D01*
X104125785Y-91642440D01*
X105480000Y-91642440D01*
X105715317Y-91598162D01*
X105931441Y-91459090D01*
X106076431Y-91246890D01*
X106127440Y-90995000D01*
X106127440Y-88995000D01*
X106083162Y-88759683D01*
X105944090Y-88543559D01*
X105731890Y-88398569D01*
X105689575Y-88390000D01*
X107930738Y-88390000D01*
X108130971Y-88689670D01*
X108617152Y-89014526D01*
X109190641Y-89128600D01*
X109249359Y-89128600D01*
X109822848Y-89014526D01*
X110288442Y-88703426D01*
X110293238Y-88728917D01*
X110432310Y-88945041D01*
X110644510Y-89090031D01*
X110896400Y-89141040D01*
X112623600Y-89141040D01*
X112858917Y-89096762D01*
X113075041Y-88957690D01*
X113220031Y-88745490D01*
X113271040Y-88493600D01*
X113271040Y-86766400D01*
X113226762Y-86531083D01*
X113087690Y-86314959D01*
X112875490Y-86169969D01*
X112831869Y-86161136D01*
X112849029Y-86149670D01*
X113173885Y-85663489D01*
X113287959Y-85090000D01*
X113173885Y-84516511D01*
X112849029Y-84030330D01*
X112362848Y-83705474D01*
X111789359Y-83591400D01*
X111730641Y-83591400D01*
X111157152Y-83705474D01*
X110670971Y-84030330D01*
X110490000Y-84301172D01*
X110309029Y-84030330D01*
X109822848Y-83705474D01*
X109249359Y-83591400D01*
X109190641Y-83591400D01*
X108617152Y-83705474D01*
X108130971Y-84030330D01*
X107930738Y-84330000D01*
X105724802Y-84330000D01*
X105535000Y-84140198D01*
X105535000Y-84015000D01*
X105481007Y-83743559D01*
X105477148Y-83724160D01*
X105312401Y-83477599D01*
X105292401Y-83457599D01*
X105152440Y-83364080D01*
X105152440Y-82995000D01*
X105108162Y-82759683D01*
X104969090Y-82543559D01*
X104756890Y-82398569D01*
X104505000Y-82347560D01*
X102505000Y-82347560D01*
X102269683Y-82391838D01*
X102053559Y-82530910D01*
X101908569Y-82743110D01*
X101857560Y-82995000D01*
X101857560Y-83235000D01*
X99435000Y-83235000D01*
X99144160Y-83292852D01*
X98897599Y-83457599D01*
X96152599Y-86202599D01*
X96044567Y-86364280D01*
X95924683Y-86386838D01*
X95708559Y-86525910D01*
X95563569Y-86738110D01*
X95561759Y-86747050D01*
X95436799Y-86695162D01*
X95064833Y-86694838D01*
X94721057Y-86836883D01*
X94457808Y-87099673D01*
X94315162Y-87443201D01*
X94314838Y-87815167D01*
X94344750Y-87887560D01*
X94165000Y-87887560D01*
X93929683Y-87931838D01*
X93713559Y-88070910D01*
X93568569Y-88283110D01*
X93517560Y-88535000D01*
X81990000Y-88535000D01*
X81990000Y-82100167D01*
X126064838Y-82100167D01*
X126206883Y-82443943D01*
X126240000Y-82477118D01*
X126240000Y-82550000D01*
X126297852Y-82840839D01*
X126462599Y-83087401D01*
X126982599Y-83607401D01*
X127229161Y-83772148D01*
X127409423Y-83808005D01*
X127425711Y-83819134D01*
X127368559Y-83855910D01*
X127223569Y-84068110D01*
X127172560Y-84320000D01*
X127172560Y-84820000D01*
X127216838Y-85055317D01*
X127355910Y-85271441D01*
X127568110Y-85416431D01*
X127820000Y-85467440D01*
X128720000Y-85467440D01*
X128955317Y-85423162D01*
X129100095Y-85330000D01*
X129211778Y-85330000D01*
X129211838Y-85330317D01*
X129350910Y-85546441D01*
X129563110Y-85691431D01*
X129815000Y-85742440D01*
X130352758Y-85742440D01*
X129580856Y-86514342D01*
X129251859Y-86448900D01*
X129193141Y-86448900D01*
X128619652Y-86562974D01*
X128133471Y-86887830D01*
X127808615Y-87374011D01*
X127694541Y-87947500D01*
X127808615Y-88520989D01*
X128133471Y-89007170D01*
X128448252Y-89217500D01*
X128133471Y-89427830D01*
X127808615Y-89914011D01*
X127694541Y-90487500D01*
X127808615Y-91060989D01*
X128133471Y-91547170D01*
X128619652Y-91872026D01*
X129193141Y-91986100D01*
X129251859Y-91986100D01*
X129825348Y-91872026D01*
X130290942Y-91560926D01*
X130295738Y-91586417D01*
X130434810Y-91802541D01*
X130647010Y-91947531D01*
X130898900Y-91998540D01*
X132626100Y-91998540D01*
X132861417Y-91954262D01*
X133077541Y-91815190D01*
X133222531Y-91602990D01*
X133273540Y-91351100D01*
X133273540Y-90051262D01*
X133839802Y-89485000D01*
X134537560Y-89485000D01*
X134537560Y-89725000D01*
X134581838Y-89960317D01*
X134720910Y-90176441D01*
X134933110Y-90321431D01*
X135185000Y-90372440D01*
X136785000Y-90372440D01*
X137020317Y-90328162D01*
X137160727Y-90237810D01*
X137283110Y-90321431D01*
X137535000Y-90372440D01*
X139135000Y-90372440D01*
X139370317Y-90328162D01*
X139586441Y-90189090D01*
X139731431Y-89976890D01*
X139782440Y-89725000D01*
X139782440Y-87725000D01*
X139738162Y-87489683D01*
X139599090Y-87273559D01*
X139386890Y-87128569D01*
X139196431Y-87090000D01*
X150412560Y-87090000D01*
X150412560Y-89090000D01*
X150456838Y-89325317D01*
X150595910Y-89541441D01*
X150808110Y-89686431D01*
X151060000Y-89737440D01*
X151525000Y-89737440D01*
X151525000Y-89976614D01*
X151438569Y-90103110D01*
X151387560Y-90355000D01*
X151387560Y-91255000D01*
X151431838Y-91490317D01*
X151570910Y-91706441D01*
X151783110Y-91851431D01*
X152035000Y-91902440D01*
X152107638Y-91902440D01*
X153132599Y-92927401D01*
X153379161Y-93092148D01*
X153670000Y-93150000D01*
X154740331Y-93150000D01*
X154750910Y-93166441D01*
X154963110Y-93311431D01*
X155215000Y-93362440D01*
X156275000Y-93362440D01*
X156510317Y-93318162D01*
X156726441Y-93179090D01*
X156846233Y-93003768D01*
X156950910Y-93166441D01*
X157163110Y-93311431D01*
X157298288Y-93338805D01*
X157407599Y-93502401D01*
X157612599Y-93707401D01*
X157859161Y-93872148D01*
X158150000Y-93930000D01*
X160912560Y-93930000D01*
X160912560Y-94170000D01*
X160956838Y-94405317D01*
X161095910Y-94621441D01*
X161308110Y-94766431D01*
X161560000Y-94817440D01*
X163560000Y-94817440D01*
X163795317Y-94773162D01*
X164011441Y-94634090D01*
X164156431Y-94421890D01*
X164207440Y-94170000D01*
X164207440Y-92170000D01*
X164163162Y-91934683D01*
X164024090Y-91718559D01*
X163811890Y-91573569D01*
X163560000Y-91522560D01*
X161560000Y-91522560D01*
X161324683Y-91566838D01*
X161108559Y-91705910D01*
X160963569Y-91918110D01*
X160912560Y-92170000D01*
X160912560Y-92410000D01*
X159122440Y-92410000D01*
X159122440Y-92200000D01*
X159457537Y-92200000D01*
X159489673Y-92232192D01*
X159833201Y-92374838D01*
X160205167Y-92375162D01*
X160548943Y-92233117D01*
X160812192Y-91970327D01*
X160954838Y-91626799D01*
X160955162Y-91254833D01*
X160813117Y-90911057D01*
X160550327Y-90647808D01*
X160206799Y-90505162D01*
X159834833Y-90504838D01*
X159491057Y-90646883D01*
X159457882Y-90680000D01*
X159014250Y-90680000D01*
X158951250Y-90617000D01*
X158072000Y-90617000D01*
X158072000Y-90637000D01*
X157818000Y-90637000D01*
X157818000Y-90617000D01*
X157798000Y-90617000D01*
X157798000Y-90363000D01*
X157818000Y-90363000D01*
X157818000Y-89688750D01*
X158072000Y-89688750D01*
X158072000Y-90363000D01*
X158951250Y-90363000D01*
X159110000Y-90204250D01*
X159110000Y-90038690D01*
X159013327Y-89805301D01*
X158834698Y-89626673D01*
X158601309Y-89530000D01*
X158230750Y-89530000D01*
X158072000Y-89688750D01*
X157818000Y-89688750D01*
X157659250Y-89530000D01*
X157288691Y-89530000D01*
X157055302Y-89626673D01*
X156876673Y-89805301D01*
X156845912Y-89879565D01*
X156739090Y-89713559D01*
X156526890Y-89568569D01*
X156505000Y-89564136D01*
X156505000Y-87455750D01*
X159950000Y-87455750D01*
X159950000Y-88296310D01*
X160046673Y-88529699D01*
X160225302Y-88708327D01*
X160458691Y-88805000D01*
X161099250Y-88805000D01*
X161258000Y-88646250D01*
X161258000Y-87297000D01*
X160108750Y-87297000D01*
X159950000Y-87455750D01*
X156505000Y-87455750D01*
X156505000Y-87139802D01*
X157601112Y-86043690D01*
X159950000Y-86043690D01*
X159950000Y-86884250D01*
X160108750Y-87043000D01*
X161258000Y-87043000D01*
X161258000Y-85693750D01*
X161512000Y-85693750D01*
X161512000Y-87043000D01*
X161532000Y-87043000D01*
X161532000Y-87297000D01*
X161512000Y-87297000D01*
X161512000Y-88646250D01*
X161670750Y-88805000D01*
X162311309Y-88805000D01*
X162544698Y-88708327D01*
X162566364Y-88686662D01*
X162683110Y-88766431D01*
X162935000Y-88817440D01*
X162977474Y-88817440D01*
X163032852Y-89095839D01*
X163197599Y-89342401D01*
X163529878Y-89674680D01*
X163529838Y-89720167D01*
X163671883Y-90063943D01*
X163934673Y-90327192D01*
X164278201Y-90469838D01*
X164650167Y-90470162D01*
X164993943Y-90328117D01*
X165257192Y-90065327D01*
X165399838Y-89721799D01*
X165400162Y-89349833D01*
X165258117Y-89006057D01*
X164995327Y-88742808D01*
X164887238Y-88697925D01*
X164986441Y-88634090D01*
X165131431Y-88421890D01*
X165182440Y-88170000D01*
X165182440Y-87180167D01*
X174959838Y-87180167D01*
X175101883Y-87523943D01*
X175364673Y-87787192D01*
X175708201Y-87929838D01*
X176080167Y-87930162D01*
X176423943Y-87788117D01*
X176687192Y-87525327D01*
X176696272Y-87503460D01*
X176790000Y-87522440D01*
X177540000Y-87522440D01*
X177775317Y-87478162D01*
X177991441Y-87339090D01*
X178136431Y-87126890D01*
X178187440Y-86875000D01*
X178187440Y-86430784D01*
X178195000Y-86432315D01*
X178195000Y-87436614D01*
X178108569Y-87563110D01*
X178057560Y-87815000D01*
X178057560Y-88715000D01*
X178101838Y-88950317D01*
X178240910Y-89166441D01*
X178453110Y-89311431D01*
X178618437Y-89344910D01*
X178541057Y-89376883D01*
X178277808Y-89639673D01*
X178135162Y-89983201D01*
X178135121Y-90030077D01*
X177897599Y-90267599D01*
X177732852Y-90514161D01*
X177675000Y-90805000D01*
X177675000Y-91154895D01*
X177533559Y-91245910D01*
X177388569Y-91458110D01*
X177337560Y-91710000D01*
X177337560Y-92210000D01*
X177381838Y-92445317D01*
X177520910Y-92661441D01*
X177590711Y-92709134D01*
X177533559Y-92745910D01*
X177388569Y-92958110D01*
X177337560Y-93210000D01*
X177337560Y-93710000D01*
X177381838Y-93945317D01*
X177520910Y-94161441D01*
X177733110Y-94306431D01*
X177985000Y-94357440D01*
X178885000Y-94357440D01*
X179120317Y-94313162D01*
X179265095Y-94220000D01*
X179945000Y-94220000D01*
X179962560Y-94216507D01*
X179962560Y-95065000D01*
X180006838Y-95300317D01*
X180145910Y-95516441D01*
X180358110Y-95661431D01*
X180610000Y-95712440D01*
X181110000Y-95712440D01*
X181345317Y-95668162D01*
X181561441Y-95529090D01*
X181607969Y-95460994D01*
X181750302Y-95603327D01*
X181983691Y-95700000D01*
X182076250Y-95700000D01*
X182235000Y-95541250D01*
X182235000Y-94742000D01*
X182485000Y-94742000D01*
X182485000Y-95541250D01*
X182643750Y-95700000D01*
X182736309Y-95700000D01*
X182969698Y-95603327D01*
X183148327Y-95424699D01*
X183245000Y-95191310D01*
X183245000Y-94900750D01*
X183086250Y-94742000D01*
X182485000Y-94742000D01*
X182235000Y-94742000D01*
X182213000Y-94742000D01*
X182213000Y-94488000D01*
X182235000Y-94488000D01*
X182235000Y-94468000D01*
X182485000Y-94468000D01*
X182485000Y-94488000D01*
X183086250Y-94488000D01*
X183245000Y-94329250D01*
X183245000Y-94038690D01*
X183148327Y-93805301D01*
X183037272Y-93694246D01*
X183244699Y-93608327D01*
X183423327Y-93429698D01*
X183520000Y-93196309D01*
X183520000Y-92825750D01*
X183361250Y-92667000D01*
X182687000Y-92667000D01*
X182687000Y-92687000D01*
X182433000Y-92687000D01*
X182433000Y-92667000D01*
X182413000Y-92667000D01*
X182413000Y-92413000D01*
X182433000Y-92413000D01*
X182433000Y-92393000D01*
X182687000Y-92393000D01*
X182687000Y-92413000D01*
X183361250Y-92413000D01*
X183520000Y-92254250D01*
X183520000Y-91883691D01*
X183423327Y-91650302D01*
X183244699Y-91471673D01*
X183170435Y-91440912D01*
X183336441Y-91334090D01*
X183481431Y-91121890D01*
X183532440Y-90870000D01*
X183532440Y-90237362D01*
X184407362Y-89362440D01*
X184515000Y-89362440D01*
X184750317Y-89318162D01*
X184966441Y-89179090D01*
X185071726Y-89025000D01*
X187231934Y-89025000D01*
X187327110Y-89090031D01*
X187368439Y-89098400D01*
X187350585Y-89110330D01*
X187025729Y-89596511D01*
X186911655Y-90170000D01*
X187025729Y-90743489D01*
X187350585Y-91229670D01*
X187665366Y-91440000D01*
X187350585Y-91650330D01*
X187025729Y-92136511D01*
X186911655Y-92710000D01*
X187025729Y-93283489D01*
X187350585Y-93769670D01*
X187836766Y-94094526D01*
X188410255Y-94208600D01*
X188779745Y-94208600D01*
X189353234Y-94094526D01*
X189839415Y-93769670D01*
X190164271Y-93283489D01*
X190278345Y-92710000D01*
X190164271Y-92136511D01*
X189839415Y-91650330D01*
X189524634Y-91440000D01*
X189839415Y-91229670D01*
X190164271Y-90743489D01*
X190278345Y-90170000D01*
X190164271Y-89596511D01*
X189839415Y-89110330D01*
X189825087Y-89100757D01*
X189846317Y-89096762D01*
X190062441Y-88957690D01*
X190207431Y-88745490D01*
X190258440Y-88493600D01*
X190258440Y-86766400D01*
X190214162Y-86531083D01*
X190075090Y-86314959D01*
X189862890Y-86169969D01*
X189611000Y-86118960D01*
X187579000Y-86118960D01*
X187343683Y-86163238D01*
X187127559Y-86302310D01*
X186982569Y-86514510D01*
X186931560Y-86766400D01*
X186931560Y-87505000D01*
X185070105Y-87505000D01*
X185025000Y-87434905D01*
X185025000Y-85467440D01*
X186245000Y-85467440D01*
X186480317Y-85423162D01*
X186696441Y-85284090D01*
X186841431Y-85071890D01*
X186892440Y-84820000D01*
X186892440Y-82820000D01*
X186848162Y-82584683D01*
X186709090Y-82368559D01*
X186496890Y-82223569D01*
X186245000Y-82172560D01*
X184245000Y-82172560D01*
X184009683Y-82216838D01*
X183793559Y-82355910D01*
X183648569Y-82568110D01*
X183597560Y-82820000D01*
X183597560Y-84457217D01*
X183562852Y-84509161D01*
X183505000Y-84800000D01*
X183505000Y-87403824D01*
X183479090Y-87363559D01*
X183266890Y-87218569D01*
X183015000Y-87167560D01*
X182515000Y-87167560D01*
X182279683Y-87211838D01*
X182063559Y-87350910D01*
X181958274Y-87505000D01*
X181260105Y-87505000D01*
X181169090Y-87363559D01*
X180956890Y-87218569D01*
X180705000Y-87167560D01*
X180205000Y-87167560D01*
X179969683Y-87211838D01*
X179753559Y-87350910D01*
X179715000Y-87407343D01*
X179715000Y-86442440D01*
X180245000Y-86442440D01*
X180480317Y-86398162D01*
X180696441Y-86259090D01*
X180841431Y-86046890D01*
X180892440Y-85795000D01*
X180892440Y-84195000D01*
X180848162Y-83959683D01*
X180757810Y-83819273D01*
X180841431Y-83696890D01*
X180892440Y-83445000D01*
X180892440Y-81845000D01*
X180848162Y-81609683D01*
X180709090Y-81393559D01*
X180496890Y-81248569D01*
X180245000Y-81197560D01*
X178245000Y-81197560D01*
X178009683Y-81241838D01*
X177793559Y-81380910D01*
X177648569Y-81593110D01*
X177597560Y-81845000D01*
X177597560Y-83445000D01*
X177641838Y-83680317D01*
X177732190Y-83820727D01*
X177648569Y-83943110D01*
X177647317Y-83949292D01*
X177540000Y-83927560D01*
X176790000Y-83927560D01*
X176554683Y-83971838D01*
X176338559Y-84110910D01*
X176193569Y-84323110D01*
X176142560Y-84575000D01*
X176142560Y-85375000D01*
X176186838Y-85610317D01*
X176260620Y-85724978D01*
X176210055Y-85798982D01*
X176002599Y-85937599D01*
X175880212Y-86059986D01*
X175709833Y-86059838D01*
X175366057Y-86201883D01*
X175102808Y-86464673D01*
X174960162Y-86808201D01*
X174959838Y-87180167D01*
X165182440Y-87180167D01*
X165182440Y-86170000D01*
X165138162Y-85934683D01*
X164999090Y-85718559D01*
X164786890Y-85573569D01*
X164535000Y-85522560D01*
X162935000Y-85522560D01*
X162699683Y-85566838D01*
X162565931Y-85652905D01*
X162544698Y-85631673D01*
X162311309Y-85535000D01*
X161670750Y-85535000D01*
X161512000Y-85693750D01*
X161258000Y-85693750D01*
X161099250Y-85535000D01*
X160458691Y-85535000D01*
X160225302Y-85631673D01*
X160046673Y-85810301D01*
X159950000Y-86043690D01*
X157601112Y-86043690D01*
X158391644Y-85253158D01*
X158720641Y-85318600D01*
X158779359Y-85318600D01*
X159352848Y-85204526D01*
X159839029Y-84879670D01*
X160020000Y-84608828D01*
X160200971Y-84879670D01*
X160687152Y-85204526D01*
X161260641Y-85318600D01*
X161319359Y-85318600D01*
X161892848Y-85204526D01*
X162379029Y-84879670D01*
X162703885Y-84393489D01*
X162817959Y-83820000D01*
X162703885Y-83246511D01*
X162379029Y-82760330D01*
X162064248Y-82550000D01*
X162379029Y-82339670D01*
X162703885Y-81853489D01*
X162817959Y-81280000D01*
X162703885Y-80706511D01*
X162379029Y-80220330D01*
X161892848Y-79895474D01*
X161319359Y-79781400D01*
X161260641Y-79781400D01*
X160687152Y-79895474D01*
X160221558Y-80206574D01*
X160216762Y-80181083D01*
X160077690Y-79964959D01*
X159865490Y-79819969D01*
X159613600Y-79768960D01*
X157886400Y-79768960D01*
X157651083Y-79813238D01*
X157434959Y-79952310D01*
X157289969Y-80164510D01*
X157238960Y-80416400D01*
X157238960Y-81330000D01*
X154682440Y-81330000D01*
X154682440Y-81090000D01*
X154638162Y-80854683D01*
X154499090Y-80638559D01*
X154286890Y-80493569D01*
X154035000Y-80442560D01*
X152035000Y-80442560D01*
X151799683Y-80486838D01*
X151583559Y-80625910D01*
X151438569Y-80838110D01*
X151387560Y-81090000D01*
X151387560Y-83090000D01*
X151431838Y-83325317D01*
X151570910Y-83541441D01*
X151783110Y-83686431D01*
X152035000Y-83737440D01*
X154035000Y-83737440D01*
X154270317Y-83693162D01*
X154486441Y-83554090D01*
X154631431Y-83341890D01*
X154682440Y-83090000D01*
X154682440Y-82850000D01*
X157601055Y-82850000D01*
X157336115Y-83246511D01*
X157222041Y-83820000D01*
X157297225Y-84197973D01*
X155207599Y-86287599D01*
X155092848Y-86459337D01*
X155010000Y-86442560D01*
X153410000Y-86442560D01*
X153174683Y-86486838D01*
X153034273Y-86577190D01*
X152911890Y-86493569D01*
X152660000Y-86442560D01*
X151060000Y-86442560D01*
X150824683Y-86486838D01*
X150608559Y-86625910D01*
X150463569Y-86838110D01*
X150412560Y-87090000D01*
X139196431Y-87090000D01*
X139135000Y-87077560D01*
X137535000Y-87077560D01*
X137299683Y-87121838D01*
X137159273Y-87212190D01*
X137036890Y-87128569D01*
X136785000Y-87077560D01*
X135185000Y-87077560D01*
X134949683Y-87121838D01*
X134733559Y-87260910D01*
X134588569Y-87473110D01*
X134537560Y-87725000D01*
X134537560Y-87965000D01*
X133525000Y-87965000D01*
X133282414Y-88013254D01*
X133277172Y-88014296D01*
X133290459Y-87947500D01*
X133176385Y-87374011D01*
X132851529Y-86887830D01*
X132365348Y-86562974D01*
X131795231Y-86449571D01*
X131982401Y-86262401D01*
X132147148Y-86015839D01*
X132201531Y-85742440D01*
X133075000Y-85742440D01*
X133310317Y-85698162D01*
X133526441Y-85559090D01*
X133581128Y-85479052D01*
X133615839Y-85472148D01*
X133641504Y-85454999D01*
X133940001Y-85454999D01*
X134230840Y-85397147D01*
X134477402Y-85232400D01*
X135632266Y-84077536D01*
X135695910Y-84176441D01*
X135908110Y-84321431D01*
X136160000Y-84372440D01*
X138160000Y-84372440D01*
X138395317Y-84328162D01*
X138611441Y-84189090D01*
X138756431Y-83976890D01*
X138807440Y-83725000D01*
X138807440Y-81725000D01*
X138763162Y-81489683D01*
X138624090Y-81273559D01*
X138411890Y-81128569D01*
X138160000Y-81077560D01*
X136160000Y-81077560D01*
X135924683Y-81121838D01*
X135708559Y-81260910D01*
X135563569Y-81473110D01*
X135512560Y-81725000D01*
X135512560Y-82094080D01*
X135372599Y-82187599D01*
X134745000Y-82815198D01*
X134745000Y-81915000D01*
X134725586Y-81817401D01*
X134687148Y-81624160D01*
X134522401Y-81377599D01*
X133252401Y-80107599D01*
X133005839Y-79942852D01*
X132715000Y-79885000D01*
X132466844Y-79885000D01*
X132424090Y-79818559D01*
X132211890Y-79673569D01*
X131960000Y-79622560D01*
X131160000Y-79622560D01*
X130924683Y-79666838D01*
X130810022Y-79740620D01*
X130711890Y-79673569D01*
X130460000Y-79622560D01*
X129660000Y-79622560D01*
X129424683Y-79666838D01*
X129208559Y-79805910D01*
X129063569Y-80018110D01*
X129012560Y-80270000D01*
X129012560Y-81020000D01*
X129056838Y-81255317D01*
X129195910Y-81471441D01*
X129408110Y-81616431D01*
X129585000Y-81652252D01*
X129585000Y-81940838D01*
X129579683Y-81941838D01*
X129363559Y-82080910D01*
X129218569Y-82293110D01*
X129198694Y-82391255D01*
X129184090Y-82368559D01*
X128971890Y-82223569D01*
X128720000Y-82172560D01*
X127905455Y-82172560D01*
X127934838Y-82101799D01*
X127935162Y-81729833D01*
X127793117Y-81386057D01*
X127530327Y-81122808D01*
X127186799Y-80980162D01*
X126814833Y-80979838D01*
X126471057Y-81121883D01*
X126207808Y-81384673D01*
X126065162Y-81728201D01*
X126064838Y-82100167D01*
X81990000Y-82100167D01*
X81990000Y-74370000D01*
X192330000Y-74370000D01*
X192330000Y-144070000D01*
X192330000Y-144070000D01*
G37*
X192330000Y-144070000D02*
X81990000Y-144070000D01*
X81990000Y-134158295D01*
X82067975Y-134274993D01*
X82455661Y-134534036D01*
X82912968Y-134625000D01*
X83857032Y-134625000D01*
X84314339Y-134534036D01*
X84382250Y-134488659D01*
X84470910Y-134626441D01*
X84683110Y-134771431D01*
X84935000Y-134822440D01*
X86335000Y-134822440D01*
X86570317Y-134778162D01*
X86786441Y-134639090D01*
X86931431Y-134426890D01*
X86982440Y-134175000D01*
X86982440Y-133985000D01*
X118966655Y-133985000D01*
X119080729Y-134558489D01*
X119405585Y-135044670D01*
X119720366Y-135255000D01*
X119405585Y-135465330D01*
X119080729Y-135951511D01*
X118966655Y-136525000D01*
X119080729Y-137098489D01*
X119405585Y-137584670D01*
X119891766Y-137909526D01*
X120465255Y-138023600D01*
X120834745Y-138023600D01*
X121408234Y-137909526D01*
X121894415Y-137584670D01*
X122094648Y-137285000D01*
X122904895Y-137285000D01*
X122995910Y-137426441D01*
X123208110Y-137571431D01*
X123460000Y-137622440D01*
X123960000Y-137622440D01*
X124195317Y-137578162D01*
X124411441Y-137439090D01*
X124459134Y-137369289D01*
X124495910Y-137426441D01*
X124708110Y-137571431D01*
X124960000Y-137622440D01*
X125460000Y-137622440D01*
X125695317Y-137578162D01*
X125911441Y-137439090D01*
X125989971Y-137324157D01*
X126022830Y-137375221D01*
X126235030Y-137520211D01*
X126486920Y-137571220D01*
X127284480Y-137571220D01*
X127519797Y-137526942D01*
X127634993Y-137452815D01*
X127733630Y-137520211D01*
X127985520Y-137571220D01*
X128783080Y-137571220D01*
X129018397Y-137526942D01*
X129234521Y-137387870D01*
X129379511Y-137175670D01*
X129430520Y-136923780D01*
X129430520Y-136126220D01*
X129386242Y-135890903D01*
X129247170Y-135674779D01*
X129144300Y-135604491D01*
X129144300Y-134905926D01*
X129234521Y-134847870D01*
X129379511Y-134635670D01*
X129430520Y-134383780D01*
X129430520Y-133985000D01*
X144366655Y-133985000D01*
X144480729Y-134558489D01*
X144805585Y-135044670D01*
X145120366Y-135255000D01*
X144805585Y-135465330D01*
X144480729Y-135951511D01*
X144366655Y-136525000D01*
X144480729Y-137098489D01*
X144805585Y-137584670D01*
X145291766Y-137909526D01*
X145865255Y-138023600D01*
X146234745Y-138023600D01*
X146808234Y-137909526D01*
X147294415Y-137584670D01*
X147619271Y-137098489D01*
X147733345Y-136525000D01*
X147619271Y-135951511D01*
X147294415Y-135465330D01*
X146979634Y-135255000D01*
X147294415Y-135044670D01*
X147619271Y-134558489D01*
X147733345Y-133985000D01*
X147619271Y-133411511D01*
X147334286Y-132985000D01*
X147752560Y-132985000D01*
X147752560Y-134985000D01*
X147796838Y-135220317D01*
X147935910Y-135436441D01*
X148148110Y-135581431D01*
X148400000Y-135632440D01*
X150400000Y-135632440D01*
X150635317Y-135588162D01*
X150851441Y-135449090D01*
X150996431Y-135236890D01*
X151047440Y-134985000D01*
X151047440Y-132985000D01*
X151003162Y-132749683D01*
X150864090Y-132533559D01*
X150651890Y-132388569D01*
X150400000Y-132337560D01*
X148400000Y-132337560D01*
X148164683Y-132381838D01*
X147948559Y-132520910D01*
X147803569Y-132733110D01*
X147752560Y-132985000D01*
X147334286Y-132985000D01*
X147294415Y-132925330D01*
X147280087Y-132915757D01*
X147301317Y-132911762D01*
X147517441Y-132772690D01*
X147662431Y-132560490D01*
X147713440Y-132308600D01*
X147713440Y-132010000D01*
X153752560Y-132010000D01*
X153752560Y-133610000D01*
X153796838Y-133845317D01*
X153887190Y-133985727D01*
X153803569Y-134108110D01*
X153752560Y-134360000D01*
X153752560Y-135960000D01*
X153796838Y-136195317D01*
X153935910Y-136411441D01*
X154148110Y-136556431D01*
X154400000Y-136607440D01*
X156400000Y-136607440D01*
X156635317Y-136563162D01*
X156851441Y-136424090D01*
X156996431Y-136211890D01*
X157047440Y-135960000D01*
X157047440Y-134360000D01*
X157003162Y-134124683D01*
X156913278Y-133985000D01*
X168496655Y-133985000D01*
X168610729Y-134558489D01*
X168935585Y-135044670D01*
X169250366Y-135255000D01*
X168935585Y-135465330D01*
X168610729Y-135951511D01*
X168496655Y-136525000D01*
X168610729Y-137098489D01*
X168935585Y-137584670D01*
X169421766Y-137909526D01*
X169995255Y-138023600D01*
X170364745Y-138023600D01*
X170938234Y-137909526D01*
X171424415Y-137584670D01*
X171749271Y-137098489D01*
X171863345Y-136525000D01*
X171749271Y-135951511D01*
X171424415Y-135465330D01*
X171109634Y-135255000D01*
X171424415Y-135044670D01*
X171749271Y-134558489D01*
X171863345Y-133985000D01*
X171749271Y-133411511D01*
X171464286Y-132985000D01*
X171882560Y-132985000D01*
X171882560Y-134985000D01*
X171926838Y-135220317D01*
X172065910Y-135436441D01*
X172278110Y-135581431D01*
X172530000Y-135632440D01*
X174530000Y-135632440D01*
X174765317Y-135588162D01*
X174981441Y-135449090D01*
X175126431Y-135236890D01*
X175177440Y-134985000D01*
X175177440Y-132985000D01*
X175133162Y-132749683D01*
X174994090Y-132533559D01*
X174781890Y-132388569D01*
X174530000Y-132337560D01*
X172530000Y-132337560D01*
X172294683Y-132381838D01*
X172078559Y-132520910D01*
X171933569Y-132733110D01*
X171882560Y-132985000D01*
X171464286Y-132985000D01*
X171424415Y-132925330D01*
X171410087Y-132915757D01*
X171431317Y-132911762D01*
X171647441Y-132772690D01*
X171792431Y-132560490D01*
X171843440Y-132308600D01*
X171843440Y-132010000D01*
X177882560Y-132010000D01*
X177882560Y-133610000D01*
X177926838Y-133845317D01*
X178017190Y-133985727D01*
X177933569Y-134108110D01*
X177882560Y-134360000D01*
X177882560Y-135960000D01*
X177926838Y-136195317D01*
X178065910Y-136411441D01*
X178278110Y-136556431D01*
X178530000Y-136607440D01*
X180530000Y-136607440D01*
X180765317Y-136563162D01*
X180981441Y-136424090D01*
X181126431Y-136211890D01*
X181177440Y-135960000D01*
X181177440Y-134360000D01*
X181133162Y-134124683D01*
X181042810Y-133984273D01*
X181126431Y-133861890D01*
X181177440Y-133610000D01*
X181177440Y-132010000D01*
X181133162Y-131774683D01*
X180994090Y-131558559D01*
X180781890Y-131413569D01*
X180530000Y-131362560D01*
X178530000Y-131362560D01*
X178294683Y-131406838D01*
X178078559Y-131545910D01*
X177933569Y-131758110D01*
X177882560Y-132010000D01*
X171843440Y-132010000D01*
X171843440Y-130581400D01*
X171799162Y-130346083D01*
X171660090Y-130129959D01*
X171447890Y-129984969D01*
X171196000Y-129933960D01*
X169164000Y-129933960D01*
X168928683Y-129978238D01*
X168712559Y-130117310D01*
X168567569Y-130329510D01*
X168516560Y-130581400D01*
X168516560Y-132308600D01*
X168560838Y-132543917D01*
X168699910Y-132760041D01*
X168912110Y-132905031D01*
X168953439Y-132913400D01*
X168935585Y-132925330D01*
X168610729Y-133411511D01*
X168496655Y-133985000D01*
X156913278Y-133985000D01*
X156912810Y-133984273D01*
X156996431Y-133861890D01*
X157047440Y-133610000D01*
X157047440Y-132010000D01*
X157003162Y-131774683D01*
X156864090Y-131558559D01*
X156651890Y-131413569D01*
X156400000Y-131362560D01*
X154400000Y-131362560D01*
X154164683Y-131406838D01*
X153948559Y-131545910D01*
X153803569Y-131758110D01*
X153752560Y-132010000D01*
X147713440Y-132010000D01*
X147713440Y-130581400D01*
X147669162Y-130346083D01*
X147530090Y-130129959D01*
X147317890Y-129984969D01*
X147066000Y-129933960D01*
X145034000Y-129933960D01*
X144798683Y-129978238D01*
X144582559Y-130117310D01*
X144437569Y-130329510D01*
X144386560Y-130581400D01*
X144386560Y-132308600D01*
X144430838Y-132543917D01*
X144569910Y-132760041D01*
X144782110Y-132905031D01*
X144823439Y-132913400D01*
X144805585Y-132925330D01*
X144480729Y-133411511D01*
X144366655Y-133985000D01*
X129430520Y-133985000D01*
X129430520Y-133586220D01*
X129409592Y-133475000D01*
X129612537Y-133475000D01*
X129644673Y-133507192D01*
X129988201Y-133649838D01*
X130360167Y-133650162D01*
X130703943Y-133508117D01*
X130967192Y-133245327D01*
X131109838Y-132901799D01*
X131110162Y-132529833D01*
X130968117Y-132186057D01*
X130705327Y-131922808D01*
X130361799Y-131780162D01*
X129989833Y-131779838D01*
X129646057Y-131921883D01*
X129612882Y-131955000D01*
X129407997Y-131955000D01*
X129430520Y-131843780D01*
X129430520Y-131046220D01*
X129386242Y-130810903D01*
X129247170Y-130594779D01*
X129034970Y-130449789D01*
X128783080Y-130398780D01*
X127985520Y-130398780D01*
X127750203Y-130443058D01*
X127635007Y-130517185D01*
X127536370Y-130449789D01*
X127284480Y-130398780D01*
X126486920Y-130398780D01*
X126251603Y-130443058D01*
X126035479Y-130582130D01*
X125990896Y-130647379D01*
X125924090Y-130543559D01*
X125711890Y-130398569D01*
X125460000Y-130347560D01*
X124960000Y-130347560D01*
X124724683Y-130391838D01*
X124508559Y-130530910D01*
X124460866Y-130600711D01*
X124424090Y-130543559D01*
X124211890Y-130398569D01*
X123960000Y-130347560D01*
X123460000Y-130347560D01*
X123224683Y-130391838D01*
X123008559Y-130530910D01*
X122903274Y-130685000D01*
X122313440Y-130685000D01*
X122313440Y-130581400D01*
X122269162Y-130346083D01*
X122130090Y-130129959D01*
X121917890Y-129984969D01*
X121666000Y-129933960D01*
X119634000Y-129933960D01*
X119398683Y-129978238D01*
X119182559Y-130117310D01*
X119037569Y-130329510D01*
X118986560Y-130581400D01*
X118986560Y-132308600D01*
X119030838Y-132543917D01*
X119169910Y-132760041D01*
X119382110Y-132905031D01*
X119423439Y-132913400D01*
X119405585Y-132925330D01*
X119080729Y-133411511D01*
X118966655Y-133985000D01*
X86982440Y-133985000D01*
X86982440Y-132575000D01*
X86938162Y-132339683D01*
X86870800Y-132235000D01*
X87451910Y-132235000D01*
X87330162Y-132528201D01*
X87329838Y-132900167D01*
X87471883Y-133243943D01*
X87734673Y-133507192D01*
X88078201Y-133649838D01*
X88450167Y-133650162D01*
X88793943Y-133508117D01*
X89057192Y-133245327D01*
X89199838Y-132901799D01*
X89200162Y-132529833D01*
X89058117Y-132186057D01*
X89025000Y-132152882D01*
X89025000Y-131831844D01*
X89091441Y-131789090D01*
X89162563Y-131685000D01*
X89272069Y-131685000D01*
X89330910Y-131776441D01*
X89410000Y-131830481D01*
X89410000Y-132152537D01*
X89377808Y-132184673D01*
X89235162Y-132528201D01*
X89234838Y-132900167D01*
X89376883Y-133243943D01*
X89639673Y-133507192D01*
X89983201Y-133649838D01*
X90355167Y-133650162D01*
X90698943Y-133508117D01*
X90962192Y-133245327D01*
X91104838Y-132901799D01*
X91105162Y-132529833D01*
X90963117Y-132186057D01*
X90930000Y-132152882D01*
X90930000Y-131831844D01*
X90996441Y-131789090D01*
X91141431Y-131576890D01*
X91192440Y-131325000D01*
X91192440Y-130525000D01*
X91148162Y-130289683D01*
X91081671Y-130186354D01*
X91083327Y-130184698D01*
X91180000Y-129951309D01*
X91180000Y-129710750D01*
X91021250Y-129552000D01*
X90297000Y-129552000D01*
X90297000Y-129572000D01*
X90043000Y-129572000D01*
X90043000Y-129552000D01*
X89318750Y-129552000D01*
X89217500Y-129653250D01*
X89116250Y-129552000D01*
X88392000Y-129552000D01*
X88392000Y-129572000D01*
X88138000Y-129572000D01*
X88138000Y-129552000D01*
X87413750Y-129552000D01*
X87255000Y-129710750D01*
X87255000Y-129951309D01*
X87351673Y-130184698D01*
X87353043Y-130186068D01*
X87293569Y-130273110D01*
X87242560Y-130525000D01*
X87242560Y-130715000D01*
X87182440Y-130715000D01*
X87182440Y-130625000D01*
X87158056Y-130495411D01*
X87182440Y-130375000D01*
X87182440Y-129975000D01*
X87158056Y-129845411D01*
X87182440Y-129725000D01*
X87182440Y-129325000D01*
X87162550Y-129219295D01*
X87170000Y-129201309D01*
X87170000Y-129133750D01*
X87140996Y-129104746D01*
X87138162Y-129089683D01*
X87015263Y-128898691D01*
X87255000Y-128898691D01*
X87255000Y-129139250D01*
X87413750Y-129298000D01*
X88138000Y-129298000D01*
X88138000Y-128548750D01*
X88392000Y-128548750D01*
X88392000Y-129298000D01*
X89116250Y-129298000D01*
X89217500Y-129196750D01*
X89318750Y-129298000D01*
X90043000Y-129298000D01*
X90043000Y-128548750D01*
X90297000Y-128548750D01*
X90297000Y-129298000D01*
X91021250Y-129298000D01*
X91180000Y-129139250D01*
X91180000Y-128898691D01*
X91083327Y-128665302D01*
X90904699Y-128486673D01*
X90671310Y-128390000D01*
X90455750Y-128390000D01*
X90297000Y-128548750D01*
X90043000Y-128548750D01*
X89884250Y-128390000D01*
X89668690Y-128390000D01*
X89435301Y-128486673D01*
X89256673Y-128665302D01*
X89217500Y-128759874D01*
X89178327Y-128665302D01*
X88999699Y-128486673D01*
X88766310Y-128390000D01*
X88550750Y-128390000D01*
X88392000Y-128548750D01*
X88138000Y-128548750D01*
X87979250Y-128390000D01*
X87763690Y-128390000D01*
X87530301Y-128486673D01*
X87351673Y-128665302D01*
X87255000Y-128898691D01*
X87015263Y-128898691D01*
X86999090Y-128873559D01*
X86854844Y-128775000D01*
X87011250Y-128775000D01*
X87170000Y-128616250D01*
X87170000Y-128548691D01*
X87073327Y-128315302D01*
X86894699Y-128136673D01*
X86864864Y-128124315D01*
X86931431Y-128026890D01*
X86982440Y-127775000D01*
X86982440Y-126175000D01*
X86938162Y-125939683D01*
X86799090Y-125723559D01*
X86586890Y-125578569D01*
X86335000Y-125527560D01*
X84935000Y-125527560D01*
X84699683Y-125571838D01*
X84483559Y-125710910D01*
X84381237Y-125860664D01*
X84314339Y-125815964D01*
X83857032Y-125725000D01*
X82912968Y-125725000D01*
X82455661Y-125815964D01*
X82067975Y-126075007D01*
X81990000Y-126191705D01*
X81990000Y-106248591D01*
X89204999Y-106248591D01*
X89204999Y-111760001D01*
X89262851Y-112050840D01*
X89427598Y-112297402D01*
X89492598Y-112362402D01*
X89739160Y-112527149D01*
X90029999Y-112585001D01*
X91350001Y-112585001D01*
X91640840Y-112527149D01*
X91887402Y-112362402D01*
X91952402Y-112297402D01*
X92052603Y-112147440D01*
X92590000Y-112147440D01*
X92825317Y-112103162D01*
X93041441Y-111964090D01*
X93095481Y-111885000D01*
X93855000Y-111885000D01*
X93855000Y-112109895D01*
X93713559Y-112200910D01*
X93568569Y-112413110D01*
X93517560Y-112665000D01*
X93517560Y-113165000D01*
X93561838Y-113400317D01*
X93700910Y-113616441D01*
X93770711Y-113664134D01*
X93713559Y-113700910D01*
X93568569Y-113913110D01*
X93517560Y-114165000D01*
X93517560Y-114665000D01*
X93561838Y-114900317D01*
X93700910Y-115116441D01*
X93913110Y-115261431D01*
X94165000Y-115312440D01*
X95065000Y-115312440D01*
X95300317Y-115268162D01*
X95445095Y-115175000D01*
X95607494Y-115175000D01*
X95726883Y-115463943D01*
X95989673Y-115727192D01*
X96333201Y-115869838D01*
X96610119Y-115870079D01*
X93617599Y-118862599D01*
X93524080Y-119002560D01*
X93155000Y-119002560D01*
X92919683Y-119046838D01*
X92703559Y-119185910D01*
X92558569Y-119398110D01*
X92507560Y-119650000D01*
X92507560Y-121650000D01*
X92551838Y-121885317D01*
X92690910Y-122101441D01*
X92903110Y-122246431D01*
X93155000Y-122297440D01*
X95155000Y-122297440D01*
X95390317Y-122253162D01*
X95606441Y-122114090D01*
X95751431Y-121901890D01*
X95802440Y-121650000D01*
X95802440Y-119650000D01*
X95758162Y-119414683D01*
X95619090Y-119198559D01*
X95507494Y-119122308D01*
X96253403Y-118376399D01*
X96361883Y-118638943D01*
X96624673Y-118902192D01*
X96968201Y-119044838D01*
X97015077Y-119044879D01*
X97982599Y-120012401D01*
X98229161Y-120177148D01*
X98507560Y-120232526D01*
X98507560Y-120275000D01*
X98551838Y-120510317D01*
X98642190Y-120650727D01*
X98558569Y-120773110D01*
X98507560Y-121025000D01*
X98507560Y-122625000D01*
X98551838Y-122860317D01*
X98690910Y-123076441D01*
X98903110Y-123221431D01*
X99155000Y-123272440D01*
X101155000Y-123272440D01*
X101390317Y-123228162D01*
X101606441Y-123089090D01*
X101751431Y-122876890D01*
X101802440Y-122625000D01*
X101802440Y-121025000D01*
X101758162Y-120789683D01*
X101667810Y-120649273D01*
X101751431Y-120526890D01*
X101802440Y-120275000D01*
X101802440Y-118675000D01*
X101758162Y-118439683D01*
X101619090Y-118223559D01*
X101406890Y-118078569D01*
X101155000Y-118027560D01*
X99155000Y-118027560D01*
X98919683Y-118071838D01*
X98703559Y-118210910D01*
X98558569Y-118423110D01*
X98555932Y-118436130D01*
X98090122Y-117970320D01*
X98090162Y-117924833D01*
X97948117Y-117581057D01*
X97685327Y-117317808D01*
X97421532Y-117208270D01*
X97978804Y-116650998D01*
X98060000Y-116667440D01*
X98560000Y-116667440D01*
X98795317Y-116623162D01*
X99011441Y-116484090D01*
X99059134Y-116414289D01*
X99095910Y-116471441D01*
X99308110Y-116616431D01*
X99560000Y-116667440D01*
X100060000Y-116667440D01*
X100295317Y-116623162D01*
X100511441Y-116484090D01*
X100656431Y-116271890D01*
X100707440Y-116020000D01*
X100707440Y-115120000D01*
X100663162Y-114884683D01*
X100524090Y-114668559D01*
X100311890Y-114523569D01*
X100060000Y-114472560D01*
X99820000Y-114472560D01*
X99820000Y-114316233D01*
X99911491Y-114257360D01*
X100056481Y-114045160D01*
X100107490Y-113793270D01*
X100107490Y-112993170D01*
X100063212Y-112757853D01*
X99924140Y-112541729D01*
X99777787Y-112441730D01*
X100410050Y-112441730D01*
X100645367Y-112397452D01*
X100861491Y-112258380D01*
X101006481Y-112046180D01*
X101045195Y-111855000D01*
X113582560Y-111855000D01*
X113582560Y-113855000D01*
X113626838Y-114090317D01*
X113765910Y-114306441D01*
X113978110Y-114451431D01*
X114230000Y-114502440D01*
X114291371Y-114502440D01*
X114327852Y-114685839D01*
X114492599Y-114932401D01*
X115936839Y-116376641D01*
X116183401Y-116541388D01*
X116202162Y-116545120D01*
X116295860Y-116690731D01*
X116508060Y-116835721D01*
X116759950Y-116886730D01*
X117394255Y-116886730D01*
X117258509Y-116974080D01*
X117113519Y-117186280D01*
X117062510Y-117438170D01*
X117062510Y-118238270D01*
X117106788Y-118473587D01*
X117245860Y-118689711D01*
X117458060Y-118834701D01*
X117709950Y-118885710D01*
X117985000Y-118885710D01*
X117985000Y-119094895D01*
X117843559Y-119185910D01*
X117698569Y-119398110D01*
X117647560Y-119650000D01*
X117647560Y-120150000D01*
X117691838Y-120385317D01*
X117830910Y-120601441D01*
X117900711Y-120649134D01*
X117843559Y-120685910D01*
X117698569Y-120898110D01*
X117647560Y-121150000D01*
X117647560Y-121650000D01*
X117691838Y-121885317D01*
X117830910Y-122101441D01*
X118043110Y-122246431D01*
X118295000Y-122297440D01*
X119195000Y-122297440D01*
X119430317Y-122253162D01*
X119575095Y-122160000D01*
X120087537Y-122160000D01*
X120119673Y-122192192D01*
X120463201Y-122334838D01*
X120835167Y-122335162D01*
X121178943Y-122193117D01*
X121212118Y-122160000D01*
X121726614Y-122160000D01*
X121853110Y-122246431D01*
X122105000Y-122297440D01*
X123005000Y-122297440D01*
X123240317Y-122253162D01*
X123456441Y-122114090D01*
X123601431Y-121901890D01*
X123652440Y-121650000D01*
X123652440Y-121150000D01*
X123608162Y-120914683D01*
X123469090Y-120698559D01*
X123399289Y-120650866D01*
X123456441Y-120614090D01*
X123601431Y-120401890D01*
X123652440Y-120150000D01*
X123652440Y-119650000D01*
X123608162Y-119414683D01*
X123469090Y-119198559D01*
X123315000Y-119093274D01*
X123315000Y-118885710D01*
X123590050Y-118885710D01*
X123825367Y-118841432D01*
X124041491Y-118702360D01*
X124186481Y-118490160D01*
X124237490Y-118238270D01*
X124237490Y-117438170D01*
X124193212Y-117202853D01*
X124054140Y-116986729D01*
X123907787Y-116886730D01*
X124540050Y-116886730D01*
X124775367Y-116842452D01*
X124991491Y-116703380D01*
X125136481Y-116491180D01*
X125187490Y-116239290D01*
X125187490Y-115665000D01*
X140252560Y-115665000D01*
X140252560Y-117665000D01*
X140296838Y-117900317D01*
X140435910Y-118116441D01*
X140648110Y-118261431D01*
X140900000Y-118312440D01*
X142500000Y-118312440D01*
X142735317Y-118268162D01*
X142875727Y-118177810D01*
X142998110Y-118261431D01*
X143250000Y-118312440D01*
X144850000Y-118312440D01*
X145085317Y-118268162D01*
X145301441Y-118129090D01*
X145446431Y-117916890D01*
X145497440Y-117665000D01*
X145497440Y-116092362D01*
X145579802Y-116010000D01*
X146485331Y-116010000D01*
X146495910Y-116026441D01*
X146708110Y-116171431D01*
X146730000Y-116175864D01*
X146730000Y-117125000D01*
X146787852Y-117415839D01*
X146942560Y-117647377D01*
X146942560Y-117925000D01*
X146986838Y-118160317D01*
X147125910Y-118376441D01*
X147338110Y-118521431D01*
X147590000Y-118572440D01*
X148090000Y-118572440D01*
X148325317Y-118528162D01*
X148541441Y-118389090D01*
X148589134Y-118319289D01*
X148625910Y-118376441D01*
X148838110Y-118521431D01*
X149090000Y-118572440D01*
X149590000Y-118572440D01*
X149825317Y-118528162D01*
X150041441Y-118389090D01*
X150186431Y-118176890D01*
X150237440Y-117925000D01*
X150237440Y-117025000D01*
X150193162Y-116789683D01*
X150054090Y-116573559D01*
X149841890Y-116428569D01*
X149594999Y-116378572D01*
X149594999Y-116222440D01*
X150220000Y-116222440D01*
X150455317Y-116178162D01*
X150671441Y-116039090D01*
X150691317Y-116010000D01*
X151565000Y-116010000D01*
X151855839Y-115952148D01*
X151862885Y-115947440D01*
X152215000Y-115947440D01*
X152450317Y-115903162D01*
X152666441Y-115764090D01*
X152811431Y-115551890D01*
X152862440Y-115300000D01*
X152862440Y-114800000D01*
X152818162Y-114564683D01*
X152679090Y-114348559D01*
X152609289Y-114300866D01*
X152630932Y-114286940D01*
X152805839Y-114252148D01*
X153052401Y-114087401D01*
X153174680Y-113965122D01*
X153220167Y-113965162D01*
X153563943Y-113823117D01*
X153827192Y-113560327D01*
X153969838Y-113216799D01*
X153970162Y-112844833D01*
X153828117Y-112501057D01*
X153565327Y-112237808D01*
X153221799Y-112095162D01*
X152849833Y-112094838D01*
X152506057Y-112236883D01*
X152242808Y-112499673D01*
X152179323Y-112652560D01*
X151315000Y-112652560D01*
X151079683Y-112696838D01*
X150863559Y-112835910D01*
X150842041Y-112867403D01*
X150758327Y-112665301D01*
X150579698Y-112486673D01*
X150346309Y-112390000D01*
X149975750Y-112390000D01*
X149817000Y-112548750D01*
X149817000Y-113223000D01*
X149837000Y-113223000D01*
X149837000Y-113477000D01*
X149817000Y-113477000D01*
X149817000Y-113497000D01*
X149594999Y-113497000D01*
X149594999Y-111395000D01*
X165907560Y-111395000D01*
X165907560Y-111895000D01*
X165951838Y-112130317D01*
X166090910Y-112346441D01*
X166160711Y-112394134D01*
X166103559Y-112430910D01*
X165958569Y-112643110D01*
X165907560Y-112895000D01*
X165907560Y-113395000D01*
X165951838Y-113630317D01*
X166090910Y-113846441D01*
X166303110Y-113991431D01*
X166555000Y-114042440D01*
X167455000Y-114042440D01*
X167690317Y-113998162D01*
X167906441Y-113859090D01*
X168051431Y-113646890D01*
X168102440Y-113395000D01*
X168102440Y-113322362D01*
X168242401Y-113182401D01*
X168358492Y-113008659D01*
X168550000Y-113047440D01*
X169305000Y-113047440D01*
X169305000Y-114106614D01*
X169218569Y-114233110D01*
X169167560Y-114485000D01*
X169167560Y-115385000D01*
X169211838Y-115620317D01*
X169350910Y-115836441D01*
X169563110Y-115981431D01*
X169815000Y-116032440D01*
X170315000Y-116032440D01*
X170550317Y-115988162D01*
X170766441Y-115849090D01*
X170814134Y-115779289D01*
X170850910Y-115836441D01*
X171063110Y-115981431D01*
X171315000Y-116032440D01*
X171815000Y-116032440D01*
X172050317Y-115988162D01*
X172266441Y-115849090D01*
X172371726Y-115695000D01*
X173069895Y-115695000D01*
X173160910Y-115836441D01*
X173373110Y-115981431D01*
X173625000Y-116032440D01*
X174125000Y-116032440D01*
X174360317Y-115988162D01*
X174576441Y-115849090D01*
X174624134Y-115779289D01*
X174660910Y-115836441D01*
X174873110Y-115981431D01*
X175125000Y-116032440D01*
X175625000Y-116032440D01*
X175860317Y-115988162D01*
X176076441Y-115849090D01*
X176181726Y-115695000D01*
X177145738Y-115695000D01*
X177345971Y-115994670D01*
X177832152Y-116319526D01*
X178405641Y-116433600D01*
X178464359Y-116433600D01*
X179037848Y-116319526D01*
X179524029Y-115994670D01*
X179705000Y-115723828D01*
X179885971Y-115994670D01*
X180372152Y-116319526D01*
X180945641Y-116433600D01*
X181004359Y-116433600D01*
X181577848Y-116319526D01*
X182064029Y-115994670D01*
X182388885Y-115508489D01*
X182502959Y-114935000D01*
X182388885Y-114361511D01*
X182064029Y-113875330D01*
X181749248Y-113665000D01*
X182064029Y-113454670D01*
X182388885Y-112968489D01*
X182502959Y-112395000D01*
X182388885Y-111821511D01*
X182064029Y-111335330D01*
X181577848Y-111010474D01*
X181004359Y-110896400D01*
X180945641Y-110896400D01*
X180372152Y-111010474D01*
X179906558Y-111321574D01*
X179901762Y-111296083D01*
X179762690Y-111079959D01*
X179550490Y-110934969D01*
X179298600Y-110883960D01*
X177571400Y-110883960D01*
X177336083Y-110928238D01*
X177119959Y-111067310D01*
X176974969Y-111279510D01*
X176923960Y-111531400D01*
X176923960Y-111635000D01*
X176180105Y-111635000D01*
X176089090Y-111493559D01*
X175876890Y-111348569D01*
X175625000Y-111297560D01*
X175125000Y-111297560D01*
X174889683Y-111341838D01*
X174673559Y-111480910D01*
X174625866Y-111550711D01*
X174589090Y-111493559D01*
X174376890Y-111348569D01*
X174125000Y-111297560D01*
X173625000Y-111297560D01*
X173389683Y-111341838D01*
X173173559Y-111480910D01*
X173028569Y-111693110D01*
X172977560Y-111945000D01*
X172977560Y-112845000D01*
X173021838Y-113080317D01*
X173115000Y-113225095D01*
X173115000Y-114106614D01*
X173068274Y-114175000D01*
X172370105Y-114175000D01*
X172325000Y-114104905D01*
X172325000Y-112771068D01*
X172406431Y-112651890D01*
X172457440Y-112400000D01*
X172457440Y-111750000D01*
X172413162Y-111514683D01*
X172274090Y-111298559D01*
X172061890Y-111153569D01*
X171947435Y-111130391D01*
X172169698Y-111038327D01*
X172348327Y-110859699D01*
X172445000Y-110626310D01*
X172445000Y-110460750D01*
X172286250Y-110302000D01*
X171407000Y-110302000D01*
X171407000Y-110322000D01*
X171153000Y-110322000D01*
X171153000Y-110302000D01*
X171133000Y-110302000D01*
X171133000Y-110048000D01*
X171153000Y-110048000D01*
X171153000Y-109373750D01*
X171407000Y-109373750D01*
X171407000Y-110048000D01*
X172286250Y-110048000D01*
X172445000Y-109889250D01*
X172445000Y-109723690D01*
X172348327Y-109490301D01*
X172169698Y-109311673D01*
X171936309Y-109215000D01*
X171565750Y-109215000D01*
X171407000Y-109373750D01*
X171153000Y-109373750D01*
X170994250Y-109215000D01*
X170623691Y-109215000D01*
X170390302Y-109311673D01*
X170211673Y-109490301D01*
X170204147Y-109508471D01*
X170150839Y-109472852D01*
X170117648Y-109466250D01*
X170074090Y-109398559D01*
X169861890Y-109253569D01*
X169610000Y-109202560D01*
X168550000Y-109202560D01*
X168314683Y-109246838D01*
X168098559Y-109385910D01*
X167953569Y-109598110D01*
X167951759Y-109607050D01*
X167826799Y-109555162D01*
X167454833Y-109554838D01*
X167111057Y-109696883D01*
X166847808Y-109959673D01*
X166705162Y-110303201D01*
X166705121Y-110350077D01*
X166467599Y-110587599D01*
X166332778Y-110789374D01*
X166319683Y-110791838D01*
X166103559Y-110930910D01*
X165958569Y-111143110D01*
X165907560Y-111395000D01*
X149594999Y-111395000D01*
X149594999Y-111194803D01*
X149974545Y-110815257D01*
X150040971Y-110914670D01*
X150527152Y-111239526D01*
X151100641Y-111353600D01*
X151159359Y-111353600D01*
X151732848Y-111239526D01*
X152198442Y-110928426D01*
X152203238Y-110953917D01*
X152342310Y-111170041D01*
X152554510Y-111315031D01*
X152806400Y-111366040D01*
X154533600Y-111366040D01*
X154768917Y-111321762D01*
X154985041Y-111182690D01*
X155130031Y-110970490D01*
X155181040Y-110718600D01*
X155181040Y-108991400D01*
X155136762Y-108756083D01*
X154997690Y-108539959D01*
X154785490Y-108394969D01*
X154741869Y-108386136D01*
X154759029Y-108374670D01*
X155083885Y-107888489D01*
X155197959Y-107315000D01*
X155083885Y-106741511D01*
X154759029Y-106255330D01*
X154272848Y-105930474D01*
X153699359Y-105816400D01*
X153640641Y-105816400D01*
X153067152Y-105930474D01*
X152580971Y-106255330D01*
X152400000Y-106526172D01*
X152219029Y-106255330D01*
X151732848Y-105930474D01*
X151159359Y-105816400D01*
X151100641Y-105816400D01*
X150527152Y-105930474D01*
X150040971Y-106255330D01*
X149716115Y-106741511D01*
X149602041Y-107315000D01*
X149677225Y-107692973D01*
X146952599Y-110417599D01*
X146787852Y-110664161D01*
X146732456Y-110942654D01*
X145917401Y-110127599D01*
X145670839Y-109962852D01*
X145380000Y-109905000D01*
X144522440Y-109905000D01*
X144522440Y-109665000D01*
X144478162Y-109429683D01*
X144339090Y-109213559D01*
X144126890Y-109068569D01*
X143875000Y-109017560D01*
X141875000Y-109017560D01*
X141639683Y-109061838D01*
X141423559Y-109200910D01*
X141278569Y-109413110D01*
X141227560Y-109665000D01*
X141227560Y-111665000D01*
X141271838Y-111900317D01*
X141410910Y-112116441D01*
X141623110Y-112261431D01*
X141875000Y-112312440D01*
X143875000Y-112312440D01*
X144110317Y-112268162D01*
X144326441Y-112129090D01*
X144471431Y-111916890D01*
X144522440Y-111665000D01*
X144522440Y-111425000D01*
X145065198Y-111425000D01*
X146383759Y-112743561D01*
X146363569Y-112773110D01*
X146312560Y-113025000D01*
X146312560Y-113540000D01*
X145729802Y-113540000D01*
X145715122Y-113525320D01*
X145715162Y-113479833D01*
X145573117Y-113136057D01*
X145310327Y-112872808D01*
X144966799Y-112730162D01*
X144594833Y-112729838D01*
X144251057Y-112871883D01*
X143987808Y-113134673D01*
X143845162Y-113478201D01*
X143844838Y-113850167D01*
X143986883Y-114193943D01*
X144249673Y-114457192D01*
X144593201Y-114599838D01*
X144640077Y-114599879D01*
X144742704Y-114702506D01*
X144727599Y-114712599D01*
X144422638Y-115017560D01*
X143250000Y-115017560D01*
X143014683Y-115061838D01*
X142874273Y-115152190D01*
X142751890Y-115068569D01*
X142500000Y-115017560D01*
X140900000Y-115017560D01*
X140664683Y-115061838D01*
X140448559Y-115200910D01*
X140303569Y-115413110D01*
X140252560Y-115665000D01*
X125187490Y-115665000D01*
X125187490Y-115439190D01*
X125143212Y-115203873D01*
X125004140Y-114987749D01*
X124900000Y-114916593D01*
X124900000Y-114615000D01*
X124842148Y-114324161D01*
X124677401Y-114077599D01*
X123950000Y-113350198D01*
X123950000Y-113039520D01*
X124279029Y-112819670D01*
X124460000Y-112548828D01*
X124640971Y-112819670D01*
X125127152Y-113144526D01*
X125700641Y-113258600D01*
X125759359Y-113258600D01*
X126332848Y-113144526D01*
X126819029Y-112819670D01*
X127143885Y-112333489D01*
X127257959Y-111760000D01*
X127143885Y-111186511D01*
X126819029Y-110700330D01*
X126495772Y-110484336D01*
X126618490Y-110426821D01*
X127012688Y-109994947D01*
X127184958Y-109579026D01*
X127063817Y-109347000D01*
X125857000Y-109347000D01*
X125857000Y-109367000D01*
X125603000Y-109367000D01*
X125603000Y-109347000D01*
X123317000Y-109347000D01*
X123317000Y-109367000D01*
X123063000Y-109367000D01*
X123063000Y-109347000D01*
X121850150Y-109347000D01*
X121691400Y-109505750D01*
X121691400Y-110209910D01*
X121788073Y-110443299D01*
X121966702Y-110621927D01*
X122122023Y-110686263D01*
X122100971Y-110700330D01*
X121776115Y-111186511D01*
X121662041Y-111760000D01*
X121776115Y-112333489D01*
X122100971Y-112819670D01*
X122430000Y-113039520D01*
X122430000Y-113665000D01*
X122487852Y-113955839D01*
X122652599Y-114202401D01*
X123371740Y-114921542D01*
X123288509Y-114975100D01*
X123189368Y-115120197D01*
X123104140Y-114987749D01*
X122891940Y-114842759D01*
X122640050Y-114791750D01*
X121839950Y-114791750D01*
X121604633Y-114836028D01*
X121388509Y-114975100D01*
X121317353Y-115079240D01*
X119983013Y-115079240D01*
X119924140Y-114987749D01*
X119735976Y-114859182D01*
X119597401Y-114651789D01*
X119343211Y-114397599D01*
X119096649Y-114232852D01*
X118805810Y-114175000D01*
X118729893Y-114175000D01*
X118776431Y-114106890D01*
X118827440Y-113855000D01*
X118827440Y-111855000D01*
X118783162Y-111619683D01*
X118644090Y-111403559D01*
X118431890Y-111258569D01*
X118180000Y-111207560D01*
X116580000Y-111207560D01*
X116344683Y-111251838D01*
X116204273Y-111342190D01*
X116081890Y-111258569D01*
X115830000Y-111207560D01*
X114230000Y-111207560D01*
X113994683Y-111251838D01*
X113778559Y-111390910D01*
X113633569Y-111603110D01*
X113582560Y-111855000D01*
X101045195Y-111855000D01*
X101057490Y-111794290D01*
X101057490Y-110994190D01*
X101013212Y-110758873D01*
X100874140Y-110542749D01*
X100770000Y-110471593D01*
X100770000Y-109980914D01*
X100932401Y-109872401D01*
X101097148Y-109625839D01*
X101155000Y-109335000D01*
X101097148Y-109044161D01*
X100932401Y-108797599D01*
X100685839Y-108632852D01*
X100576111Y-108611026D01*
X100540994Y-108587031D01*
X100683327Y-108444698D01*
X100780000Y-108211309D01*
X100780000Y-108118750D01*
X100621250Y-107960000D01*
X99822000Y-107960000D01*
X99822000Y-107982000D01*
X99568000Y-107982000D01*
X99568000Y-107960000D01*
X98768750Y-107960000D01*
X98610000Y-108118750D01*
X98610000Y-108211309D01*
X98706673Y-108444698D01*
X98836974Y-108575000D01*
X92619998Y-108575000D01*
X92329159Y-108632852D01*
X92082597Y-108797599D01*
X91450000Y-109430196D01*
X91450000Y-108093691D01*
X93530000Y-108093691D01*
X93530000Y-108186250D01*
X93688750Y-108345000D01*
X94488000Y-108345000D01*
X94488000Y-107743750D01*
X94742000Y-107743750D01*
X94742000Y-108345000D01*
X95541250Y-108345000D01*
X95700000Y-108186250D01*
X95700000Y-108093691D01*
X95603327Y-107860302D01*
X95424699Y-107681673D01*
X95191310Y-107585000D01*
X94900750Y-107585000D01*
X94742000Y-107743750D01*
X94488000Y-107743750D01*
X94329250Y-107585000D01*
X94038690Y-107585000D01*
X93805301Y-107681673D01*
X93626673Y-107860302D01*
X93530000Y-108093691D01*
X91450000Y-108093691D01*
X91450000Y-107458691D01*
X98610000Y-107458691D01*
X98610000Y-107551250D01*
X98768750Y-107710000D01*
X99568000Y-107710000D01*
X99568000Y-107108750D01*
X99822000Y-107108750D01*
X99822000Y-107710000D01*
X100621250Y-107710000D01*
X100780000Y-107551250D01*
X100780000Y-107458691D01*
X100683327Y-107225302D01*
X100598776Y-107140750D01*
X114570000Y-107140750D01*
X114570000Y-107981310D01*
X114666673Y-108214699D01*
X114845302Y-108393327D01*
X115078691Y-108490000D01*
X115919250Y-108490000D01*
X116078000Y-108331250D01*
X116078000Y-106982000D01*
X116332000Y-106982000D01*
X116332000Y-108331250D01*
X116490750Y-108490000D01*
X117331309Y-108490000D01*
X117564698Y-108393327D01*
X117727935Y-108230090D01*
X121691400Y-108230090D01*
X121691400Y-108934250D01*
X121850150Y-109093000D01*
X123063000Y-109093000D01*
X123063000Y-107880150D01*
X123317000Y-107880150D01*
X123317000Y-109093000D01*
X125603000Y-109093000D01*
X125603000Y-107885531D01*
X125857000Y-107885531D01*
X125857000Y-109093000D01*
X127063817Y-109093000D01*
X127184958Y-108860974D01*
X127012688Y-108445053D01*
X126618490Y-108013179D01*
X126089027Y-107765032D01*
X125857000Y-107885531D01*
X125603000Y-107885531D01*
X125370973Y-107765032D01*
X124841510Y-108013179D01*
X124674529Y-108196119D01*
X124591927Y-107996701D01*
X124413298Y-107818073D01*
X124179909Y-107721400D01*
X123475750Y-107721400D01*
X123317000Y-107880150D01*
X123063000Y-107880150D01*
X122904250Y-107721400D01*
X122200091Y-107721400D01*
X121966702Y-107818073D01*
X121788073Y-107996701D01*
X121691400Y-108230090D01*
X117727935Y-108230090D01*
X117743327Y-108214699D01*
X117840000Y-107981310D01*
X117840000Y-107140750D01*
X117681250Y-106982000D01*
X116332000Y-106982000D01*
X116078000Y-106982000D01*
X114728750Y-106982000D01*
X114570000Y-107140750D01*
X100598776Y-107140750D01*
X100504699Y-107046673D01*
X100271310Y-106950000D01*
X99980750Y-106950000D01*
X99822000Y-107108750D01*
X99568000Y-107108750D01*
X99409250Y-106950000D01*
X99118690Y-106950000D01*
X98885301Y-107046673D01*
X98706673Y-107225302D01*
X98610000Y-107458691D01*
X91450000Y-107458691D01*
X91450000Y-106474802D01*
X92707302Y-105217500D01*
X100628238Y-105217500D01*
X100828471Y-105517170D01*
X101314652Y-105842026D01*
X101888141Y-105956100D01*
X101946859Y-105956100D01*
X102520348Y-105842026D01*
X102985942Y-105530926D01*
X102990738Y-105556417D01*
X103129810Y-105772541D01*
X103342010Y-105917531D01*
X103593900Y-105968540D01*
X105321100Y-105968540D01*
X105556417Y-105924262D01*
X105772541Y-105785190D01*
X105811145Y-105728690D01*
X114570000Y-105728690D01*
X114570000Y-106569250D01*
X114728750Y-106728000D01*
X116078000Y-106728000D01*
X116078000Y-105378750D01*
X116332000Y-105378750D01*
X116332000Y-106728000D01*
X117681250Y-106728000D01*
X117840000Y-106569250D01*
X117840000Y-105728690D01*
X117743327Y-105495301D01*
X117564698Y-105316673D01*
X117331309Y-105220000D01*
X116490750Y-105220000D01*
X116332000Y-105378750D01*
X116078000Y-105378750D01*
X115919250Y-105220000D01*
X115078691Y-105220000D01*
X114845302Y-105316673D01*
X114666673Y-105495301D01*
X114570000Y-105728690D01*
X105811145Y-105728690D01*
X105917531Y-105572990D01*
X105968540Y-105321100D01*
X105968540Y-103593900D01*
X105924262Y-103358583D01*
X105785190Y-103142459D01*
X105572990Y-102997469D01*
X105529369Y-102988636D01*
X105546529Y-102977170D01*
X105871385Y-102490989D01*
X105985459Y-101917500D01*
X105871385Y-101344011D01*
X105546529Y-100857830D01*
X105060348Y-100532974D01*
X104486859Y-100418900D01*
X104428141Y-100418900D01*
X103854652Y-100532974D01*
X103368471Y-100857830D01*
X103187500Y-101128672D01*
X103006529Y-100857830D01*
X102520348Y-100532974D01*
X101946859Y-100418900D01*
X101888141Y-100418900D01*
X101314652Y-100532974D01*
X100828471Y-100857830D01*
X100628238Y-101157500D01*
X94296090Y-101157500D01*
X94005251Y-101215352D01*
X93758689Y-101380099D01*
X89427598Y-105711190D01*
X89262851Y-105957752D01*
X89204999Y-106248591D01*
X81990000Y-106248591D01*
X81990000Y-88535000D01*
X93517560Y-88535000D01*
X93517560Y-89035000D01*
X93561838Y-89270317D01*
X93700910Y-89486441D01*
X93770711Y-89534134D01*
X93713559Y-89570910D01*
X93568569Y-89783110D01*
X93517560Y-90035000D01*
X93517560Y-90535000D01*
X93561838Y-90770317D01*
X93700910Y-90986441D01*
X93913110Y-91131431D01*
X94165000Y-91182440D01*
X95065000Y-91182440D01*
X95300317Y-91138162D01*
X95445095Y-91045000D01*
X96195000Y-91045000D01*
X96485839Y-90987148D01*
X96667969Y-90865453D01*
X96627560Y-91065000D01*
X96627560Y-91815000D01*
X96671838Y-92050317D01*
X96810910Y-92266441D01*
X96998982Y-92394945D01*
X97137599Y-92602401D01*
X97782599Y-93247401D01*
X98029161Y-93412148D01*
X98320000Y-93470000D01*
X100330000Y-93470000D01*
X100620839Y-93412148D01*
X100867401Y-93247401D01*
X101279802Y-92835000D01*
X102635002Y-92835000D01*
X102925841Y-92777148D01*
X103172403Y-92612401D01*
X104092400Y-91692404D01*
X104125785Y-91642440D01*
X105480000Y-91642440D01*
X105715317Y-91598162D01*
X105931441Y-91459090D01*
X106076431Y-91246890D01*
X106127440Y-90995000D01*
X106127440Y-88995000D01*
X106083162Y-88759683D01*
X105944090Y-88543559D01*
X105731890Y-88398569D01*
X105689575Y-88390000D01*
X107930738Y-88390000D01*
X108130971Y-88689670D01*
X108617152Y-89014526D01*
X109190641Y-89128600D01*
X109249359Y-89128600D01*
X109822848Y-89014526D01*
X110288442Y-88703426D01*
X110293238Y-88728917D01*
X110432310Y-88945041D01*
X110644510Y-89090031D01*
X110896400Y-89141040D01*
X112623600Y-89141040D01*
X112858917Y-89096762D01*
X113075041Y-88957690D01*
X113220031Y-88745490D01*
X113271040Y-88493600D01*
X113271040Y-86766400D01*
X113226762Y-86531083D01*
X113087690Y-86314959D01*
X112875490Y-86169969D01*
X112831869Y-86161136D01*
X112849029Y-86149670D01*
X113173885Y-85663489D01*
X113287959Y-85090000D01*
X113173885Y-84516511D01*
X112849029Y-84030330D01*
X112362848Y-83705474D01*
X111789359Y-83591400D01*
X111730641Y-83591400D01*
X111157152Y-83705474D01*
X110670971Y-84030330D01*
X110490000Y-84301172D01*
X110309029Y-84030330D01*
X109822848Y-83705474D01*
X109249359Y-83591400D01*
X109190641Y-83591400D01*
X108617152Y-83705474D01*
X108130971Y-84030330D01*
X107930738Y-84330000D01*
X105724802Y-84330000D01*
X105535000Y-84140198D01*
X105535000Y-84015000D01*
X105481007Y-83743559D01*
X105477148Y-83724160D01*
X105312401Y-83477599D01*
X105292401Y-83457599D01*
X105152440Y-83364080D01*
X105152440Y-82995000D01*
X105108162Y-82759683D01*
X104969090Y-82543559D01*
X104756890Y-82398569D01*
X104505000Y-82347560D01*
X102505000Y-82347560D01*
X102269683Y-82391838D01*
X102053559Y-82530910D01*
X101908569Y-82743110D01*
X101857560Y-82995000D01*
X101857560Y-83235000D01*
X99435000Y-83235000D01*
X99144160Y-83292852D01*
X98897599Y-83457599D01*
X96152599Y-86202599D01*
X96044567Y-86364280D01*
X95924683Y-86386838D01*
X95708559Y-86525910D01*
X95563569Y-86738110D01*
X95561759Y-86747050D01*
X95436799Y-86695162D01*
X95064833Y-86694838D01*
X94721057Y-86836883D01*
X94457808Y-87099673D01*
X94315162Y-87443201D01*
X94314838Y-87815167D01*
X94344750Y-87887560D01*
X94165000Y-87887560D01*
X93929683Y-87931838D01*
X93713559Y-88070910D01*
X93568569Y-88283110D01*
X93517560Y-88535000D01*
X81990000Y-88535000D01*
X81990000Y-82100167D01*
X126064838Y-82100167D01*
X126206883Y-82443943D01*
X126240000Y-82477118D01*
X126240000Y-82550000D01*
X126297852Y-82840839D01*
X126462599Y-83087401D01*
X126982599Y-83607401D01*
X127229161Y-83772148D01*
X127409423Y-83808005D01*
X127425711Y-83819134D01*
X127368559Y-83855910D01*
X127223569Y-84068110D01*
X127172560Y-84320000D01*
X127172560Y-84820000D01*
X127216838Y-85055317D01*
X127355910Y-85271441D01*
X127568110Y-85416431D01*
X127820000Y-85467440D01*
X128720000Y-85467440D01*
X128955317Y-85423162D01*
X129100095Y-85330000D01*
X129211778Y-85330000D01*
X129211838Y-85330317D01*
X129350910Y-85546441D01*
X129563110Y-85691431D01*
X129815000Y-85742440D01*
X130352758Y-85742440D01*
X129580856Y-86514342D01*
X129251859Y-86448900D01*
X129193141Y-86448900D01*
X128619652Y-86562974D01*
X128133471Y-86887830D01*
X127808615Y-87374011D01*
X127694541Y-87947500D01*
X127808615Y-88520989D01*
X128133471Y-89007170D01*
X128448252Y-89217500D01*
X128133471Y-89427830D01*
X127808615Y-89914011D01*
X127694541Y-90487500D01*
X127808615Y-91060989D01*
X128133471Y-91547170D01*
X128619652Y-91872026D01*
X129193141Y-91986100D01*
X129251859Y-91986100D01*
X129825348Y-91872026D01*
X130290942Y-91560926D01*
X130295738Y-91586417D01*
X130434810Y-91802541D01*
X130647010Y-91947531D01*
X130898900Y-91998540D01*
X132626100Y-91998540D01*
X132861417Y-91954262D01*
X133077541Y-91815190D01*
X133222531Y-91602990D01*
X133273540Y-91351100D01*
X133273540Y-90051262D01*
X133839802Y-89485000D01*
X134537560Y-89485000D01*
X134537560Y-89725000D01*
X134581838Y-89960317D01*
X134720910Y-90176441D01*
X134933110Y-90321431D01*
X135185000Y-90372440D01*
X136785000Y-90372440D01*
X137020317Y-90328162D01*
X137160727Y-90237810D01*
X137283110Y-90321431D01*
X137535000Y-90372440D01*
X139135000Y-90372440D01*
X139370317Y-90328162D01*
X139586441Y-90189090D01*
X139731431Y-89976890D01*
X139782440Y-89725000D01*
X139782440Y-87725000D01*
X139738162Y-87489683D01*
X139599090Y-87273559D01*
X139386890Y-87128569D01*
X139196431Y-87090000D01*
X150412560Y-87090000D01*
X150412560Y-89090000D01*
X150456838Y-89325317D01*
X150595910Y-89541441D01*
X150808110Y-89686431D01*
X151060000Y-89737440D01*
X151525000Y-89737440D01*
X151525000Y-89976614D01*
X151438569Y-90103110D01*
X151387560Y-90355000D01*
X151387560Y-91255000D01*
X151431838Y-91490317D01*
X151570910Y-91706441D01*
X151783110Y-91851431D01*
X152035000Y-91902440D01*
X152107638Y-91902440D01*
X153132599Y-92927401D01*
X153379161Y-93092148D01*
X153670000Y-93150000D01*
X154740331Y-93150000D01*
X154750910Y-93166441D01*
X154963110Y-93311431D01*
X155215000Y-93362440D01*
X156275000Y-93362440D01*
X156510317Y-93318162D01*
X156726441Y-93179090D01*
X156846233Y-93003768D01*
X156950910Y-93166441D01*
X157163110Y-93311431D01*
X157298288Y-93338805D01*
X157407599Y-93502401D01*
X157612599Y-93707401D01*
X157859161Y-93872148D01*
X158150000Y-93930000D01*
X160912560Y-93930000D01*
X160912560Y-94170000D01*
X160956838Y-94405317D01*
X161095910Y-94621441D01*
X161308110Y-94766431D01*
X161560000Y-94817440D01*
X163560000Y-94817440D01*
X163795317Y-94773162D01*
X164011441Y-94634090D01*
X164156431Y-94421890D01*
X164207440Y-94170000D01*
X164207440Y-92170000D01*
X164163162Y-91934683D01*
X164024090Y-91718559D01*
X163811890Y-91573569D01*
X163560000Y-91522560D01*
X161560000Y-91522560D01*
X161324683Y-91566838D01*
X161108559Y-91705910D01*
X160963569Y-91918110D01*
X160912560Y-92170000D01*
X160912560Y-92410000D01*
X159122440Y-92410000D01*
X159122440Y-92200000D01*
X159457537Y-92200000D01*
X159489673Y-92232192D01*
X159833201Y-92374838D01*
X160205167Y-92375162D01*
X160548943Y-92233117D01*
X160812192Y-91970327D01*
X160954838Y-91626799D01*
X160955162Y-91254833D01*
X160813117Y-90911057D01*
X160550327Y-90647808D01*
X160206799Y-90505162D01*
X159834833Y-90504838D01*
X159491057Y-90646883D01*
X159457882Y-90680000D01*
X159014250Y-90680000D01*
X158951250Y-90617000D01*
X158072000Y-90617000D01*
X158072000Y-90637000D01*
X157818000Y-90637000D01*
X157818000Y-90617000D01*
X157798000Y-90617000D01*
X157798000Y-90363000D01*
X157818000Y-90363000D01*
X157818000Y-89688750D01*
X158072000Y-89688750D01*
X158072000Y-90363000D01*
X158951250Y-90363000D01*
X159110000Y-90204250D01*
X159110000Y-90038690D01*
X159013327Y-89805301D01*
X158834698Y-89626673D01*
X158601309Y-89530000D01*
X158230750Y-89530000D01*
X158072000Y-89688750D01*
X157818000Y-89688750D01*
X157659250Y-89530000D01*
X157288691Y-89530000D01*
X157055302Y-89626673D01*
X156876673Y-89805301D01*
X156845912Y-89879565D01*
X156739090Y-89713559D01*
X156526890Y-89568569D01*
X156505000Y-89564136D01*
X156505000Y-87455750D01*
X159950000Y-87455750D01*
X159950000Y-88296310D01*
X160046673Y-88529699D01*
X160225302Y-88708327D01*
X160458691Y-88805000D01*
X161099250Y-88805000D01*
X161258000Y-88646250D01*
X161258000Y-87297000D01*
X160108750Y-87297000D01*
X159950000Y-87455750D01*
X156505000Y-87455750D01*
X156505000Y-87139802D01*
X157601112Y-86043690D01*
X159950000Y-86043690D01*
X159950000Y-86884250D01*
X160108750Y-87043000D01*
X161258000Y-87043000D01*
X161258000Y-85693750D01*
X161512000Y-85693750D01*
X161512000Y-87043000D01*
X161532000Y-87043000D01*
X161532000Y-87297000D01*
X161512000Y-87297000D01*
X161512000Y-88646250D01*
X161670750Y-88805000D01*
X162311309Y-88805000D01*
X162544698Y-88708327D01*
X162566364Y-88686662D01*
X162683110Y-88766431D01*
X162935000Y-88817440D01*
X162977474Y-88817440D01*
X163032852Y-89095839D01*
X163197599Y-89342401D01*
X163529878Y-89674680D01*
X163529838Y-89720167D01*
X163671883Y-90063943D01*
X163934673Y-90327192D01*
X164278201Y-90469838D01*
X164650167Y-90470162D01*
X164993943Y-90328117D01*
X165257192Y-90065327D01*
X165399838Y-89721799D01*
X165400162Y-89349833D01*
X165258117Y-89006057D01*
X164995327Y-88742808D01*
X164887238Y-88697925D01*
X164986441Y-88634090D01*
X165131431Y-88421890D01*
X165182440Y-88170000D01*
X165182440Y-87180167D01*
X174959838Y-87180167D01*
X175101883Y-87523943D01*
X175364673Y-87787192D01*
X175708201Y-87929838D01*
X176080167Y-87930162D01*
X176423943Y-87788117D01*
X176687192Y-87525327D01*
X176696272Y-87503460D01*
X176790000Y-87522440D01*
X177540000Y-87522440D01*
X177775317Y-87478162D01*
X177991441Y-87339090D01*
X178136431Y-87126890D01*
X178187440Y-86875000D01*
X178187440Y-86430784D01*
X178195000Y-86432315D01*
X178195000Y-87436614D01*
X178108569Y-87563110D01*
X178057560Y-87815000D01*
X178057560Y-88715000D01*
X178101838Y-88950317D01*
X178240910Y-89166441D01*
X178453110Y-89311431D01*
X178618437Y-89344910D01*
X178541057Y-89376883D01*
X178277808Y-89639673D01*
X178135162Y-89983201D01*
X178135121Y-90030077D01*
X177897599Y-90267599D01*
X177732852Y-90514161D01*
X177675000Y-90805000D01*
X177675000Y-91154895D01*
X177533559Y-91245910D01*
X177388569Y-91458110D01*
X177337560Y-91710000D01*
X177337560Y-92210000D01*
X177381838Y-92445317D01*
X177520910Y-92661441D01*
X177590711Y-92709134D01*
X177533559Y-92745910D01*
X177388569Y-92958110D01*
X177337560Y-93210000D01*
X177337560Y-93710000D01*
X177381838Y-93945317D01*
X177520910Y-94161441D01*
X177733110Y-94306431D01*
X177985000Y-94357440D01*
X178885000Y-94357440D01*
X179120317Y-94313162D01*
X179265095Y-94220000D01*
X179945000Y-94220000D01*
X179962560Y-94216507D01*
X179962560Y-95065000D01*
X180006838Y-95300317D01*
X180145910Y-95516441D01*
X180358110Y-95661431D01*
X180610000Y-95712440D01*
X181110000Y-95712440D01*
X181345317Y-95668162D01*
X181561441Y-95529090D01*
X181607969Y-95460994D01*
X181750302Y-95603327D01*
X181983691Y-95700000D01*
X182076250Y-95700000D01*
X182235000Y-95541250D01*
X182235000Y-94742000D01*
X182485000Y-94742000D01*
X182485000Y-95541250D01*
X182643750Y-95700000D01*
X182736309Y-95700000D01*
X182969698Y-95603327D01*
X183148327Y-95424699D01*
X183245000Y-95191310D01*
X183245000Y-94900750D01*
X183086250Y-94742000D01*
X182485000Y-94742000D01*
X182235000Y-94742000D01*
X182213000Y-94742000D01*
X182213000Y-94488000D01*
X182235000Y-94488000D01*
X182235000Y-94468000D01*
X182485000Y-94468000D01*
X182485000Y-94488000D01*
X183086250Y-94488000D01*
X183245000Y-94329250D01*
X183245000Y-94038690D01*
X183148327Y-93805301D01*
X183037272Y-93694246D01*
X183244699Y-93608327D01*
X183423327Y-93429698D01*
X183520000Y-93196309D01*
X183520000Y-92825750D01*
X183361250Y-92667000D01*
X182687000Y-92667000D01*
X182687000Y-92687000D01*
X182433000Y-92687000D01*
X182433000Y-92667000D01*
X182413000Y-92667000D01*
X182413000Y-92413000D01*
X182433000Y-92413000D01*
X182433000Y-92393000D01*
X182687000Y-92393000D01*
X182687000Y-92413000D01*
X183361250Y-92413000D01*
X183520000Y-92254250D01*
X183520000Y-91883691D01*
X183423327Y-91650302D01*
X183244699Y-91471673D01*
X183170435Y-91440912D01*
X183336441Y-91334090D01*
X183481431Y-91121890D01*
X183532440Y-90870000D01*
X183532440Y-90237362D01*
X184407362Y-89362440D01*
X184515000Y-89362440D01*
X184750317Y-89318162D01*
X184966441Y-89179090D01*
X185071726Y-89025000D01*
X187231934Y-89025000D01*
X187327110Y-89090031D01*
X187368439Y-89098400D01*
X187350585Y-89110330D01*
X187025729Y-89596511D01*
X186911655Y-90170000D01*
X187025729Y-90743489D01*
X187350585Y-91229670D01*
X187665366Y-91440000D01*
X187350585Y-91650330D01*
X187025729Y-92136511D01*
X186911655Y-92710000D01*
X187025729Y-93283489D01*
X187350585Y-93769670D01*
X187836766Y-94094526D01*
X188410255Y-94208600D01*
X188779745Y-94208600D01*
X189353234Y-94094526D01*
X189839415Y-93769670D01*
X190164271Y-93283489D01*
X190278345Y-92710000D01*
X190164271Y-92136511D01*
X189839415Y-91650330D01*
X189524634Y-91440000D01*
X189839415Y-91229670D01*
X190164271Y-90743489D01*
X190278345Y-90170000D01*
X190164271Y-89596511D01*
X189839415Y-89110330D01*
X189825087Y-89100757D01*
X189846317Y-89096762D01*
X190062441Y-88957690D01*
X190207431Y-88745490D01*
X190258440Y-88493600D01*
X190258440Y-86766400D01*
X190214162Y-86531083D01*
X190075090Y-86314959D01*
X189862890Y-86169969D01*
X189611000Y-86118960D01*
X187579000Y-86118960D01*
X187343683Y-86163238D01*
X187127559Y-86302310D01*
X186982569Y-86514510D01*
X186931560Y-86766400D01*
X186931560Y-87505000D01*
X185070105Y-87505000D01*
X185025000Y-87434905D01*
X185025000Y-85467440D01*
X186245000Y-85467440D01*
X186480317Y-85423162D01*
X186696441Y-85284090D01*
X186841431Y-85071890D01*
X186892440Y-84820000D01*
X186892440Y-82820000D01*
X186848162Y-82584683D01*
X186709090Y-82368559D01*
X186496890Y-82223569D01*
X186245000Y-82172560D01*
X184245000Y-82172560D01*
X184009683Y-82216838D01*
X183793559Y-82355910D01*
X183648569Y-82568110D01*
X183597560Y-82820000D01*
X183597560Y-84457217D01*
X183562852Y-84509161D01*
X183505000Y-84800000D01*
X183505000Y-87403824D01*
X183479090Y-87363559D01*
X183266890Y-87218569D01*
X183015000Y-87167560D01*
X182515000Y-87167560D01*
X182279683Y-87211838D01*
X182063559Y-87350910D01*
X181958274Y-87505000D01*
X181260105Y-87505000D01*
X181169090Y-87363559D01*
X180956890Y-87218569D01*
X180705000Y-87167560D01*
X180205000Y-87167560D01*
X179969683Y-87211838D01*
X179753559Y-87350910D01*
X179715000Y-87407343D01*
X179715000Y-86442440D01*
X180245000Y-86442440D01*
X180480317Y-86398162D01*
X180696441Y-86259090D01*
X180841431Y-86046890D01*
X180892440Y-85795000D01*
X180892440Y-84195000D01*
X180848162Y-83959683D01*
X180757810Y-83819273D01*
X180841431Y-83696890D01*
X180892440Y-83445000D01*
X180892440Y-81845000D01*
X180848162Y-81609683D01*
X180709090Y-81393559D01*
X180496890Y-81248569D01*
X180245000Y-81197560D01*
X178245000Y-81197560D01*
X178009683Y-81241838D01*
X177793559Y-81380910D01*
X177648569Y-81593110D01*
X177597560Y-81845000D01*
X177597560Y-83445000D01*
X177641838Y-83680317D01*
X177732190Y-83820727D01*
X177648569Y-83943110D01*
X177647317Y-83949292D01*
X177540000Y-83927560D01*
X176790000Y-83927560D01*
X176554683Y-83971838D01*
X176338559Y-84110910D01*
X176193569Y-84323110D01*
X176142560Y-84575000D01*
X176142560Y-85375000D01*
X176186838Y-85610317D01*
X176260620Y-85724978D01*
X176210055Y-85798982D01*
X176002599Y-85937599D01*
X175880212Y-86059986D01*
X175709833Y-86059838D01*
X175366057Y-86201883D01*
X175102808Y-86464673D01*
X174960162Y-86808201D01*
X174959838Y-87180167D01*
X165182440Y-87180167D01*
X165182440Y-86170000D01*
X165138162Y-85934683D01*
X164999090Y-85718559D01*
X164786890Y-85573569D01*
X164535000Y-85522560D01*
X162935000Y-85522560D01*
X162699683Y-85566838D01*
X162565931Y-85652905D01*
X162544698Y-85631673D01*
X162311309Y-85535000D01*
X161670750Y-85535000D01*
X161512000Y-85693750D01*
X161258000Y-85693750D01*
X161099250Y-85535000D01*
X160458691Y-85535000D01*
X160225302Y-85631673D01*
X160046673Y-85810301D01*
X159950000Y-86043690D01*
X157601112Y-86043690D01*
X158391644Y-85253158D01*
X158720641Y-85318600D01*
X158779359Y-85318600D01*
X159352848Y-85204526D01*
X159839029Y-84879670D01*
X160020000Y-84608828D01*
X160200971Y-84879670D01*
X160687152Y-85204526D01*
X161260641Y-85318600D01*
X161319359Y-85318600D01*
X161892848Y-85204526D01*
X162379029Y-84879670D01*
X162703885Y-84393489D01*
X162817959Y-83820000D01*
X162703885Y-83246511D01*
X162379029Y-82760330D01*
X162064248Y-82550000D01*
X162379029Y-82339670D01*
X162703885Y-81853489D01*
X162817959Y-81280000D01*
X162703885Y-80706511D01*
X162379029Y-80220330D01*
X161892848Y-79895474D01*
X161319359Y-79781400D01*
X161260641Y-79781400D01*
X160687152Y-79895474D01*
X160221558Y-80206574D01*
X160216762Y-80181083D01*
X160077690Y-79964959D01*
X159865490Y-79819969D01*
X159613600Y-79768960D01*
X157886400Y-79768960D01*
X157651083Y-79813238D01*
X157434959Y-79952310D01*
X157289969Y-80164510D01*
X157238960Y-80416400D01*
X157238960Y-81330000D01*
X154682440Y-81330000D01*
X154682440Y-81090000D01*
X154638162Y-80854683D01*
X154499090Y-80638559D01*
X154286890Y-80493569D01*
X154035000Y-80442560D01*
X152035000Y-80442560D01*
X151799683Y-80486838D01*
X151583559Y-80625910D01*
X151438569Y-80838110D01*
X151387560Y-81090000D01*
X151387560Y-83090000D01*
X151431838Y-83325317D01*
X151570910Y-83541441D01*
X151783110Y-83686431D01*
X152035000Y-83737440D01*
X154035000Y-83737440D01*
X154270317Y-83693162D01*
X154486441Y-83554090D01*
X154631431Y-83341890D01*
X154682440Y-83090000D01*
X154682440Y-82850000D01*
X157601055Y-82850000D01*
X157336115Y-83246511D01*
X157222041Y-83820000D01*
X157297225Y-84197973D01*
X155207599Y-86287599D01*
X155092848Y-86459337D01*
X155010000Y-86442560D01*
X153410000Y-86442560D01*
X153174683Y-86486838D01*
X153034273Y-86577190D01*
X152911890Y-86493569D01*
X152660000Y-86442560D01*
X151060000Y-86442560D01*
X150824683Y-86486838D01*
X150608559Y-86625910D01*
X150463569Y-86838110D01*
X150412560Y-87090000D01*
X139196431Y-87090000D01*
X139135000Y-87077560D01*
X137535000Y-87077560D01*
X137299683Y-87121838D01*
X137159273Y-87212190D01*
X137036890Y-87128569D01*
X136785000Y-87077560D01*
X135185000Y-87077560D01*
X134949683Y-87121838D01*
X134733559Y-87260910D01*
X134588569Y-87473110D01*
X134537560Y-87725000D01*
X134537560Y-87965000D01*
X133525000Y-87965000D01*
X133282414Y-88013254D01*
X133277172Y-88014296D01*
X133290459Y-87947500D01*
X133176385Y-87374011D01*
X132851529Y-86887830D01*
X132365348Y-86562974D01*
X131795231Y-86449571D01*
X131982401Y-86262401D01*
X132147148Y-86015839D01*
X132201531Y-85742440D01*
X133075000Y-85742440D01*
X133310317Y-85698162D01*
X133526441Y-85559090D01*
X133581128Y-85479052D01*
X133615839Y-85472148D01*
X133641504Y-85454999D01*
X133940001Y-85454999D01*
X134230840Y-85397147D01*
X134477402Y-85232400D01*
X135632266Y-84077536D01*
X135695910Y-84176441D01*
X135908110Y-84321431D01*
X136160000Y-84372440D01*
X138160000Y-84372440D01*
X138395317Y-84328162D01*
X138611441Y-84189090D01*
X138756431Y-83976890D01*
X138807440Y-83725000D01*
X138807440Y-81725000D01*
X138763162Y-81489683D01*
X138624090Y-81273559D01*
X138411890Y-81128569D01*
X138160000Y-81077560D01*
X136160000Y-81077560D01*
X135924683Y-81121838D01*
X135708559Y-81260910D01*
X135563569Y-81473110D01*
X135512560Y-81725000D01*
X135512560Y-82094080D01*
X135372599Y-82187599D01*
X134745000Y-82815198D01*
X134745000Y-81915000D01*
X134725586Y-81817401D01*
X134687148Y-81624160D01*
X134522401Y-81377599D01*
X133252401Y-80107599D01*
X133005839Y-79942852D01*
X132715000Y-79885000D01*
X132466844Y-79885000D01*
X132424090Y-79818559D01*
X132211890Y-79673569D01*
X131960000Y-79622560D01*
X131160000Y-79622560D01*
X130924683Y-79666838D01*
X130810022Y-79740620D01*
X130711890Y-79673569D01*
X130460000Y-79622560D01*
X129660000Y-79622560D01*
X129424683Y-79666838D01*
X129208559Y-79805910D01*
X129063569Y-80018110D01*
X129012560Y-80270000D01*
X129012560Y-81020000D01*
X129056838Y-81255317D01*
X129195910Y-81471441D01*
X129408110Y-81616431D01*
X129585000Y-81652252D01*
X129585000Y-81940838D01*
X129579683Y-81941838D01*
X129363559Y-82080910D01*
X129218569Y-82293110D01*
X129198694Y-82391255D01*
X129184090Y-82368559D01*
X128971890Y-82223569D01*
X128720000Y-82172560D01*
X127905455Y-82172560D01*
X127934838Y-82101799D01*
X127935162Y-81729833D01*
X127793117Y-81386057D01*
X127530327Y-81122808D01*
X127186799Y-80980162D01*
X126814833Y-80979838D01*
X126471057Y-81121883D01*
X126207808Y-81384673D01*
X126065162Y-81728201D01*
X126064838Y-82100167D01*
X81990000Y-82100167D01*
X81990000Y-74370000D01*
X192330000Y-74370000D01*
X192330000Y-144070000D01*
G36*
X101857560Y-84995000D02*
X101901838Y-85230317D01*
X102040910Y-85446441D01*
X102253110Y-85591431D01*
X102505000Y-85642440D01*
X104505000Y-85642440D01*
X104740317Y-85598162D01*
X104803015Y-85557817D01*
X104872599Y-85627401D01*
X105119161Y-85792148D01*
X105410000Y-85850000D01*
X107930738Y-85850000D01*
X108130971Y-86149670D01*
X108445752Y-86360000D01*
X108130971Y-86570330D01*
X107930738Y-86870000D01*
X104775000Y-86870000D01*
X104484161Y-86927852D01*
X104237599Y-87092599D01*
X103017598Y-88312600D01*
X102994239Y-88347560D01*
X101530000Y-88347560D01*
X101294683Y-88391838D01*
X101078559Y-88530910D01*
X100933569Y-88743110D01*
X100882560Y-88995000D01*
X100882560Y-89235000D01*
X100189802Y-89235000D01*
X100067440Y-89112638D01*
X100067440Y-88890000D01*
X100023162Y-88654683D01*
X99884090Y-88438559D01*
X99671890Y-88293569D01*
X99557435Y-88270391D01*
X99779698Y-88178327D01*
X99958327Y-87999699D01*
X100055000Y-87766310D01*
X100055000Y-87600750D01*
X99896250Y-87442000D01*
X99017000Y-87442000D01*
X99017000Y-87462000D01*
X98763000Y-87462000D01*
X98763000Y-87442000D01*
X98743000Y-87442000D01*
X98743000Y-87188000D01*
X98763000Y-87188000D01*
X98763000Y-86513750D01*
X99017000Y-86513750D01*
X99017000Y-87188000D01*
X99896250Y-87188000D01*
X100055000Y-87029250D01*
X100055000Y-86863690D01*
X99958327Y-86630301D01*
X99779698Y-86451673D01*
X99546309Y-86355000D01*
X99175750Y-86355000D01*
X99017000Y-86513750D01*
X98763000Y-86513750D01*
X98604250Y-86355000D01*
X98233691Y-86355000D01*
X98090483Y-86414319D01*
X99749802Y-84755000D01*
X101857560Y-84755000D01*
X101857560Y-84995000D01*
X101857560Y-84995000D01*
G37*
X101857560Y-84995000D02*
X101901838Y-85230317D01*
X102040910Y-85446441D01*
X102253110Y-85591431D01*
X102505000Y-85642440D01*
X104505000Y-85642440D01*
X104740317Y-85598162D01*
X104803015Y-85557817D01*
X104872599Y-85627401D01*
X105119161Y-85792148D01*
X105410000Y-85850000D01*
X107930738Y-85850000D01*
X108130971Y-86149670D01*
X108445752Y-86360000D01*
X108130971Y-86570330D01*
X107930738Y-86870000D01*
X104775000Y-86870000D01*
X104484161Y-86927852D01*
X104237599Y-87092599D01*
X103017598Y-88312600D01*
X102994239Y-88347560D01*
X101530000Y-88347560D01*
X101294683Y-88391838D01*
X101078559Y-88530910D01*
X100933569Y-88743110D01*
X100882560Y-88995000D01*
X100882560Y-89235000D01*
X100189802Y-89235000D01*
X100067440Y-89112638D01*
X100067440Y-88890000D01*
X100023162Y-88654683D01*
X99884090Y-88438559D01*
X99671890Y-88293569D01*
X99557435Y-88270391D01*
X99779698Y-88178327D01*
X99958327Y-87999699D01*
X100055000Y-87766310D01*
X100055000Y-87600750D01*
X99896250Y-87442000D01*
X99017000Y-87442000D01*
X99017000Y-87462000D01*
X98763000Y-87462000D01*
X98763000Y-87442000D01*
X98743000Y-87442000D01*
X98743000Y-87188000D01*
X98763000Y-87188000D01*
X98763000Y-86513750D01*
X99017000Y-86513750D01*
X99017000Y-87188000D01*
X99896250Y-87188000D01*
X100055000Y-87029250D01*
X100055000Y-86863690D01*
X99958327Y-86630301D01*
X99779698Y-86451673D01*
X99546309Y-86355000D01*
X99175750Y-86355000D01*
X99017000Y-86513750D01*
X98763000Y-86513750D01*
X98604250Y-86355000D01*
X98233691Y-86355000D01*
X98090483Y-86414319D01*
X99749802Y-84755000D01*
X101857560Y-84755000D01*
X101857560Y-84995000D01*
G36*
X132905198Y-81910000D02*
X132830750Y-81910000D01*
X132672000Y-82068750D01*
X132672000Y-82743000D01*
X132692000Y-82743000D01*
X132692000Y-82997000D01*
X132672000Y-82997000D01*
X132672000Y-83017000D01*
X132418000Y-83017000D01*
X132418000Y-82997000D01*
X132398000Y-82997000D01*
X132398000Y-82743000D01*
X132418000Y-82743000D01*
X132418000Y-82068750D01*
X132259250Y-81910000D01*
X131888691Y-81910000D01*
X131655302Y-82006673D01*
X131476673Y-82185301D01*
X131469147Y-82203471D01*
X131415839Y-82167852D01*
X131382648Y-82161250D01*
X131339090Y-82093559D01*
X131126890Y-81948569D01*
X131105000Y-81944136D01*
X131105000Y-81656302D01*
X131160000Y-81667440D01*
X131960000Y-81667440D01*
X132195317Y-81623162D01*
X132411441Y-81484090D01*
X132438981Y-81443783D01*
X132905198Y-81910000D01*
X132905198Y-81910000D01*
G37*
X132905198Y-81910000D02*
X132830750Y-81910000D01*
X132672000Y-82068750D01*
X132672000Y-82743000D01*
X132692000Y-82743000D01*
X132692000Y-82997000D01*
X132672000Y-82997000D01*
X132672000Y-83017000D01*
X132418000Y-83017000D01*
X132418000Y-82997000D01*
X132398000Y-82997000D01*
X132398000Y-82743000D01*
X132418000Y-82743000D01*
X132418000Y-82068750D01*
X132259250Y-81910000D01*
X131888691Y-81910000D01*
X131655302Y-82006673D01*
X131476673Y-82185301D01*
X131469147Y-82203471D01*
X131415839Y-82167852D01*
X131382648Y-82161250D01*
X131339090Y-82093559D01*
X131126890Y-81948569D01*
X131105000Y-81944136D01*
X131105000Y-81656302D01*
X131160000Y-81667440D01*
X131960000Y-81667440D01*
X132195317Y-81623162D01*
X132411441Y-81484090D01*
X132438981Y-81443783D01*
X132905198Y-81910000D01*
M02*
